<svg width="65" height="65" viewBox="0 0 65 65" fill="none" xmlns="http://www.w3.org/2000/svg">
<g clip-path="url(#clip0)">
<path d="M10.2852 40.3585C4.68811 40.843 0.306537 45.3826 0.0206195 50.9934C-0.265298 56.6042 3.6321 61.5657 9.15097 62.6167C9.88248 64.0728 11.3705 64.9942 13.0001 65H39.0001C40.6296 64.9942 42.1176 64.0728 42.8491 62.6167C48.3711 61.5691 52.2724 56.6063 51.9863 50.9931C51.7003 45.3798 47.3148 40.8393 41.7149 40.3585C38.984 39.9971 36.2286 39.8544 33.4751 39.9317C33.1169 38.3729 32.8567 36.7932 32.6961 35.2018C34.6665 33.2182 36.0828 30.7531 36.8041 28.0518C37.17 28.1286 37.5429 28.1671 37.9167 28.1667V32.5C37.9167 33.0983 38.4017 33.5833 39.0001 33.5833C39.4876 33.5833 39.0282 33.8119 46.9301 28.1667H59.5834C62.5734 28.1631 64.9965 25.7401 65.0001 22.75V5.41667C64.9965 2.42661 62.5734 0.00358163 59.5834 0H37.9167C36.5201 0.00196042 35.1787 0.545661 34.1749 1.51667C31.5536 0.558812 28.7905 0.0461825 26.0001 0C25.6241 0 16.7516 0.0541669 13.2167 4.76667C10.9417 7.8065 11.6036 15.6617 11.8582 17.9833C10.841 19.006 10.8334 20.9018 10.8334 21.5941C10.8334 26.3434 13.7161 27.6607 15.1765 28.0247C15.8863 30.7462 17.3071 33.2299 19.2931 35.2213C19.1403 36.8073 18.887 38.382 18.5348 39.936C15.7782 39.8633 13.02 40.0045 10.2852 40.3585ZM34.618 52C34.9465 52.2123 35.221 52.4983 35.4196 52.8352C33.1219 54.9517 31.0961 57.3454 29.3887 59.9614C29.8131 53.9268 31.1118 47.9859 33.2443 42.3247C35.0337 43.068 36.5271 44.382 37.4921 46.0622C35.7169 47.0685 34.353 48.6679 33.6397 50.5797C33.5183 50.9016 33.5623 51.2624 33.7574 51.5457C33.9525 51.829 34.274 51.9987 34.618 52ZM27.1051 62.8333H24.8951C24.7644 56.6917 23.7598 50.6 21.9116 44.7417C24.5418 45.7595 27.4572 45.7595 30.0875 44.7417C28.2402 50.6002 27.236 56.6918 27.1051 62.8333ZM18.3604 50.5743C17.6466 48.6616 16.2814 47.0616 14.5048 46.0557C15.467 44.372 16.9627 43.0569 18.7558 42.3182C20.8922 47.979 22.191 53.9212 22.6114 59.9571C20.9043 57.3399 18.878 54.9454 16.5794 52.8287C16.7719 52.5042 17.0284 52.2222 17.3334 52C17.6814 51.9997 18.0081 51.8323 18.2116 51.5499C18.415 51.2675 18.4704 50.9045 18.3604 50.5743ZM10.8334 60.6667V54.1667C10.8334 53.5683 10.3484 53.0833 9.75005 53.0833C9.15174 53.0833 8.66672 53.5683 8.66672 54.1667V60.2767C4.48481 59.032 1.77808 54.9905 2.2192 50.6497C2.66033 46.3088 6.12476 42.8944 10.4716 42.5165L14.9771 42.1243C13.7218 43.255 12.7093 44.629 12.0012 46.163C11.8841 46.4412 11.8883 46.7557 12.0129 47.0307C12.1376 47.3056 12.3713 47.5161 12.6577 47.6114C14.0373 48.1134 15.1861 49.1019 15.8882 50.3912C15.1799 51.0042 14.6044 51.7555 14.1971 52.5991C13.9633 53.0674 14.0978 53.6361 14.5167 53.95C17.432 56.1362 20.4068 60.4749 21.9018 62.8333H13.0001C11.8034 62.8333 10.8334 61.8633 10.8334 60.6667ZM49.8334 51.5775C49.8239 55.5939 47.1824 59.1291 43.3334 60.2767V54.1667C43.3334 53.5683 42.8484 53.0833 42.2501 53.0833C41.6517 53.0833 41.1667 53.5683 41.1667 54.1667V60.6667C41.1667 61.8633 40.1967 62.8333 39.0001 62.8333H30.0983C31.5933 60.4749 34.5681 56.1362 37.4834 53.95C37.9043 53.6376 38.0411 53.0687 37.8084 52.5991C37.4002 51.7537 36.8228 51.0011 36.1119 50.388C36.8129 49.0964 37.9647 48.1081 39.3478 47.6114C39.6343 47.5161 39.868 47.3056 39.9926 47.0307C40.1172 46.7557 40.1215 46.4412 40.0043 46.163C39.2968 44.6308 38.2859 43.258 37.0327 42.1276L41.5318 42.5165C46.2385 42.9097 49.8526 46.8544 49.8334 51.5775ZM37.9167 2.16667H59.5834C61.3783 2.16667 62.8334 3.62174 62.8334 5.41667V22.75C62.8334 24.5449 61.3783 26 59.5834 26C45.4329 26 46.3548 25.9133 45.954 26.2015L40.0834 30.3951V27.0833C40.0834 26.485 39.5984 26 39.0001 26H37.9167C36.1218 26 34.6667 24.5449 34.6667 22.75V5.41667C34.6667 3.62174 36.1218 2.16667 37.9167 2.16667ZM14.9501 6.06667C17.8339 2.22192 25.9199 2.16667 26.0001 2.16667C28.3501 2.2175 30.6793 2.61915 32.9106 3.35833C32.6553 3.98142 32.5193 4.64694 32.5098 5.32025C31.314 4.87424 30.0093 4.81028 28.7756 5.13717C23.2386 6.08292 22.1564 3.9585 19.0158 5.52825C16.5155 6.78058 15.1667 10.3122 15.1667 13C15.0699 14.5274 14.785 16.0371 14.3185 17.4947C14.2065 17.4565 14.0926 17.4243 13.9772 17.3983C13.6663 14.2935 13.4085 8.125 14.9501 6.06667ZM13.0001 21.5908C13.0001 19.8347 13.3901 19.4978 13.3868 19.4978C13.6487 19.5143 13.8992 19.6103 14.1051 19.773C14.1198 21.6656 14.2737 23.5547 14.5655 25.4247C13.7378 24.8517 13.0001 23.738 13.0001 21.5908ZM18.1611 29.8686C16.5296 26.4398 16.2501 22.425 16.2501 18.5878C16.8506 16.7797 17.2148 14.9015 17.3334 13C17.3334 10.9687 18.3983 8.2615 19.9843 7.46958C22.2019 6.35808 23.2831 8.27667 29.1385 7.27458C30.2745 6.89563 31.5233 7.08416 32.4968 7.78158V22.75C32.4997 24.5119 33.3607 26.162 34.8043 27.1722C33.5476 31.6572 30.7256 35.75 26.0001 35.75C22.6331 35.75 19.9962 33.7729 18.1611 29.8686ZM30.6866 36.6871C30.8664 38.1066 31.1287 39.5144 31.472 40.9034C29.6043 44.1534 22.4045 44.1751 20.5379 40.9034C20.8754 39.5167 21.1333 38.1119 21.3103 36.6957C24.2233 38.3283 27.7765 38.325 30.6866 36.6871Z" fill="#2E67B2"/>
<path d="M42.2502 17.3333H45.5002V20.5833C45.5002 21.7799 46.4702 22.75 47.6668 22.75H49.8335C51.0301 22.75 52.0002 21.7799 52.0002 20.5833V17.3333H55.2502C56.4468 17.3333 57.4168 16.3633 57.4168 15.1667V13C57.4168 11.8034 56.4468 10.8333 55.2502 10.8333H52.0002V7.58332C52.0002 6.38671 51.0301 5.41666 49.8335 5.41666H47.6668C46.4702 5.41666 45.5002 6.38671 45.5002 7.58332V10.8333H42.2502C41.0535 10.8333 40.0835 11.8034 40.0835 13V15.1667C40.0835 16.3633 41.0535 17.3333 42.2502 17.3333ZM42.2502 13H45.5002C46.6968 13 47.6668 12.0299 47.6668 10.8333V7.58332H49.8335V10.8333C49.8335 12.0299 50.8036 13 52.0002 13H55.2502V15.1667H52.0002C50.8036 15.1667 49.8335 16.1367 49.8335 17.3333V20.5833H47.6668V17.3333C47.6668 16.1367 46.6968 15.1667 45.5002 15.1667H42.2502V13Z" fill="#2E67B2"/>
</g>
<defs>
<clipPath id="clip0">
<rect width="65" height="65" fill="white"/>
</clipPath>
</defs>
</svg>
