<svg width="65" height="65" viewBox="0 0 65 65" fill="none" xmlns="http://www.w3.org/2000/svg">
<g clip-path="url(#clip0)">
<path d="M59.5833 9.75H45.0722C43.5976 4.01172 38.4248 0 32.5 0C26.5752 0 21.4024 4.01172 19.9278 9.75H5.41671C2.42658 9.75356 0.00355469 12.1766 0 15.1667V50.9167C0.00355469 53.9068 2.42658 56.3299 5.41671 56.3334H22.75V58.5H15.1667C14.8794 58.4999 14.6038 58.614 14.4005 58.8173C14.1974 59.0204 14.0833 59.296 14.0833 59.5834V63.9167C14.0832 64.204 14.1973 64.4796 14.4005 64.6829C14.6037 64.886 14.8793 65.0001 15.1667 65.0001H49.8334C50.1207 65.0003 50.3963 64.8861 50.5996 64.6829C50.8027 64.4798 50.9168 64.2041 50.9168 63.9167V59.5834C50.917 59.2961 50.8028 59.0205 50.5996 58.8173C50.3965 58.6141 50.1208 58.5 49.8334 58.5H42.25V56.3333H59.5833C62.5734 56.3297 64.9964 53.9067 65 50.9166V15.1666C64.9964 12.1766 62.5734 9.75356 59.5833 9.75ZM32.5 2.16671C38.483 2.16671 43.3333 7.01695 43.3333 13C43.3333 18.983 38.483 23.8333 32.5 23.8333C26.517 23.8333 21.6667 18.983 21.6667 13C21.6736 7.01975 26.5197 2.17356 32.5 2.16671ZM49.3096 31.6933L44.5806 29.541C44.1017 29.3258 43.5485 29.3554 43.0953 29.6203C42.6441 29.8835 42.3475 30.3481 42.2986 30.8681L41.8003 36.0188L35.7623 25.5691C38.6472 24.816 41.186 23.0952 42.9542 20.6946L49.3096 31.6933ZM29.2377 25.569L23.1995 36.0186L22.7023 30.876C22.6549 30.3531 22.3578 29.8854 21.9046 29.6203C21.4501 29.3555 20.8957 29.3264 20.4161 29.5425L15.6903 31.6933L22.0457 20.6946C23.8141 23.0952 26.3529 24.8159 29.2377 25.569ZM48.75 60.6667V62.8334H16.25V60.6667H48.75ZM24.9167 58.5V56.3333H40.0834V58.5H24.9167ZM62.8333 50.9167C62.8314 52.7108 61.3774 54.1648 59.5833 54.1667H5.41671C3.62261 54.1648 2.16861 52.7108 2.16671 50.9167V47.6667H62.8334V50.9167H62.8333ZM62.8333 45.5H2.16671V15.1667C2.16861 13.3726 3.62261 11.9186 5.41671 11.9167H19.555C19.5253 12.2748 19.5001 12.6344 19.5001 13C19.5023 14.9279 19.9366 16.8307 20.7709 18.5687L12.9694 32.0705C12.6199 32.6832 12.7043 33.4511 13.1786 33.9732C13.6529 34.4952 14.4093 34.6529 15.0526 34.3635L20.6185 31.8308L21.2068 37.9177C21.2761 38.6202 21.7914 39.1974 22.4815 39.3457C23.1716 39.494 23.8785 39.1794 24.2303 38.5673L31.5208 25.9505C31.8453 25.9749 32.1695 26.0001 32.5001 26.0001C32.8307 26.0001 33.1549 25.9749 33.4794 25.9505L40.768 38.5632C41.1187 39.1776 41.8272 39.4941 42.519 39.3454C43.2108 39.1968 43.7265 38.617 43.7938 37.9125L44.382 31.831L49.9489 34.3642C50.5931 34.6531 51.35 34.4944 51.8238 33.971C52.2976 33.4476 52.3804 32.6786 52.0288 32.0663L44.2292 18.5687C45.0637 16.8307 45.4978 14.9279 45.5 13C45.5 12.6344 45.4749 12.2748 45.4452 11.9167H59.5834C61.3775 11.9186 62.8315 13.3726 62.8334 15.1667V45.5H62.8333Z" fill="#2E67B2"/>
<path d="M26.747 19.0128C26.6744 19.4167 26.8364 19.8269 27.1652 20.0724C27.494 20.318 27.9334 20.3566 28.3 20.1722L32.5001 18.0617L36.7002 20.1723C37.0669 20.3567 37.5063 20.3181 37.8351 20.0726C38.1639 19.827 38.3259 19.4167 38.2533 19.0129L37.462 14.6061L40.822 11.4757C41.1276 11.1907 41.242 10.7553 41.1162 10.3568C40.9904 9.95833 40.6466 9.66773 40.2328 9.60997L35.5483 8.95934L33.4628 4.91943C33.2577 4.58428 32.893 4.37988 32.5001 4.37988C32.1072 4.37988 31.7425 4.58428 31.5374 4.91943L29.4522 8.95921L24.7677 9.60984C24.3538 9.66774 24.0101 9.95833 23.8843 10.3567C23.7585 10.7552 23.8729 11.1904 24.1785 11.4755L27.5385 14.606L26.747 19.0128ZM27.3215 11.4427L30.3059 11.0284C30.6544 10.9795 30.9576 10.7649 31.1195 10.4523L32.5001 7.77804L33.8807 10.4526C34.0426 10.765 34.3458 10.9798 34.6944 11.0285L37.6788 11.4428L35.5533 13.4238C35.284 13.6748 35.1604 14.0453 35.2254 14.4077L35.7386 17.2641L32.9869 15.8813C32.6807 15.7276 32.3197 15.7276 32.0135 15.8813L29.2618 17.2641L29.775 14.4077C29.84 14.0453 29.7164 13.6748 29.447 13.4238L27.3215 11.4427Z" fill="#2E67B2"/>
<path d="M35.75 37.9167H29.25C27.4551 37.9167 26 39.3719 26 41.1667C26 42.9616 27.4551 44.4167 29.25 44.4167H35.75C37.5449 44.4167 39 42.9616 39 41.1667C39 39.3717 37.5449 37.9167 35.75 37.9167ZM35.75 42.25H29.25C28.6517 42.25 28.1667 41.765 28.1667 41.1667C28.1667 40.5684 28.6517 40.0834 29.25 40.0834H35.75C36.3483 40.0834 36.8333 40.5684 36.8333 41.1667C36.8333 41.765 36.3483 42.25 35.75 42.25Z" fill="#2E67B2"/>
</g>
<defs>
<clipPath id="clip0">
<rect width="65" height="65" fill="white"/>
</clipPath>
</defs>
</svg>
