<svg width="65" height="65" viewBox="0 0 65 65" fill="none" xmlns="http://www.w3.org/2000/svg">
<path d="M61.6379 0H3.36207C1.50538 0 0 1.50538 0 3.36207V61.6379C0 63.4946 1.50538 65 3.36207 65H61.6379C63.4946 65 65 63.4946 65 61.6379V3.36207C65 1.50538 63.4946 0 61.6379 0ZM62.7586 3.36207V31.3793H52.3589C51.9342 31.3793 51.5462 31.619 51.3564 31.9988C51.1665 32.3785 51.2075 32.8327 51.462 33.1725C52.2664 34.2784 52.691 35.6153 52.6724 36.9828C52.6724 40.0723 50.662 42.5862 48.1897 42.5862C45.7174 42.5862 43.7069 40.0723 43.7069 36.9828C43.6877 35.6153 44.1113 34.279 44.9151 33.1725C45.1696 32.8327 45.2106 32.3785 45.0208 31.9988C44.8309 31.619 44.4429 31.3793 44.0183 31.3793H33.6207V22.8877C34.6894 23.3178 35.8309 23.5372 36.9828 23.5345C41.3085 23.5345 44.8276 20.5188 44.8276 16.8103C44.8276 13.1019 41.3085 10.0862 36.9828 10.0862C35.8309 10.0835 34.6894 10.3029 33.6207 10.733V2.24138H61.6379C62.2568 2.24138 62.7586 2.74317 62.7586 3.36207ZM2.24138 3.36207C2.24138 2.74317 2.74317 2.24138 3.36207 2.24138H31.3793V12.6411C31.3793 13.0658 31.619 13.4537 31.9988 13.6436C32.3785 13.8335 32.8327 13.7925 33.1725 13.538C34.279 12.7342 35.6153 12.3101 36.9828 12.3276C40.0723 12.3276 42.5862 14.338 42.5862 16.8103C42.5862 19.2826 40.0723 21.2931 36.9828 21.2931C35.6158 21.3117 34.279 20.8876 33.1725 20.0849C32.8327 19.8304 32.3785 19.7894 31.9988 19.9792C31.619 20.1691 31.3793 20.5571 31.3793 20.9817V31.3793H22.8877C23.3178 30.3106 23.5372 29.1691 23.5345 28.0172C23.5345 23.6926 20.5188 20.1724 16.8103 20.1724C13.1019 20.1724 10.0862 23.6926 10.0862 28.0172C10.0835 29.1691 10.3029 30.3106 10.733 31.3793H2.24138V3.36207ZM2.24138 61.6379V33.6207H12.6411C13.0658 33.6207 13.4537 33.381 13.6436 33.0012C13.8335 32.6215 13.7925 32.1673 13.538 31.8275C12.7336 30.7216 12.309 29.3847 12.3276 28.0172C12.3276 24.9277 14.338 22.4138 16.8103 22.4138C19.2826 22.4138 21.2931 24.9277 21.2931 28.0172C21.3123 29.3847 20.8887 30.721 20.0849 31.8275C19.8304 32.1673 19.7894 32.6215 19.9792 33.0012C20.1691 33.381 20.5571 33.6207 20.9817 33.6207H31.3793V42.1123C30.3106 41.6822 29.1691 41.4628 28.0172 41.4655C23.6915 41.4655 20.1724 44.4812 20.1724 48.1897C20.1724 51.8981 23.6915 54.9138 28.0172 54.9138C29.1691 54.9165 30.3106 54.6971 31.3793 54.267V62.7586H3.36207C2.74317 62.7586 2.24138 62.2568 2.24138 61.6379ZM62.7586 61.6379C62.7586 62.2568 62.2568 62.7586 61.6379 62.7586H33.6207V52.3589C33.6207 51.9342 33.381 51.5462 33.0012 51.3564C32.6215 51.1665 32.1673 51.2075 31.8275 51.462C30.721 52.2658 29.3847 52.6899 28.0172 52.6724C24.9277 52.6724 22.4138 50.662 22.4138 48.1897C22.4138 45.7174 24.9277 43.7069 28.0172 43.7069C29.3842 43.6883 30.721 44.1124 31.8275 44.9151C32.1673 45.1696 32.6215 45.2106 33.0012 45.0208C33.381 44.8309 33.6207 44.4429 33.6207 44.0183V33.6207H42.1123C41.6822 34.6894 41.4628 35.8309 41.4655 36.9828C41.4655 41.3074 44.4812 44.8276 48.1897 44.8276C51.8981 44.8276 54.9138 41.3074 54.9138 36.9828C54.9165 35.8309 54.6971 34.6894 54.267 33.6207H62.7586V61.6379Z" fill="#2E67B2"/>
</svg>
