<svg width="65" height="65" viewBox="0 0 65 65" fill="none" xmlns="http://www.w3.org/2000/svg">
<g clip-path="url(#clip0)">
<path d="M23.6341 48.6471C23.7767 49.228 24.363 49.5834 24.9439 49.4412C26.1048 49.1558 27.2775 49.8645 27.5645 51.025C27.707 51.6059 28.2933 51.9613 28.8742 51.8191L56.2306 45.1122C56.5099 45.044 56.7508 44.8675 56.8999 44.6216C57.0491 44.3757 57.0943 44.0806 57.0257 43.8013C56.743 42.6422 57.4506 41.4727 58.6085 41.1851C58.8876 41.1169 59.1282 40.9406 59.2774 40.6949C59.4265 40.4493 59.4719 40.1545 59.4036 39.8753L57.3399 31.4578C57.2715 31.1787 57.0949 30.9381 56.849 30.7892C56.6032 30.6403 56.3082 30.5951 56.0291 30.6638C54.8672 30.9482 53.6946 30.2373 53.4096 29.0756C53.3411 28.7964 53.1645 28.5559 52.9187 28.4069C52.6728 28.258 52.3779 28.2129 52.0987 28.2815L24.7467 34.9917C24.1659 35.1342 23.8104 35.7205 23.9526 36.3014C24.0896 36.8596 23.9992 37.4492 23.7013 37.9407C23.4035 38.4321 22.9226 38.7851 22.3645 38.922C22.0853 38.9905 21.8448 39.167 21.6958 39.4129C21.5469 39.6587 21.5018 39.9537 21.5704 40.2329L23.6341 48.6471ZM43.0572 45.981L42.7831 44.863C44.0868 43.9882 44.5787 42.3066 43.9521 40.8671C43.3254 39.4276 41.7594 38.6419 40.2308 39C39.8052 39.1044 39.3586 38.9422 39.0993 38.5889C38.84 38.2357 38.8191 37.761 39.0463 37.3862C39.2735 37.0115 39.704 36.8106 40.1372 36.8771C40.5703 36.9437 40.9207 37.2646 41.0249 37.6903C41.0933 37.9694 41.2699 38.21 41.5158 38.3589C41.7616 38.5079 42.0566 38.553 42.3357 38.4843C44.0691 38.0575 42.8232 34.9852 40.298 34.7273L40.0261 33.6093C42.768 33.6093 45.0603 35.9526 45.7493 38.7628C46.4968 41.8167 45.3116 44.8056 43.0572 45.981ZM35.7144 36.4282C36.1879 35.4478 36.9586 34.6418 37.9168 34.125L38.1887 35.2376C36.8657 36.1034 36.3597 37.7971 36.991 39.2467C37.6224 40.6964 39.2071 41.4796 40.7421 41.1006C41.1677 40.9962 41.6143 41.1584 41.8736 41.5117C42.1329 41.865 42.1539 42.3396 41.9267 42.7144C41.6995 43.0891 41.2689 43.29 40.8358 43.2235C40.4027 43.1569 40.0523 42.836 39.9481 42.4103C39.8796 42.1312 39.703 41.8906 39.4572 41.7417C39.2113 41.5928 38.9164 41.5476 38.6372 41.6163C36.8909 42.0496 38.1562 45.1187 40.675 45.3754L40.948 46.488C36.5605 46.4945 33.5607 40.6878 35.7144 36.4282ZM55.4668 32.8933L57.081 39.4724C55.6949 40.2215 54.8222 41.6615 54.7995 43.2369L46.8911 45.175C49.3655 40.8119 48.0126 35.2765 43.8047 32.5466L51.699 30.6107C52.4481 31.9985 53.8899 32.8719 55.4668 32.8933ZM26.1843 36.868L34.0796 34.9321C31.6002 39.2992 32.9657 44.8426 37.1899 47.5584L29.2816 49.4986C28.5345 48.1078 27.0913 47.2321 25.5126 47.2117L23.8996 40.6326C25.2858 39.8836 26.1586 38.4435 26.1811 36.868H26.1843Z" fill="#2E67B2"/>
<path d="M3.65501 32.1447L13.0453 49.2256C13.616 50.2695 14.7114 50.9181 15.901 50.9167C16.9941 50.9167 17.5412 50.4747 19.3677 49.4639L20.7121 54.9445C21.0703 56.3976 22.3745 57.4183 23.8711 57.4167C24.4474 57.4167 22.0294 57.9584 62.5233 48.0339C63.3606 47.8288 64.0821 47.2995 64.5291 46.5624C64.9761 45.8253 65.1119 44.9409 64.9067 44.1036L60.2624 25.1659C59.8353 23.4228 58.0763 22.3559 56.3332 22.7825L51.1332 24.0576L43.5249 10.2267C42.659 8.65367 40.6832 8.07842 39.1082 8.94077L35.6643 10.8334H18.4165C17.8182 10.8334 17.3332 11.3184 17.3332 11.9167C17.3332 12.515 17.8182 13 18.4165 13H31.7242L27.783 15.1667H6.49984C5.90153 15.1667 5.41651 15.6517 5.41651 16.25C5.41651 16.8483 5.90153 17.3334 6.49984 17.3334H23.8418L15.9606 21.6667H7.58317C6.98487 21.6667 6.49984 22.1517 6.49984 22.75C6.49984 23.3483 6.98487 23.8334 7.58317 23.8334H12.0248L4.93334 27.7334C3.37278 28.607 2.80333 30.5721 3.65501 32.1447ZM13.6498 30.3615L20.7424 26.4615C20.2944 28.1115 20.332 29.8558 20.8508 31.4849L18.4555 32.0721C17.6182 32.2772 16.8967 32.8065 16.4498 33.5436C16.0028 34.2807 15.867 35.1652 16.0722 36.0024L17.1555 40.4441C16.6622 40.3862 16.1626 40.4144 15.6789 40.5275L12.4094 34.5898C13.559 33.5096 14.0337 31.8916 13.6498 30.3615ZM43.3527 25.9664L35.6751 27.8493C34.7952 24.885 32.5041 22.5489 29.5575 21.6114L36.6696 17.7006C37.7484 18.8502 39.3665 19.3231 40.8946 18.9356L44.163 24.8712C43.835 25.191 43.5597 25.5606 43.3473 25.9664H43.3527ZM22.9719 30.9628C22.1662 28.7922 22.6711 26.3521 24.2719 24.6794L24.8212 25.6783C24.2166 26.3477 23.9203 27.2398 24.004 28.1378C24.0878 29.0359 24.5441 29.8578 25.2621 30.4038L22.9719 30.9628ZM31.1652 28.9543C30.1549 28.2598 28.8402 28.1916 27.7635 28.7777C27.2409 29.0536 26.5935 28.8597 26.3086 28.3419C26.0237 27.8241 26.2064 27.1735 26.7192 26.8797C26.9711 26.741 27.2679 26.7082 27.544 26.7884C27.8202 26.8687 28.0531 27.0555 28.1914 27.3076C28.3742 27.6538 28.7295 27.8745 29.1209 27.8848C29.5123 27.8952 29.8788 27.6935 30.0795 27.3574C30.2803 27.0213 30.2841 26.603 30.0894 26.2633C29.4282 25.0581 28.075 24.4055 26.7203 24.6383L26.1786 23.6438C29.3203 22.8031 32.5063 25.1919 33.5745 28.3693L31.1652 28.9543ZM56.8478 24.8874C57.4287 24.7452 58.015 25.1007 58.1575 25.6815L62.8018 44.6204C62.944 45.2013 62.5885 45.7876 62.0077 45.9301L24.1289 55.2186C23.548 55.3608 22.9617 55.0054 22.8192 54.4245L18.1749 35.4846C18.1067 35.2055 18.1521 34.9107 18.3012 34.665C18.4503 34.4194 18.6909 34.2431 18.9701 34.1749L56.8478 24.8874ZM5.98201 29.6259L40.1482 10.8409C40.4005 10.7009 40.6983 10.6673 40.9755 10.7476C41.2527 10.8279 41.4864 11.0156 41.6248 11.2689L48.9513 24.5939L46.6341 25.1615C46.6341 24.7412 46.9038 25.3641 42.3322 17.0614C42.193 16.8093 41.9591 16.6229 41.6822 16.5436C40.8469 16.302 40.5317 17.2001 39.2187 16.8177C38.6631 16.6581 38.1948 16.2823 37.9187 15.7744C37.7813 15.5214 37.5488 15.3334 37.2725 15.2521C36.9963 15.1708 36.699 15.2028 36.4464 15.3411L11.7681 28.9153C11.2442 29.2013 11.0504 29.8573 11.3348 30.3821C11.9095 31.4304 11.5265 32.7462 10.4789 33.3223C10.2253 33.4597 10.0369 33.6926 9.95557 33.9693C9.87422 34.2461 9.90662 34.5439 10.0456 34.7967L14.2273 42.3898C14.5134 42.9149 15.1709 43.1089 15.6963 42.8231C16.3344 42.4815 17.1024 42.4877 17.7351 42.8394L18.8249 47.281L16.4123 48.6124C15.8856 48.9006 15.2251 48.7094 14.9336 48.1845L5.55409 31.1025C5.41401 30.8502 5.38041 30.5524 5.46075 30.2752C5.54108 29.998 5.72871 29.7643 5.98201 29.6259Z" fill="#2E67B2"/>
<path d="M7.58333 57.4167H18.4167C19.015 57.4167 19.5 56.9317 19.5 56.3334C19.5 55.7351 19.015 55.2501 18.4167 55.2501H7.58333C6.98502 55.2501 6.5 55.7351 6.5 56.3334C6.5 56.9317 6.98502 57.4167 7.58333 57.4167Z" fill="#2E67B2"/>
<path d="M1.08333 57.4167H3.25C3.84831 57.4167 4.33333 56.9317 4.33333 56.3334C4.33333 55.7351 3.84831 55.2501 3.25 55.2501H1.08333C0.485025 55.2501 0 55.7351 0 56.3334C0 56.9317 0.485025 57.4167 1.08333 57.4167Z" fill="#2E67B2"/>
<path d="M1.08333 23.8334H3.25C3.84831 23.8334 4.33333 23.3483 4.33333 22.75C4.33333 22.1517 3.84831 21.6667 3.25 21.6667H1.08333C0.485025 21.6667 0 22.1517 0 22.75C0 23.3483 0.485025 23.8334 1.08333 23.8334Z" fill="#2E67B2"/>
<path d="M3.24984 50.9167H9.74984C10.3481 50.9167 10.8332 50.4316 10.8332 49.8333C10.8332 49.235 10.3481 48.75 9.74984 48.75H3.24984C2.65153 48.75 2.1665 49.235 2.1665 49.8333C2.1665 50.4316 2.65153 50.9167 3.24984 50.9167Z" fill="#2E67B2"/>
<path d="M7.5835 43.3333C7.5835 42.735 7.09847 42.25 6.50016 42.25H2.16683C1.56852 42.25 1.0835 42.735 1.0835 43.3333C1.0835 43.9316 1.56852 44.4167 2.16683 44.4167H6.50016C7.09847 44.4167 7.5835 43.9316 7.5835 43.3333Z" fill="#2E67B2"/>
<path d="M1.08333 37.9167H3.25C3.84831 37.9167 4.33333 37.4317 4.33333 36.8334C4.33333 36.2351 3.84831 35.7501 3.25 35.7501H1.08333C0.485025 35.7501 0 36.2351 0 36.8334C0 37.4317 0.485025 37.9167 1.08333 37.9167Z" fill="#2E67B2"/>
</g>
<defs>
<clipPath id="clip0">
<rect width="65" height="65" fill="white"/>
</clipPath>
</defs>
</svg>
