<svg width="65" height="65" viewBox="0 0 65 65" fill="none" xmlns="http://www.w3.org/2000/svg">
<g clip-path="url(#clip0)">
<path d="M6.50033 11.9167H13.0003C13.5986 11.9167 14.0837 11.4316 14.0837 10.8333C14.0837 10.235 13.5986 9.75 13.0003 9.75H6.50033C5.90202 9.75 5.41699 10.235 5.41699 10.8333C5.41699 11.4316 5.90202 11.9167 6.50033 11.9167Z" fill="#2E67B2"/>
<path d="M18.4168 11.9167H28.1668C28.7651 11.9167 29.2502 11.4316 29.2502 10.8333C29.2502 10.235 28.7651 9.75 28.1668 9.75H18.4168C17.8185 9.75 17.3335 10.235 17.3335 10.8333C17.3335 11.4316 17.8185 11.9167 18.4168 11.9167Z" fill="#2E67B2"/>
<path d="M6.50033 23.8334H41.167C41.7653 23.8334 42.2503 23.3483 42.2503 22.75C42.2503 22.1517 41.7653 21.6667 41.167 21.6667H6.50033C5.90202 21.6667 5.41699 22.1517 5.41699 22.75C5.41699 23.3483 5.90202 23.8334 6.50033 23.8334Z" fill="#2E67B2"/>
<path d="M6.50033 28.1667H21.667C22.2653 28.1667 22.7503 27.6816 22.7503 27.0833C22.7503 26.485 22.2653 26 21.667 26H6.50033C5.90202 26 5.41699 26.485 5.41699 27.0833C5.41699 27.6816 5.90202 28.1667 6.50033 28.1667Z" fill="#2E67B2"/>
<path d="M6.50033 36.8333H21.667C22.2653 36.8333 22.7503 36.3483 22.7503 35.75C22.7503 35.1517 22.2653 34.6667 21.667 34.6667H6.50033C5.90202 34.6667 5.41699 35.1517 5.41699 35.75C5.41699 36.3483 5.90202 36.8333 6.50033 36.8333Z" fill="#2E67B2"/>
<path d="M6.50033 45.5H21.667C22.2653 45.5 22.7503 45.0149 22.7503 44.4166C22.7503 43.8183 22.2653 43.3333 21.667 43.3333H6.50033C5.90202 43.3333 5.41699 43.8183 5.41699 44.4166C5.41699 45.0149 5.90202 45.5 6.50033 45.5Z" fill="#2E67B2"/>
<path d="M6.50033 54.1667H21.667C22.2653 54.1667 22.7503 53.6816 22.7503 53.0833C22.7503 52.485 22.2653 52 21.667 52H6.50033C5.90202 52 5.41699 52.485 5.41699 53.0833C5.41699 53.6816 5.90202 54.1667 6.50033 54.1667Z" fill="#2E67B2"/>
<path d="M64.35 31.5575L52 26.2243V3.25C52 1.45507 50.5449 0 48.75 0H7.58333C5.78841 0 4.33333 1.45507 4.33333 3.25V4.33333H3.25C1.45507 4.33333 0 5.78841 0 7.58333V61.75C0 63.5449 1.45507 65 3.25 65H44.4167C45.2931 64.998 46.1314 64.6412 46.7404 64.0109L47.6288 64.6425C48.3003 65.1192 49.1997 65.1192 49.8713 64.6425L60.3525 57.1816C63.258 55.1194 64.9889 51.781 65 48.2181V32.552C65.0006 32.1207 64.7453 31.73 64.35 31.5575ZM6.5 3.25C6.5 2.65169 6.98502 2.16667 7.58333 2.16667H48.75C49.3483 2.16667 49.8333 2.65169 49.8333 3.25V25.2883L49.1833 25.0055C48.9095 24.8874 48.5991 24.8874 48.3253 25.0055L47.6753 25.2883V18.4167C47.6753 18.3928 47.6634 18.3701 47.6613 18.3463C47.6559 18.2555 47.6384 18.1659 47.6092 18.0798C47.6017 18.0548 47.6028 18.0288 47.593 18.005C47.5833 17.9812 47.5757 17.9812 47.5703 17.9682C47.5175 17.8503 47.4441 17.7428 47.3536 17.6508L34.3536 4.65075C34.2615 4.56019 34.154 4.48681 34.0362 4.43408C34.0221 4.42758 34.0123 4.41675 33.9993 4.41133C33.9863 4.40592 33.9495 4.40267 33.9257 4.39508C33.8384 4.36601 33.7477 4.34817 33.6559 4.342C33.6288 4.34525 33.6072 4.33333 33.5833 4.33333H6.5V3.25ZM34.6667 8.03183L43.9682 17.3333H35.75C35.1517 17.3333 34.6667 16.8483 34.6667 16.25V8.03183ZM44.4167 62.8333H3.25C2.65169 62.8333 2.16667 62.3483 2.16667 61.75V7.58333C2.16667 6.98503 2.65169 6.5 3.25 6.5H32.5V16.25C32.5 18.0449 33.9551 19.5 35.75 19.5H45.5V26.2243L42.0127 27.7333C42.1624 27.5494 42.246 27.3205 42.25 27.0833C42.25 26.485 41.765 26 41.1667 26H26C25.4017 26 24.9167 26.485 24.9167 27.0833C24.9167 27.6816 25.4017 28.1667 26 28.1667H41.0031L35.9873 30.3333H6.5C5.90169 30.3333 5.41667 30.8184 5.41667 31.4167C5.41667 32.015 5.90169 32.5 6.5 32.5H32.5076C32.5076 32.5173 32.5 32.5336 32.5 32.552V34.6667H26C25.4017 34.6667 24.9167 35.1517 24.9167 35.75C24.9167 36.3483 25.4017 36.8333 26 36.8333H32.5V39H6.5C5.90169 39 5.41667 39.485 5.41667 40.0833C5.41667 40.6816 5.90169 41.1667 6.5 41.1667H32.5V43.3333H26C25.4017 43.3333 24.9167 43.8184 24.9167 44.4167C24.9167 45.015 25.4017 45.5 26 45.5H32.5V47.6667H6.5C5.90169 47.6667 5.41667 48.1517 5.41667 48.75C5.41667 49.3483 5.90169 49.8333 6.5 49.8333H32.6354C32.7431 50.5725 32.9268 51.2986 33.1836 52H26C25.4017 52 24.9167 52.485 24.9167 53.0833C24.9167 53.6816 25.4017 54.1667 26 54.1667H34.2778C34.7897 54.9637 35.4017 55.6919 36.0988 56.3333H6.5C5.90169 56.3333 5.41667 56.8184 5.41667 57.4167C5.41667 58.015 5.90169 58.5 6.5 58.5H39L44.902 62.7012C44.7532 62.7836 44.5867 62.829 44.4167 62.8333ZM62.8333 48.2181C62.8228 51.0798 61.4313 53.7604 59.0969 55.4158L48.75 62.7813L38.4031 55.4147C36.069 53.7595 34.6776 51.0794 34.6667 48.2181V33.2681L36.6275 32.4209L36.6481 32.4123L48.75 27.1798L62.8333 33.2638V48.2181Z" fill="#2E67B2"/>
<path d="M48.3168 29.7256L37.4835 34.4056C37.0882 34.5781 36.8329 34.9687 36.8335 35.4001V48.2181C36.8433 50.3786 37.8955 52.4014 39.6588 53.6499L48.1218 59.6743C48.4979 59.9421 49.0024 59.9421 49.3785 59.6743L57.8415 53.6499C59.6045 52.4012 60.6566 50.3785 60.6668 48.2181V35.4001C60.6675 34.9687 60.4122 34.5781 60.0168 34.4056L49.1835 29.7256C48.9072 29.605 48.5931 29.605 48.3168 29.7256ZM58.5002 36.1172V48.2181C58.4923 49.6803 57.7785 51.0486 56.5838 51.8917L48.7502 57.4621L40.9166 51.8852C39.7233 51.0438 39.0096 49.6781 39.0002 48.2181V36.1118L48.7502 31.9009L58.5002 36.1172Z" fill="#2E67B2"/>
<path d="M42.8999 45.7167C42.5902 45.4845 42.1802 45.4351 41.8243 45.5871C41.4684 45.7391 41.2206 46.0695 41.1743 46.4538C41.128 46.838 41.2902 47.2178 41.5999 47.45L45.9332 50.7C46.4012 51.0513 47.0636 50.9673 47.4293 50.5104L56.0959 39.6771C56.4699 39.2098 56.3942 38.5279 55.9269 38.1539C55.4597 37.78 54.7777 37.8556 54.4038 38.3229L46.3936 48.3373L42.8999 45.7167Z" fill="#2E67B2"/>
</g>
<defs>
<clipPath id="clip0">
<rect width="65" height="65" fill="white"/>
</clipPath>
</defs>
</svg>
