<svg width="65" height="65" viewBox="0 0 65 65" fill="none" xmlns="http://www.w3.org/2000/svg">
<path d="M60.6428 28.2737C60.1443 12.5964 47.7158 0 32.5 0C17.2842 0 4.8557 12.5964 4.35716 28.2737C1.82647 28.7814 0.0040625 31.0022 0 33.5833V48.75C0.00355469 51.7401 2.42658 54.1632 5.41671 54.1667C5.42293 59.5489 9.78453 63.9105 15.1667 63.9167H25.218C25.6019 64.5847 26.3128 64.9976 27.0833 65H36.8333C38.0294 64.9989 38.9987 64.0294 39 62.8333V58.5C38.9989 57.3038 38.0294 56.3346 36.8333 56.3333H27.0833C26.3127 56.3357 25.6019 56.7486 25.218 57.4166H15.1667C13.3726 57.4147 11.9186 55.9607 11.9167 54.1666H15.1667C16.3629 54.1654 17.3321 53.196 17.3334 51.9999V30.3333C17.3323 29.1371 16.3629 28.1679 15.1667 28.1666H10.8856C11.4296 16.1266 20.9014 6.5 32.5 6.5C44.0986 6.5 53.5704 16.1266 54.1144 28.1667H49.8334C48.6373 28.1679 47.668 29.1373 47.6667 30.3334V52C47.6679 53.1962 48.6373 54.1654 49.8334 54.1667H59.5834C62.5734 54.1632 64.9964 51.7401 65 48.75V33.5833C64.9959 31.0022 63.1735 28.7814 60.6428 28.2737ZM27.0833 58.5H36.8333L36.8348 62.8333H27.0833V58.5ZM15.1667 59.5833H24.9167V61.75H15.1667C10.9806 61.7453 7.58812 58.3529 7.58342 54.1667H9.75C9.75356 57.1567 12.1766 59.5799 15.1667 59.5833ZM15.1667 30.3333L15.1682 52H5.41671C3.62261 51.9981 2.16861 50.5441 2.16671 48.75V33.5833C2.16861 31.7892 3.62261 30.3352 5.41671 30.3333H15.1667ZM32.5 4.33329C19.7058 4.33329 9.23787 14.9287 8.69299 28.1666H6.52641C7.07484 13.7337 18.5127 2.16658 32.5 2.16658C46.4873 2.16658 57.9252 13.7337 58.4736 28.1666H56.307C55.7621 14.9288 45.2942 4.33329 32.5 4.33329ZM62.8333 48.75C62.8314 50.5441 61.3774 51.9981 59.5833 52H49.8333V30.3333H59.5833C61.3774 30.3352 62.8314 31.7892 62.8333 33.5833V48.75Z" fill="#2E67B2"/>
<path d="M44.4169 42.25H42.2502V39.5417C42.2502 38.9434 41.7652 38.4584 41.1669 38.4584C40.5686 38.4584 40.0836 38.9434 40.0836 39.5417V42.25H35.4927L41.0083 33.0576C41.2075 32.7257 41.2145 32.3128 41.0267 31.9744C40.839 31.636 40.4849 31.4234 40.0978 31.4168C39.7109 31.4102 39.3497 31.6107 39.1505 31.9426L32.6505 42.7758C32.4497 43.1105 32.4444 43.5273 32.6367 43.867C32.8289 44.2067 33.189 44.4167 33.5793 44.4167H40.0835V47.6667C40.0835 48.265 40.5684 48.75 41.1668 48.75C41.7651 48.75 42.2501 48.265 42.2501 47.6667V44.4167H44.4168C45.0151 44.4167 45.5001 43.9317 45.5001 43.3334C45.5001 42.7351 45.0152 42.25 44.4169 42.25Z" fill="#2E67B2"/>
<path d="M20.0984 46.6982C19.6496 46.9233 19.4142 47.4273 19.5296 47.9159C19.645 48.4046 20.0812 48.7497 20.5833 48.75H30.3333C30.9316 48.75 31.4166 48.265 31.4166 47.6667C31.4166 47.0684 30.9316 46.5834 30.3333 46.5834H24.3052C26.9797 44.5744 30.3333 41.1879 30.3333 36.8334C30.3333 34.5806 28.939 32.5631 26.8317 31.7666C24.7244 30.9701 22.3442 31.5611 20.8541 33.2507C20.4583 33.6995 20.5012 34.3841 20.9498 34.78C21.3986 35.1758 22.0833 35.1329 22.4791 34.6842C23.373 33.6703 24.8012 33.3154 26.0657 33.7933C27.3301 34.2711 28.1667 35.4818 28.1666 36.8334C28.1667 42.5801 20.1787 46.6574 20.0984 46.6982Z" fill="#2E67B2"/>
</svg>
