<svg width="65" height="65" viewBox="0 0 65 65" fill="none" xmlns="http://www.w3.org/2000/svg">
<path d="M61.75 31.4167H60.6667V14.0833C60.6391 12.3014 59.1987 10.8649 57.4167 10.8422V8.66667C57.4125 7.29392 56.5448 6.07238 55.25 5.61633V3.25C55.248 1.45589 53.7941 0.00197027 52 0H13C11.2059 0.00197027 9.75197 1.45589 9.75 3.25V5.61633C8.45521 6.07238 7.58755 7.29392 7.58333 8.66667V10.8422C5.80135 10.8649 4.36093 12.3014 4.33333 14.0833V31.4167H3.25C1.45589 31.4186 0.00197027 32.8726 0 34.6667V59.5833C0.00352207 62.5734 2.42658 64.9965 5.41667 65H59.5833C62.5734 64.9965 64.9965 62.5734 65 59.5833V34.6667C64.998 32.8726 63.5441 31.4186 61.75 31.4167ZM61.75 33.5833C62.3481 33.5839 62.8328 34.0686 62.8333 34.6667V43.3333H60.6667V33.5833H61.75ZM11.9167 3.25C11.9172 2.65191 12.4019 2.1672 13 2.16667H52C52.5981 2.1672 53.0828 2.65191 53.0833 3.25V5.41667H11.9167V3.25ZM9.75 8.66667C9.75054 8.06858 10.2352 7.58387 10.8333 7.58333H54.1667C54.7648 7.58387 55.2495 8.06858 55.25 8.66667V10.8333H9.75V8.66667ZM6.5 14.0833C6.52639 13.4607 7.05104 12.9765 7.67379 13H57.3262C57.949 12.9765 58.4736 13.4607 58.5 14.0833V43.3333H46.0798C45.3552 43.3325 44.6783 43.6947 44.277 44.2981L40.5869 49.8333H24.4127L20.7225 44.2981C20.3214 43.6949 19.6447 43.3326 18.9202 43.3333H6.5V14.0833ZM3.25 33.5833H4.33333V43.3333H2.16667V34.6667C2.1672 34.0686 2.65191 33.5839 3.25 33.5833ZM62.8333 59.5833C62.8314 61.3774 61.3774 62.8314 59.5833 62.8333H5.41667C3.62256 62.8314 2.16864 61.3774 2.16667 59.5833V45.5H18.9202L22.6104 51.0352C23.0116 51.6386 23.6885 52.0009 24.4131 52H40.5873C41.3119 52.0009 41.9888 51.6386 42.3901 51.0352L46.0798 45.5H62.8333V59.5833Z" fill="#2E67B2"/>
<path d="M11.9163 21.6667H25.9997C26.598 21.6667 27.083 21.1816 27.083 20.5833C27.083 19.985 26.598 19.5 25.9997 19.5H11.9163C11.318 19.5 10.833 19.985 10.833 20.5833C10.833 21.1816 11.318 21.6667 11.9163 21.6667Z" fill="#2E67B2"/>
<path d="M11.9163 27.0833H37.9163C38.5146 27.0833 38.9997 26.5983 38.9997 26C38.9997 25.4017 38.5146 24.9167 37.9163 24.9167H11.9163C11.318 24.9167 10.833 25.4017 10.833 26C10.833 26.5983 11.318 27.0833 11.9163 27.0833Z" fill="#2E67B2"/>
<path d="M11.9163 32.5H25.9997C26.598 32.5 27.083 32.015 27.083 31.4167C27.083 30.8184 26.598 30.3333 25.9997 30.3333H11.9163C11.318 30.3333 10.833 30.8184 10.833 31.4167C10.833 32.015 11.318 32.5 11.9163 32.5Z" fill="#2E67B2"/>
</svg>
