<svg width="65" height="65" viewBox="0 0 65 65" fill="none" xmlns="http://www.w3.org/2000/svg">
<path d="M61.75 6.50004H61.6453C61.1552 4.00148 58.9947 2.16675 56.3334 2.16675C53.6721 2.16675 51.5116 4.00148 51.0216 6.50004H49.7287C49.2386 4.00148 47.0782 2.16675 44.4168 2.16675C41.7555 2.16675 39.595 4.00148 39.105 6.50004H37.8121C37.3221 4.00148 35.1616 2.16675 32.5003 2.16675C29.8389 2.16675 27.6784 4.00148 27.1884 6.50004H25.8955C25.4055 4.00148 23.245 2.16675 20.5837 2.16675C17.9224 2.16675 15.7619 4.00148 15.2718 6.50004H13.9789C13.4889 4.00148 11.3284 2.16675 8.66709 2.16675C6.00577 2.16675 3.84528 4.00148 3.35524 6.50004H3.25C1.40829 6.50004 0 7.90833 0 9.75004V18.4167V59.5835C0 61.4252 1.40829 62.8335 3.25 62.8335H61.75C63.5917 62.8335 65 61.4252 65 59.5835V18.4167V9.75004C65 7.90833 63.5917 6.50004 61.75 6.50004ZM56.3333 4.33333C57.7921 4.33333 58.9781 5.21731 59.4086 6.50004H53.258C53.6885 5.21743 54.8746 4.33333 56.3333 4.33333ZM44.4167 4.33333C45.8755 4.33333 47.0615 5.21731 47.492 6.50004H41.3414C41.7718 5.21743 42.9579 4.33333 44.4167 4.33333ZM32.5 4.33333C33.9588 4.33333 35.1448 5.21731 35.5753 6.50004H29.4247C29.8552 5.21743 31.0412 4.33333 32.5 4.33333ZM20.5833 4.33333C22.0421 4.33333 23.2281 5.21731 23.6586 6.50004H17.508C17.9385 5.21743 19.1246 4.33333 20.5833 4.33333ZM8.66671 4.33333C10.1255 4.33333 11.3115 5.21731 11.742 6.50004H5.5914C6.02177 5.21743 7.20789 4.33333 8.66671 4.33333ZM2.16671 9.75004C2.16671 9.10004 2.6 8.66675 3.25 8.66675H11.742C11.3115 9.94936 10.1254 10.8333 8.66671 10.8333C8.01671 10.8333 7.58342 11.2666 7.58342 11.9166C7.58342 12.5666 8.01671 12.9999 8.66671 12.9999C11.328 12.9999 13.4885 11.1652 13.9786 8.66662H23.6587C23.2282 9.94923 22.0421 10.8333 20.5834 10.8333C19.9334 10.8333 19.5001 11.2666 19.5001 11.9166C19.5001 12.5666 19.9334 12.9999 20.5834 12.9999C23.2447 12.9999 25.4052 11.1652 25.8953 8.66662H35.5754C35.1448 9.94936 33.9588 10.8333 32.5 10.8333C31.85 10.8333 31.4167 11.2666 31.4167 11.9166C31.4167 12.5666 31.85 13 32.5 13C35.1613 13 37.3218 11.1653 37.8118 8.66675H47.492C47.0615 9.94936 45.8754 10.8335 44.4167 10.8335C43.7667 10.8335 43.3334 11.2667 43.3334 11.9167C43.3334 12.5667 43.7667 13 44.4167 13C47.078 13 49.2385 11.1653 49.7286 8.66675H59.4087C58.9782 9.94936 57.7921 10.8335 56.3334 10.8335C55.6834 10.8335 55.2501 11.2667 55.2501 11.9167C55.2501 12.5667 55.6834 13 56.3334 13C58.9947 13 61.1552 11.1653 61.6453 8.66675H61.75C62.4 8.66675 62.8333 9.10004 62.8333 9.75004V17.3333H2.16671V9.75004ZM62.8333 59.5833C62.8333 60.2333 62.4 60.6666 61.75 60.6666H3.25C2.6 60.6666 2.16671 60.2333 2.16671 59.5833V19.5H62.8334V59.5833H62.8333Z" fill="#2E67B2"/>
<path d="M9.7498 32.5H16.2498C16.8998 32.5 17.3331 32.0667 17.3331 31.4167V24.9167C17.3331 24.2667 16.8998 23.8334 16.2498 23.8334H9.7498C9.0998 23.8334 8.6665 24.2667 8.6665 24.9167V31.4167C8.6665 32.0667 9.0998 32.5 9.7498 32.5ZM10.8331 26H15.1664V30.3333H10.8331V26Z" fill="#2E67B2"/>
<path d="M22.7498 32.5H29.2498C29.8998 32.5 30.3331 32.0667 30.3331 31.4167V24.9167C30.3331 24.2667 29.8998 23.8334 29.2498 23.8334H22.7498C22.0998 23.8334 21.6665 24.2667 21.6665 24.9167V31.4167C21.6665 32.0667 22.0998 32.5 22.7498 32.5ZM23.8331 26H28.1664V30.3333H23.8331V26Z" fill="#2E67B2"/>
<path d="M35.7503 32.5H42.2503C42.9003 32.5 43.3336 32.0667 43.3336 31.4167V24.9167C43.3336 24.2667 42.9003 23.8334 42.2503 23.8334H35.7503C35.1003 23.8334 34.667 24.2667 34.667 24.9167V31.4167C34.667 32.0667 35.1003 32.5 35.7503 32.5ZM36.8336 26H41.1669V30.3333H36.8336V26Z" fill="#2E67B2"/>
<path d="M48.7503 32.5H55.2503C55.9003 32.5 56.3336 32.0667 56.3336 31.4167V24.9167C56.3336 24.2667 55.9003 23.8334 55.2503 23.8334H48.7503C48.1003 23.8334 47.667 24.2667 47.667 24.9167V31.4167C47.667 32.0667 48.1003 32.5 48.7503 32.5ZM49.8336 26H54.1669V30.3333H49.8336V26Z" fill="#2E67B2"/>
<path d="M9.7498 44.4168H16.2498C16.8998 44.4168 17.3331 43.9835 17.3331 43.3335V36.8335C17.3331 36.1835 16.8998 35.7502 16.2498 35.7502H9.7498C9.0998 35.7502 8.6665 36.1835 8.6665 36.8335V43.3335C8.6665 43.9833 9.0998 44.4168 9.7498 44.4168ZM10.8331 37.9168H15.1664V42.2501H10.8331V37.9168Z" fill="#2E67B2"/>
<path d="M22.7498 44.4168H29.2498C29.8998 44.4168 30.3331 43.9835 30.3331 43.3335V36.8335C30.3331 36.1835 29.8998 35.7502 29.2498 35.7502H22.7498C22.0998 35.7502 21.6665 36.1835 21.6665 36.8335V43.3335C21.6665 43.9833 22.0998 44.4168 22.7498 44.4168ZM23.8331 37.9168H28.1664V42.2501H23.8331V37.9168Z" fill="#2E67B2"/>
<path d="M9.7498 56.3333H16.2498C16.8998 56.3333 17.3331 55.9 17.3331 55.25V48.75C17.3331 48.1 16.8998 47.6667 16.2498 47.6667H9.7498C9.0998 47.6667 8.6665 48.1 8.6665 48.75V55.25C8.6665 55.9 9.0998 56.3333 9.7498 56.3333ZM10.8331 49.8333H15.1664V54.1666H10.8331V49.8333Z" fill="#2E67B2"/>
<path d="M22.7498 56.3333H29.2498C29.8998 56.3333 30.3331 55.9 30.3331 55.25V48.75C30.3331 48.1 29.8998 47.6667 29.2498 47.6667H22.7498C22.0998 47.6667 21.6665 48.1 21.6665 48.75V55.25C21.6665 55.9 22.0998 56.3333 22.7498 56.3333ZM23.8331 49.8333H28.1664V54.1666H23.8331V49.8333Z" fill="#2E67B2"/>
<path d="M45.4997 58.5C52.108 58.5 57.4164 53.1918 57.4164 46.5833C57.4164 39.975 52.1081 34.6666 45.4997 34.6666C38.8913 34.6666 33.583 39.9749 33.583 46.5833C33.583 53.1918 38.8914 58.5 45.4997 58.5ZM45.4997 36.8333C50.9164 36.8333 55.2497 41.1666 55.2497 46.5833C55.2497 52 50.9164 56.3333 45.4997 56.3333C40.083 56.3333 35.7497 52 35.7497 46.5833C35.7497 41.1668 40.083 36.8333 45.4997 36.8333Z" fill="#2E67B2"/>
<path d="M43.6584 52.7583C43.8751 52.975 44.0917 53.0833 44.4167 53.0833C44.85 53.0833 45.175 52.8666 45.2834 52.5416L51.7834 42.7916C52.1084 42.2499 52.0001 41.5999 51.4584 41.2749C50.9167 40.9499 50.2667 41.0582 49.9417 41.5999L44.2 50.2666L40.8417 46.9083C40.4084 46.4751 39.7584 46.4751 39.325 46.9083C38.8917 47.3416 38.8917 47.9916 39.325 48.425L43.6584 52.7583Z" fill="#2E67B2"/>
</svg>
