<svg width="60" height="60" viewBox="0 0 60 60" fill="none" xmlns="http://www.w3.org/2000/svg">
<g clip-path="url(#clip0)">
<path d="M44 31V27H46C47.6567 27 49 25.6567 49 24V23H60V21H49V19H47V18H55V11.7832L49.644 0H0V60H60V50H47.124L47.478 47H50C53.3135 47 56 44.3135 56 41C56 37.6865 53.3135 35 50 35H48.8911L49.127 33H32.875L34.875 50H29V18H35V19H33V24C33 25.6567 34.3433 27 36 27H38V31H44ZM42 29H40V27H42V29ZM2 2H14V6H2V2ZM14 58H2V8H14V58ZM50 37C52.209 37 54 38.791 54 41C54 43.209 52.209 45 50 45H47.7139L48.6558 37H50ZM35.125 35H46.8701L45.1108 50H36.8901L35.125 35ZM58 52V58H16V52H58ZM27 16V50H16V2H48.356L53 12.2168V16H27ZM37 18H45V19H37V18ZM36 25C35.4478 25 35 24.5522 35 24V21H47V24C47 24.5522 46.5522 25 46 25H36Z" fill="#2E67B2"/>
<path d="M29.9992 3.99966C27.3678 4.00015 25.1877 6.0397 25.0114 8.66519C24.8351 11.2902 26.7238 13.6027 29.3312 13.9547C31.9386 14.3068 34.3727 12.5778 34.8991 9.99966H37.9992V7.99966H34.8991C34.4206 5.673 32.3742 4.00259 29.9992 3.99966ZM29.9992 11.9997C28.4718 12.006 27.1838 10.8639 27.007 9.34683C26.8302 7.83023 27.821 6.42252 29.3088 6.0773C30.7965 5.73209 32.3063 6.55972 32.8151 7.99966H29.9992V9.99966H32.8151C32.3927 11.194 31.2658 11.9943 29.9992 11.9997Z" fill="#2E67B2"/>
<path d="M43 5.99979C41.3433 5.99979 40 7.34305 40 8.99979C40 10.6565 41.3433 11.9998 43 11.9998C44.6567 11.9998 46 10.6565 46 8.99979C46 7.34305 44.6567 5.99979 43 5.99979ZM43 9.99979C42.4478 9.99979 42 9.55203 42 8.99979C42 8.44754 42.4478 7.99979 43 7.99979C43.5522 7.99979 44 8.44754 44 8.99979C44 9.55203 43.5522 9.99979 43 9.99979Z" fill="#2E67B2"/>
<path d="M17.998 7.99991H19.998V25.9999H17.998V7.99991Z" fill="#2E67B2"/>
<path d="M17.998 3.99966H19.998V5.99966H17.998V3.99966Z" fill="#2E67B2"/>
<path d="M54.0039 54.0002H56.0039V56.0003H54.0039V54.0002Z" fill="#2E67B2"/>
<path d="M18.9941 54.0002H51.9941V56.0003H18.9941V54.0002Z" fill="#2E67B2"/>
</g>
<defs>
<clipPath id="clip0">
<rect width="60" height="60" fill="white"/>
</clipPath>
</defs>
</svg>
