<svg width="65" height="65" viewBox="0 0 65 65" fill="none" xmlns="http://www.w3.org/2000/svg">
<path d="M60.4703 30.4484L40.625 18.718V16.1484C40.6263 13.8036 40.1195 11.4862 39.1394 9.356C38.1593 7.22577 36.7292 5.3332 34.9477 3.80859L33.8203 2.84375C33.4545 2.52451 32.9855 2.3486 32.5 2.3486C32.0145 2.3486 31.5455 2.52451 31.1797 2.84375L30.0523 3.80859C28.2708 5.3332 26.8407 7.22577 25.8606 9.356C24.8806 11.4862 24.3737 13.8036 24.375 16.1484V18.718L4.52969 30.4484C3.76975 30.8966 3.13969 31.5351 2.70159 32.3009C2.26348 33.0666 2.03245 33.9334 2.03125 34.8156V37.5781C2.03084 37.7384 2.06835 37.8965 2.14072 38.0394C2.21309 38.1824 2.31827 38.3062 2.44766 38.4008C2.62303 38.5247 2.83213 38.5921 3.04688 38.5937C3.15037 38.5917 3.25302 38.5746 3.35157 38.543L24.375 31.8602V36.5625H15.2344C14.427 36.5649 13.6535 36.8867 13.0826 37.4576C12.5117 38.0284 12.1899 38.802 12.1875 39.6094V50.7812C12.1875 51.0506 12.2945 51.3089 12.485 51.4994C12.6754 51.6899 12.9338 51.7969 13.2031 51.7969H14.2188V61.9531C14.2188 62.2225 14.3258 62.4808 14.5162 62.6713C14.7067 62.8617 14.965 62.9687 15.2344 62.9687H49.7656C50.035 62.9687 50.2933 62.8617 50.4838 62.6713C50.6743 62.4808 50.7813 62.2225 50.7813 61.9531V51.7969H51.7969C52.0662 51.7969 52.3246 51.6899 52.515 51.4994C52.7055 51.3089 52.8125 51.0506 52.8125 50.7812V39.6094C52.8101 38.802 52.4883 38.0284 51.9174 37.4576C51.3466 36.8867 50.573 36.5649 49.7656 36.5625H40.625V31.8602L61.6484 38.543C61.747 38.5746 61.8496 38.5917 61.9531 38.5937C62.1679 38.5921 62.377 38.5247 62.5523 38.4008C62.6817 38.3062 62.7869 38.1824 62.8593 38.0394C62.9317 37.8965 62.9692 37.7384 62.9688 37.5781V34.8156C62.9676 33.9334 62.7365 33.0666 62.2984 32.3009C61.8603 31.5351 61.2303 30.8966 60.4703 30.4484ZM26.4063 16.1484C26.4046 14.0969 26.8477 12.0694 27.7051 10.2056C28.5625 8.34175 29.8137 6.68598 31.3727 5.35234L32.5 4.3875L33.6273 5.35234C35.1863 6.68598 36.4375 8.34175 37.2949 10.2056C38.1523 12.0694 38.5954 14.0969 38.5938 16.1484V29.4531H26.4063V16.1484ZM26.4063 31.4844H38.5938V36.5625H37.5781V33.5156C37.5781 33.2463 37.4711 32.9879 37.2807 32.7975C37.0902 32.607 36.8319 32.5 36.5625 32.5H28.4375C28.1681 32.5 27.9098 32.607 27.7193 32.7975C27.5289 32.9879 27.4219 33.2463 27.4219 33.5156V36.5625H26.4063V31.4844ZM35.5469 34.5312V36.5625H29.4531V34.5312H35.5469ZM4.0625 36.1867V34.8156C4.06389 34.2871 4.20214 33.768 4.46378 33.3088C4.72542 32.8496 5.10153 32.466 5.55547 32.1953L24.375 21.0742V29.7273L4.0625 36.1867ZM48.75 60.9375H16.25V51.7969H21.3281V52.8125C21.3297 53.3507 21.5443 53.8664 21.9248 54.247C22.3054 54.6276 22.8212 54.8421 23.3594 54.8437H25.3906C25.9289 54.8421 26.4446 54.6276 26.8252 54.247C27.2057 53.8664 27.4203 53.3507 27.4219 52.8125V51.7969H37.5781V52.8125C37.5797 53.3507 37.7943 53.8664 38.1748 54.247C38.5554 54.6276 39.0712 54.8421 39.6094 54.8437H41.6406C42.1789 54.8421 42.6946 54.6276 43.0752 54.247C43.4557 53.8664 43.6703 53.3507 43.6719 52.8125V51.7969H48.75V60.9375ZM23.3594 52.8125V48.75H25.3906V52.8125H23.3594ZM39.6094 52.8125V48.75H41.6406V52.8125H39.6094ZM49.7656 38.5937C50.035 38.5937 50.2933 38.7007 50.4838 38.8912C50.6743 39.0817 50.7813 39.34 50.7813 39.6094V49.7656H43.6719V48.75C43.6703 48.2118 43.4557 47.696 43.0752 47.3155C42.6946 46.9349 42.1789 46.7204 41.6406 46.7187H39.6094C39.0712 46.7204 38.5554 46.9349 38.1748 47.3155C37.7943 47.696 37.5797 48.2118 37.5781 48.75V49.7656H27.4219V48.75C27.4203 48.2118 27.2057 47.696 26.8252 47.3155C26.4446 46.9349 25.9289 46.7204 25.3906 46.7187H23.3594C22.8212 46.7204 22.3054 46.9349 21.9248 47.3155C21.5443 47.696 21.3297 48.2118 21.3281 48.75V49.7656H14.2188V39.6094C14.2188 39.34 14.3258 39.0817 14.5162 38.8912C14.7067 38.7007 14.965 38.5937 15.2344 38.5937H49.7656ZM60.9375 36.1867L40.625 29.7273V21.0742L59.4445 32.1953C59.8985 32.466 60.2746 32.8496 60.5362 33.3088C60.7979 33.768 60.9361 34.2871 60.9375 34.8156V36.1867Z" fill="#2E67B2"/>
</svg>
