<svg width="65" height="65" viewBox="0 0 65 65" fill="none" xmlns="http://www.w3.org/2000/svg">
<path d="M27.4219 15.2344H29.4531V17.2656C29.4531 17.535 29.5601 17.7933 29.7506 17.9838C29.9411 18.1742 30.1994 18.2812 30.4688 18.2812H34.5312C34.8006 18.2812 35.0589 18.1742 35.2494 17.9838C35.4399 17.7933 35.5469 17.535 35.5469 17.2656V15.2344H37.5781C37.8475 15.2344 38.1058 15.1274 38.2963 14.9369C38.4867 14.7464 38.5938 14.4881 38.5938 14.2188V10.1562C38.5938 9.88689 38.4867 9.62856 38.2963 9.43809C38.1058 9.24763 37.8475 9.14062 37.5781 9.14062H35.5469V7.10938C35.5469 6.84001 35.4399 6.58169 35.2494 6.39122C35.0589 6.20075 34.8006 6.09375 34.5312 6.09375H30.4688C30.1994 6.09375 29.9411 6.20075 29.7506 6.39122C29.5601 6.58169 29.4531 6.84001 29.4531 7.10938V9.14062H27.4219C27.1525 9.14062 26.8942 9.24763 26.7037 9.43809C26.5133 9.62856 26.4062 9.88689 26.4062 10.1562V14.2188C26.4062 14.4881 26.5133 14.7464 26.7037 14.9369C26.8942 15.1274 27.1525 15.2344 27.4219 15.2344ZM28.4375 11.1719H30.4688C30.7381 11.1719 30.9964 11.0649 31.1869 10.8744C31.3774 10.6839 31.4844 10.4256 31.4844 10.1562V8.125H33.5156V10.1562C33.5156 10.4256 33.6226 10.6839 33.8131 10.8744C34.0036 11.0649 34.2619 11.1719 34.5312 11.1719H36.5625V13.2031H34.5312C34.2619 13.2031 34.0036 13.3101 33.8131 13.5006C33.6226 13.6911 33.5156 13.9494 33.5156 14.2188V16.25H31.4844V14.2188C31.4844 13.9494 31.3774 13.6911 31.1869 13.5006C30.9964 13.3101 30.7381 13.2031 30.4688 13.2031H28.4375V11.1719Z" fill="#2E67B2"/>
<path d="M61.9531 56.875H59.9219V28.4375H60.9375C61.2069 28.4375 61.4652 28.3305 61.6557 28.14C61.8461 27.9496 61.9531 27.6912 61.9531 27.4219V23.3594C61.9531 23.09 61.8461 22.8317 61.6557 22.6412C61.4652 22.4508 61.2069 22.3438 60.9375 22.3438H45.7031V20.3125H46.7188C46.9881 20.3125 47.2464 20.2055 47.4369 20.015C47.6274 19.8246 47.7344 19.5662 47.7344 19.2969V15.2344C47.7344 14.965 47.6274 14.7067 47.4369 14.5162C47.2464 14.3258 46.9881 14.2188 46.7188 14.2188H42.6562V3.04688C42.6562 2.77751 42.5492 2.51919 42.3588 2.32872C42.1683 2.13825 41.91 2.03125 41.6406 2.03125H23.3594C23.09 2.03125 22.8317 2.13825 22.6412 2.32872C22.4508 2.51919 22.3438 2.77751 22.3438 3.04688V14.2188H18.2812C18.0119 14.2188 17.7536 14.3258 17.5631 14.5162C17.3726 14.7067 17.2656 14.965 17.2656 15.2344V19.2969C17.2656 19.5662 17.3726 19.8246 17.5631 20.015C17.7536 20.2055 18.0119 20.3125 18.2812 20.3125H19.2969V22.3438H4.0625C3.79314 22.3438 3.53481 22.4508 3.34434 22.6412C3.15388 22.8317 3.04688 23.09 3.04688 23.3594V27.4219C3.04688 27.6912 3.15388 27.9496 3.34434 28.14C3.53481 28.3305 3.79314 28.4375 4.0625 28.4375H5.07812V56.875H3.04688C2.77751 56.875 2.51919 56.982 2.32872 57.1725C2.13825 57.3629 2.03125 57.6213 2.03125 57.8906V61.9531C2.03125 62.2225 2.13825 62.4808 2.32872 62.6713C2.51919 62.8617 2.77751 62.9688 3.04688 62.9688H61.9531C62.2225 62.9688 62.4808 62.8617 62.6713 62.6713C62.8617 62.4808 62.9688 62.2225 62.9688 61.9531V57.8906C62.9688 57.6213 62.8617 57.3629 62.6713 57.1725C62.4808 56.982 62.2225 56.875 61.9531 56.875ZM59.9219 24.375V26.4062H45.7031V24.375H59.9219ZM57.8906 28.4375V56.875H45.7031V28.4375H57.8906ZM42.6562 16.25H45.7031V18.2812H42.6562V16.25ZM24.375 4.0625H40.625V20.3125H24.375V4.0625ZM23.3594 22.3438H41.6406C41.91 22.3438 42.1683 22.2367 42.3588 22.0463C42.5492 21.8558 42.6562 21.5975 42.6562 21.3281V20.3125H43.6719V56.875H38.5938V48.75H39.6094C39.8787 48.75 40.1371 48.643 40.3275 48.4525C40.518 48.2621 40.625 48.0037 40.625 47.7344C40.625 47.465 40.518 47.2067 40.3275 47.0162C40.1371 46.8258 39.8787 46.7188 39.6094 46.7188H25.3906C25.1213 46.7188 24.8629 46.8258 24.6725 47.0162C24.482 47.2067 24.375 47.465 24.375 47.7344C24.375 48.0037 24.482 48.2621 24.6725 48.4525C24.8629 48.643 25.1213 48.75 25.3906 48.75H26.4062V56.875H21.3281V20.3125H22.3438V21.3281C22.3438 21.5975 22.4508 21.8558 22.6412 22.0463C22.8317 22.2367 23.09 22.3438 23.3594 22.3438ZM36.5625 48.75V56.875H33.5156V48.75H36.5625ZM31.4844 48.75V56.875H28.4375V48.75H31.4844ZM19.2969 16.25H22.3438V18.2812H19.2969V16.25ZM5.07812 24.375H19.2969V26.4062H5.07812V24.375ZM19.2969 28.4375V56.875H7.10938V28.4375H19.2969ZM60.9375 60.9375H4.0625V58.9062H60.9375V60.9375Z" fill="#2E67B2"/>
<path d="M26.4062 44.6875H30.4688C30.7381 44.6875 30.9964 44.5805 31.1869 44.39C31.3774 44.1996 31.4844 43.9412 31.4844 43.6719V39.6094C31.4844 39.34 31.3774 39.0817 31.1869 38.8912C30.9964 38.7008 30.7381 38.5938 30.4688 38.5938H26.4062C26.1369 38.5938 25.8786 38.7008 25.6881 38.8912C25.4976 39.0817 25.3906 39.34 25.3906 39.6094V43.6719C25.3906 43.9412 25.4976 44.1996 25.6881 44.39C25.8786 44.5805 26.1369 44.6875 26.4062 44.6875ZM27.4219 40.625H29.4531V42.6562H27.4219V40.625Z" fill="#2E67B2"/>
<path d="M34.5312 44.6875H38.5938C38.8631 44.6875 39.1214 44.5805 39.3119 44.39C39.5024 44.1996 39.6094 43.9412 39.6094 43.6719V39.6094C39.6094 39.34 39.5024 39.0817 39.3119 38.8912C39.1214 38.7008 38.8631 38.5938 38.5938 38.5938H34.5312C34.2619 38.5938 34.0036 38.7008 33.8131 38.8912C33.6226 39.0817 33.5156 39.34 33.5156 39.6094V43.6719C33.5156 43.9412 33.6226 44.1996 33.8131 44.39C34.0036 44.5805 34.2619 44.6875 34.5312 44.6875ZM35.5469 40.625H37.5781V42.6562H35.5469V40.625Z" fill="#2E67B2"/>
<path d="M26.4062 37.5781H30.4688C30.7381 37.5781 30.9964 37.4711 31.1869 37.2807C31.3774 37.0902 31.4844 36.8319 31.4844 36.5625V32.5C31.4844 32.2306 31.3774 31.9723 31.1869 31.7818C30.9964 31.5914 30.7381 31.4844 30.4688 31.4844H26.4062C26.1369 31.4844 25.8786 31.5914 25.6881 31.7818C25.4976 31.9723 25.3906 32.2306 25.3906 32.5V36.5625C25.3906 36.8319 25.4976 37.0902 25.6881 37.2807C25.8786 37.4711 26.1369 37.5781 26.4062 37.5781ZM27.4219 33.5156H29.4531V35.5469H27.4219V33.5156Z" fill="#2E67B2"/>
<path d="M34.5312 37.5781H38.5938C38.8631 37.5781 39.1214 37.4711 39.3119 37.2807C39.5024 37.0902 39.6094 36.8319 39.6094 36.5625V32.5C39.6094 32.2306 39.5024 31.9723 39.3119 31.7818C39.1214 31.5914 38.8631 31.4844 38.5938 31.4844H34.5312C34.2619 31.4844 34.0036 31.5914 33.8131 31.7818C33.6226 31.9723 33.5156 32.2306 33.5156 32.5V36.5625C33.5156 36.8319 33.6226 37.0902 33.8131 37.2807C34.0036 37.4711 34.2619 37.5781 34.5312 37.5781ZM35.5469 33.5156H37.5781V35.5469H35.5469V33.5156Z" fill="#2E67B2"/>
<path d="M26.4062 30.4688H30.4688C30.7381 30.4688 30.9964 30.3617 31.1869 30.1713C31.3774 29.9808 31.4844 29.7225 31.4844 29.4531V25.3906C31.4844 25.1213 31.3774 24.8629 31.1869 24.6725C30.9964 24.482 30.7381 24.375 30.4688 24.375H26.4062C26.1369 24.375 25.8786 24.482 25.6881 24.6725C25.4976 24.8629 25.3906 25.1213 25.3906 25.3906V29.4531C25.3906 29.7225 25.4976 29.9808 25.6881 30.1713C25.8786 30.3617 26.1369 30.4688 26.4062 30.4688ZM27.4219 26.4062H29.4531V28.4375H27.4219V26.4062Z" fill="#2E67B2"/>
<path d="M34.5312 30.4688H38.5938C38.8631 30.4688 39.1214 30.3617 39.3119 30.1713C39.5024 29.9808 39.6094 29.7225 39.6094 29.4531V25.3906C39.6094 25.1213 39.5024 24.8629 39.3119 24.6725C39.1214 24.482 38.8631 24.375 38.5938 24.375H34.5312C34.2619 24.375 34.0036 24.482 33.8131 24.6725C33.6226 24.8629 33.5156 25.1213 33.5156 25.3906V29.4531C33.5156 29.7225 33.6226 29.9808 33.8131 30.1713C34.0036 30.3617 34.2619 30.4688 34.5312 30.4688ZM35.5469 26.4062H37.5781V28.4375H35.5469V26.4062Z" fill="#2E67B2"/>
<path d="M49.7656 43.6719H53.8281C54.0975 43.6719 54.3558 43.5649 54.5463 43.3744C54.7367 43.1839 54.8438 42.9256 54.8438 42.6562V38.5938C54.8438 38.3244 54.7367 38.0661 54.5463 37.8756C54.3558 37.6851 54.0975 37.5781 53.8281 37.5781H49.7656C49.4963 37.5781 49.2379 37.6851 49.0475 37.8756C48.857 38.0661 48.75 38.3244 48.75 38.5938V42.6562C48.75 42.9256 48.857 43.1839 49.0475 43.3744C49.2379 43.5649 49.4963 43.6719 49.7656 43.6719ZM50.7812 39.6094H52.8125V41.6406H50.7812V39.6094Z" fill="#2E67B2"/>
<path d="M49.7656 50.7812H53.8281C54.0975 50.7812 54.3558 50.6742 54.5463 50.4838C54.7367 50.2933 54.8438 50.035 54.8438 49.7656V45.7031C54.8438 45.4338 54.7367 45.1754 54.5463 44.985C54.3558 44.7945 54.0975 44.6875 53.8281 44.6875H49.7656C49.4963 44.6875 49.2379 44.7945 49.0475 44.985C48.857 45.1754 48.75 45.4338 48.75 45.7031V49.7656C48.75 50.035 48.857 50.2933 49.0475 50.4838C49.2379 50.6742 49.4963 50.7812 49.7656 50.7812ZM50.7812 46.7188H52.8125V48.75H50.7812V46.7188Z" fill="#2E67B2"/>
<path d="M49.7656 36.5625H53.8281C54.0975 36.5625 54.3558 36.4555 54.5463 36.265C54.7367 36.0746 54.8438 35.8162 54.8438 35.5469V31.4844C54.8438 31.215 54.7367 30.9567 54.5463 30.7662C54.3558 30.5758 54.0975 30.4688 53.8281 30.4688H49.7656C49.4963 30.4688 49.2379 30.5758 49.0475 30.7662C48.857 30.9567 48.75 31.215 48.75 31.4844V35.5469C48.75 35.8162 48.857 36.0746 49.0475 36.265C49.2379 36.4555 49.4963 36.5625 49.7656 36.5625ZM50.7812 32.5H52.8125V34.5312H50.7812V32.5Z" fill="#2E67B2"/>
<path d="M11.1719 43.6719H15.2344C15.5037 43.6719 15.7621 43.5649 15.9525 43.3744C16.143 43.1839 16.25 42.9256 16.25 42.6562V38.5938C16.25 38.3244 16.143 38.0661 15.9525 37.8756C15.7621 37.6851 15.5037 37.5781 15.2344 37.5781H11.1719C10.9025 37.5781 10.6442 37.6851 10.4537 37.8756C10.2633 38.0661 10.1562 38.3244 10.1562 38.5938V42.6562C10.1562 42.9256 10.2633 43.1839 10.4537 43.3744C10.6442 43.5649 10.9025 43.6719 11.1719 43.6719ZM12.1875 39.6094H14.2188V41.6406H12.1875V39.6094Z" fill="#2E67B2"/>
<path d="M11.1719 50.7812H15.2344C15.5037 50.7812 15.7621 50.6742 15.9525 50.4838C16.143 50.2933 16.25 50.035 16.25 49.7656V45.7031C16.25 45.4338 16.143 45.1754 15.9525 44.985C15.7621 44.7945 15.5037 44.6875 15.2344 44.6875H11.1719C10.9025 44.6875 10.6442 44.7945 10.4537 44.985C10.2633 45.1754 10.1562 45.4338 10.1562 45.7031V49.7656C10.1562 50.035 10.2633 50.2933 10.4537 50.4838C10.6442 50.6742 10.9025 50.7812 11.1719 50.7812ZM12.1875 46.7188H14.2188V48.75H12.1875V46.7188Z" fill="#2E67B2"/>
<path d="M11.1719 36.5625H15.2344C15.5037 36.5625 15.7621 36.4555 15.9525 36.265C16.143 36.0746 16.25 35.8162 16.25 35.5469V31.4844C16.25 31.215 16.143 30.9567 15.9525 30.7662C15.7621 30.5758 15.5037 30.4688 15.2344 30.4688H11.1719C10.9025 30.4688 10.6442 30.5758 10.4537 30.7662C10.2633 30.9567 10.1562 31.215 10.1562 31.4844V35.5469C10.1562 35.8162 10.2633 36.0746 10.4537 36.265C10.6442 36.4555 10.9025 36.5625 11.1719 36.5625ZM12.1875 32.5H14.2188V34.5312H12.1875V32.5Z" fill="#2E67B2"/>
<path d="M48.75 54.8438H54.8438C55.1131 54.8438 55.3714 54.7367 55.5619 54.5463C55.7524 54.3558 55.8594 54.0975 55.8594 53.8281C55.8594 53.5588 55.7524 53.3004 55.5619 53.11C55.3714 52.9195 55.1131 52.8125 54.8438 52.8125H48.75C48.4806 52.8125 48.2223 52.9195 48.0318 53.11C47.8414 53.3004 47.7344 53.5588 47.7344 53.8281C47.7344 54.0975 47.8414 54.3558 48.0318 54.5463C48.2223 54.7367 48.4806 54.8438 48.75 54.8438Z" fill="#2E67B2"/>
<path d="M16.25 52.8125H10.1562C9.88689 52.8125 9.62856 52.9195 9.43809 53.11C9.24763 53.3004 9.14062 53.5588 9.14062 53.8281C9.14062 54.0975 9.24763 54.3558 9.43809 54.5463C9.62856 54.7367 9.88689 54.8438 10.1562 54.8438H16.25C16.5194 54.8438 16.7777 54.7367 16.9682 54.5463C17.1586 54.3558 17.2656 54.0975 17.2656 53.8281C17.2656 53.5588 17.1586 53.3004 16.9682 53.11C16.7777 52.9195 16.5194 52.8125 16.25 52.8125Z" fill="#2E67B2"/>
</svg>
