<svg width="52" height="52" viewBox="0 0 52 52" fill="none" xmlns="http://www.w3.org/2000/svg">
<g clip-path="url(#clip0)">
<path d="M34.2023 6.31458H5.19147C2.32426 6.31458 0 8.63893 0 11.506V40.5169C0 43.3841 2.32426 45.7083 5.19147 45.7083H34.2023C37.0695 45.7083 39.3938 43.3841 39.3938 40.5169V11.506C39.3938 8.63893 37.0695 6.31458 34.2023 6.31458Z" fill="#B4BBCC"/>
<path d="M31.8295 11.5707H7.56495C6.29013 11.5707 5.25684 12.6041 5.25684 13.8788V38.1432C5.25684 39.418 6.29023 40.4513 7.56495 40.4513H31.8293C33.1042 40.4513 34.1375 39.4179 34.1375 38.1432V13.8789C34.1377 12.6042 33.1042 11.5707 31.8295 11.5707Z" fill="white"/>
<path opacity="0.1" d="M7.58231 16.2044C7.58231 14.9296 8.61571 13.8963 9.89042 13.8963H34.1375V13.8789C34.1375 12.6041 33.1041 11.5708 31.8293 11.5708H7.56495C6.29013 11.5708 5.25684 12.6042 5.25684 13.8789V38.1433C5.25684 39.4181 6.29023 40.4514 7.56495 40.4514H7.58231V16.2044Z" fill="black"/>
<path d="M24.0642 37.713C23.1292 37.713 22.2219 37.35 21.5418 36.687L9.68116 25.1258C8.25198 23.7325 8.22273 21.4446 9.61586 20.0153C11.0089 18.586 13.2969 18.557 14.7262 19.95L23.3968 28.4019C26.8688 23.4526 34.1108 14.754 46.4374 6.8627C48.1188 5.78644 50.3534 6.27719 51.4294 7.95785C52.5056 9.63881 52.0152 11.8738 50.3343 12.9499C33.7782 23.549 27.3309 35.651 27.2677 35.7721C26.739 36.7845 25.7627 37.4875 24.6347 37.6678C24.4445 37.6982 24.2539 37.713 24.0642 37.713Z" fill="#A5EB78"/>
</g>
<defs>
<clipPath id="clip0">
<rect width="52" height="52" fill="white"/>
</clipPath>
</defs>
</svg>
