<svg width="90" height="90" viewBox="0 0 90 90" fill="none" xmlns="http://www.w3.org/2000/svg">
<path d="M75.0001 15H57.0001C52.8646 15 49.5 18.3645 49.5 22.5001V25.5001C49.5 29.6355 52.8645 33.0002 57.0001 33.0002H75.0001C79.1355 33.0002 82.5001 29.6357 82.5001 25.5001V22.5001C82.4999 18.3646 79.1355 15 75.0001 15ZM79.5001 25.5001C79.5001 27.9811 77.481 30.0001 75.0001 30.0001H57.0001C54.5191 30.0001 52.5001 27.9811 52.5001 25.5001V22.5001C52.5001 20.0191 54.5191 18.0001 57.0001 18.0001H75.0001C77.481 18.0001 79.5001 20.0191 79.5001 22.5001V25.5001Z" fill="#2E67B2"/>
<path d="M79.5001 36H52.5001C50.8456 36 49.5 37.3454 49.5 39.0001V42.0001C49.5 43.6546 50.8454 45.0002 52.5001 45.0002H79.5001C81.1545 45.0002 82.5001 43.6548 82.5001 42.0001V39.0001C82.4999 37.3454 81.1545 36 79.5001 36ZM70.5001 39.0001V42.0001H61.5001V39.0001H70.5001ZM52.5001 39.0001H58.5V42.0001H52.5001V39.0001ZM73.4999 41.9999V38.9999H79.4999L79.5029 41.9999H73.4999Z" fill="#2E67B2"/>
<path d="M79.5001 48H52.5001C50.8456 48 49.5 49.3454 49.5 51.0001V53.9999C49.5 55.6544 50.8454 57 52.5001 57H79.5001C81.1545 57 82.5001 55.6546 82.5001 53.9999V50.9999C82.4999 49.3454 81.1545 48 79.5001 48ZM70.5001 50.9999V53.9999H61.5001V50.9999H70.5001ZM52.5001 50.9999H58.5V53.9999H52.5001V50.9999ZM73.4999 53.9999V50.9999H79.4999L79.5029 53.9999H73.4999Z" fill="#2E67B2"/>
<path d="M79.5001 60H52.5001C50.8456 60 49.5 61.3454 49.5 63.0001V66.0001C49.5 67.6546 50.8454 69.0002 52.5001 69.0002H79.5001C81.1545 69.0002 82.5001 67.6547 82.5001 66.0001V63.0001C82.4999 61.3456 81.1545 60 79.5001 60ZM70.5001 63.0001V66.0001H61.5001V63.0001H70.5001ZM52.5001 63.0001H58.5V66.0001H52.5001V63.0001ZM73.4999 66.0001V63.0001H79.4999L79.5029 66.0001H73.4999Z" fill="#2E67B2"/>
<path d="M85.5 7.50006H31.5V4.5C31.5 2.01902 29.481 0 27 0H12.0001C9.51908 0 7.50006 2.01902 7.50006 4.5V7.50006H4.5C2.01902 7.50006 0 9.51908 0 12.0001V72C0 74.481 2.01902 76.5 4.5 76.5H7.50006V79.5001C7.50006 81.981 9.51908 84.0001 12.0001 84.0001H18.151C18.8478 87.4192 21.8781 90 25.5001 90C25.5705 90 25.6426 89.9954 25.7115 89.9851L33.0585 88.9365C35.46 88.593 37.6379 87.3765 39.192 85.5135L42.7321 81.2656C43.8717 79.8982 44.6101 78.2443 44.8815 76.5002H85.5C87.981 76.5002 90 74.4812 90 72.0002V12.0001C90 9.51908 87.981 7.50006 85.5 7.50006ZM4.5 73.4999C3.67348 73.4999 3.00006 72.8279 3.00006 72V12.0001C3.00006 11.1721 3.67348 10.5001 4.5 10.5001H7.50006V73.5001H4.5V73.4999ZM10.4999 79.5001V4.5C10.4999 3.67207 11.1734 3.00006 11.9999 3.00006H27C27.8265 3.00006 28.4999 3.67207 28.4999 4.5V79.5001C28.4999 80.328 27.8265 81 27 81H12.0001C11.1735 81 10.4999 80.328 10.4999 79.5001ZM40.4279 79.344L36.8879 83.5935C35.8109 84.8849 34.2988 85.728 32.6338 85.9665L25.4007 86.9985C23.4879 86.9574 21.8661 85.7164 21.2574 84.0001H27C29.481 84.0001 31.5 81.981 31.5 79.5001V76.5H41.8308C41.5946 77.5394 41.1163 78.5169 40.4279 79.344ZM86.9999 72C86.9999 72.8279 86.3279 73.4999 85.5 73.4999H31.5V10.4999H85.5C86.3279 10.4999 86.9999 11.172 86.9999 11.9999V72Z" fill="#2E67B2"/>
<path d="M63 22.5H59.9999C59.172 22.5 58.5 23.1704 58.5 23.9999C58.5 24.8295 59.172 25.4999 59.9999 25.4999H63C63.8279 25.4999 64.5 24.8295 64.5 23.9999C64.5 23.1704 63.8279 22.5 63 22.5Z" fill="#2E67B2"/>
<path d="M72 22.5H68.9999C68.172 22.5 67.5 23.1704 67.5 23.9999C67.5 24.8295 68.172 25.4999 68.9999 25.4999H72C72.8295 25.4999 73.4999 24.8295 73.4999 23.9999C73.4999 23.1704 72.8295 22.5 72 22.5Z" fill="#2E67B2"/>
</svg>
