<svg width="90" height="90" viewBox="0 0 90 90" fill="none" xmlns="http://www.w3.org/2000/svg">
<path d="M87.6585 23.1286L82.524 3.96458L82.0905 2.37158L49.4085 11.1286H4.5V23.1286H0V26.5651V84.1921V87.6286H90V84.1921V26.5651V23.1286H87.6585ZM6.321 26.1286H62.0625H77.592H84.549L54.8655 56.1556L54.939 56.2261L46.77 64.4341C45.777 65.3566 44.223 65.3551 43.272 64.4731L35.0625 56.2261L35.1345 56.1556L5.4705 26.1286H6.321ZM63.8565 21.2326L72.5505 18.9031L73.6815 23.1271H64.365L63.8565 21.2326ZM30.786 56.1781L3 82.9111V28.2631L30.786 56.1781ZM32.901 58.3036L41.1855 66.6271C42.249 67.6186 43.614 68.1166 44.985 68.1166C46.3695 68.1166 47.76 67.6081 48.8565 66.5866L57.1005 58.3036L84.4575 84.6271H5.529L32.901 58.3036ZM59.2155 56.1796L87 28.2616V82.9111L59.2155 56.1796ZM84.5535 23.1286H76.788L74.6715 15.2296L60.183 19.1116L61.2585 23.1286H16.215L79.9755 6.04358L84.5535 23.1286ZM38.2125 14.1286L36.516 14.5831L7.5 22.3576V14.1286H38.2125Z" fill="#2E67B2"/>
</svg>
