<svg width="90" height="90" viewBox="0 0 90 90" fill="none" xmlns="http://www.w3.org/2000/svg">
<path d="M44.2495 7.50013H51.7495C52.5774 7.50013 53.2495 6.82811 53.2495 6.00018C53.2495 5.17226 52.5774 4.50024 51.7495 4.50024H44.2495C43.4215 4.50024 42.7495 5.17226 42.7495 6.00018C42.7495 6.82811 43.4215 7.50013 44.2495 7.50013Z" fill="#2E67B2"/>
<path d="M38.2499 7.50013H39.7499C40.5778 7.50013 41.2498 6.82811 41.2498 6.00018C41.2498 5.17226 40.5778 4.50024 39.7499 4.50024H38.2499C37.422 4.50024 36.75 5.17226 36.75 6.00018C36.75 6.82811 37.422 7.50013 38.2499 7.50013Z" fill="#2E67B2"/>
<path d="M48.7465 81H51.7466C52.5745 81 53.2465 80.328 53.2465 79.5001C53.2465 78.6721 52.5745 78.0001 51.7466 78.0001H48.7465C47.9186 78.0001 47.2466 78.6721 47.2466 79.5001C47.2466 80.328 47.9186 81 48.7465 81Z" fill="#2E67B2"/>
<path d="M53.2396 82.5H47.247C46.4191 82.5 45.7471 83.172 45.7471 83.9999C45.7471 84.8279 46.4191 85.4999 47.247 85.4999H53.2396C54.0675 85.4999 54.7395 84.8279 54.7395 83.9999C54.7395 83.172 54.0677 82.5 53.2396 82.5Z" fill="#2E67B2"/>
<path d="M42.7471 27C37.7835 27 33.7471 31.0365 33.7471 36C33.7471 36.8279 34.4191 37.4999 35.247 37.4999C36.0749 37.4999 36.747 36.8279 36.747 36C36.747 32.6909 39.438 30.0001 42.7469 30.0001C46.056 30.0001 48.7468 32.6911 48.7468 36C48.7468 36.8279 49.4188 37.4999 50.2468 37.4999C51.0747 37.4999 51.7467 36.8279 51.7467 36C51.7471 31.0365 47.7106 27 42.7471 27Z" fill="#2E67B2"/>
<path d="M42.747 21C34.476 21 27.7471 27.7291 27.7471 35.9999C27.7471 36.8279 28.4191 37.4999 29.247 37.4999C30.0749 37.4999 30.747 36.8279 30.747 35.9999C30.747 29.3834 36.1304 23.9999 42.747 23.9999C49.3636 23.9999 54.7471 29.3834 54.7471 35.9999C54.7471 36.8279 55.4191 37.4999 56.247 37.4999C57.0749 37.4999 57.747 36.8279 57.747 35.9999C57.747 27.7289 51.018 21 42.747 21Z" fill="#2E67B2"/>
<path d="M71.2499 10.4999C71.2499 10.4948 71.2492 10.4901 71.2492 10.485V5.94158C71.2492 2.66555 68.5852 0 65.3078 0H26.1922C22.9148 0 20.2492 2.66555 20.2492 5.94158V13.5002C19.4217 13.5005 18.75 14.1724 18.75 15.0001V16.5001C18.75 17.3278 19.4217 17.9996 20.2492 18V19.5001C19.4217 19.5005 18.75 20.1723 18.75 21.0001V22.5C18.75 23.3278 19.4217 23.9996 20.2492 23.9999V25.5001C19.4217 25.5004 18.75 26.1722 18.75 27V28.4999C18.75 29.3277 19.4217 29.9995 20.2492 29.9999V81.0584C20.2492 84.3344 22.9148 86.9999 26.1922 86.9999H38.2499V88.4999C38.2499 89.3278 38.922 89.9998 39.7499 89.9998H60.7499C61.5779 89.9998 62.2499 89.3294 62.2499 88.5013L62.2515 86.9998H65.3076C68.585 86.9998 71.2492 84.3342 71.2492 81.0582V73.5145C71.2492 73.5094 71.2499 73.5047 71.2499 73.4996V10.4999ZM65.247 54C65.247 51.519 63.2279 49.5 60.747 49.5C60.162 49.5 59.6024 49.6125 59.0895 49.8164C58.569 47.9069 56.82 46.4999 54.75 46.4999C54.2235 46.4999 53.7196 46.5915 53.2501 46.7564V46.4999C53.2501 44.019 51.2296 41.9999 48.7471 41.9999C48.222 41.9999 47.718 42.0915 47.2501 42.2564V37.4999C47.2501 35.019 45.2297 32.9999 42.7471 32.9999C40.2676 32.9999 38.2501 35.019 38.2501 37.4999V55.677C37.2496 53.8395 36.1156 52.1759 35.0356 51.0975C33.1996 49.2615 29.5816 49.1295 27.5897 50.8245C26.9193 51.3946 24.9377 53.538 27.5672 57.189C29.6252 60.0449 30.6632 66.3121 31.2843 70.056L31.4583 71.0986C31.511 71.4083 31.569 71.7068 31.6297 72.0002H23.2504V12.0001H68.2497V72H65.2445C65.2503 71.0775 65.2505 70.013 65.2505 68.7719L65.247 54ZM26.1922 3.00006H65.3078C66.9308 3.00006 68.2493 4.32 68.2493 5.94158V9H23.2493V5.94158C23.2491 4.32 24.5692 3.00006 26.1922 3.00006ZM26.1922 84.0001C24.5692 84.0001 23.2493 82.6801 23.2493 81.0585V75.0001H32.4657C34.098 79.5069 36.715 81.3354 38.2501 82.0471V84.0001H26.1922ZM41.25 86.9999V81C41.25 80.2979 40.7355 79.6831 40.0499 79.5299C39.8963 79.4958 36.7249 78.7221 35.036 73.244C35.0154 73.1246 34.9816 73.0099 34.9345 72.9019C34.7354 72.2072 34.5596 71.4414 34.4158 70.5959L34.2434 69.5654C33.5369 65.3024 32.4704 58.8614 29.9998 55.4354C29.4449 54.6645 28.9138 53.6354 29.5333 53.109C30.3433 52.422 32.1763 52.479 32.9143 53.2185C35.4388 55.7445 38.2498 62.0984 38.2498 64.4999C38.2498 65.3279 38.9218 65.9999 39.7497 65.9999C40.5776 65.9999 41.2496 65.3279 41.2496 64.4999V37.4999C41.2496 36.6734 41.9217 36 42.7466 36C43.5745 36 44.2495 36.6734 44.2495 37.4999L44.2465 56.9999C44.2465 57.8278 44.9186 58.4998 45.7465 58.4998C46.5744 58.4998 47.2464 57.8278 47.2464 56.9999L47.2494 46.4999C47.2494 45.6734 47.9214 45 48.7464 45C49.5743 45 50.2493 45.6734 50.2493 46.4999V59.9999C50.2493 60.8279 50.9213 61.4999 51.7492 61.4999C52.5772 61.4999 53.2492 60.8279 53.2492 59.9999V50.9999C53.2492 50.1734 53.9226 49.5 54.7491 49.5C55.5741 49.5 56.2461 50.1734 56.2461 50.9999L56.2499 63C56.2499 63.8279 56.922 64.4999 57.7499 64.4999C58.5778 64.4999 59.2498 63.8279 59.2498 63V54C59.2498 53.1735 59.9218 52.5001 60.7468 52.5001C61.5733 52.5001 62.2467 53.1735 62.2467 54L62.2497 68.7719C62.2497 70.8291 62.2497 72.3391 62.2269 73.4767C62.2267 73.4845 62.2256 73.492 62.2256 73.4999C62.2256 73.5031 62.2262 73.5061 62.2262 73.5093C62.1622 76.6188 61.9238 76.9243 61.0361 78.0599C60.6341 78.5758 60.1301 79.2209 59.4986 80.1673C59.3036 80.4614 59.2226 80.8093 59.2586 81.1498L59.2511 86.9998H41.25V86.9999ZM65.3078 84.0001H62.2548L62.2574 81.444C62.715 80.7855 63.0915 80.3041 63.402 79.9065C64.6164 78.3508 65.0329 77.6754 65.1754 74.9999H68.2491V81.0584C68.2491 82.6799 66.9308 84.0001 65.3078 84.0001Z" fill="#2E67B2"/>
</svg>
