<svg width="90" height="90" viewBox="0 0 90 90" fill="none" xmlns="http://www.w3.org/2000/svg">
<path d="M75 48C79.1355 48 82.5 44.6355 82.5 40.5C82.5 36.3645 79.1355 33 75 33C70.8645 33 67.5 36.3645 67.5 40.5C67.5 44.6355 70.8645 48 75 48ZM75 36C77.481 36 79.5 38.019 79.5 40.5C79.5 42.981 77.481 45 75 45C72.519 45 70.5 42.981 70.5 40.5C70.5 38.019 72.519 36 75 36Z" fill="#2E67B2"/>
<path d="M27 13.5H54C54.8295 13.5 55.5 12.8295 55.5 12C55.5 11.1705 54.8295 10.5 54 10.5H27C26.1705 10.5 25.5 11.1705 25.5 12C25.5 12.8295 26.1705 13.5 27 13.5Z" fill="#2E67B2"/>
<path d="M63 18H27C26.1705 18 25.5 18.6705 25.5 19.5C25.5 20.3295 26.1705 21 27 21H63C63.8295 21 64.5 20.3295 64.5 19.5C64.5 18.6705 63.8295 18 63 18Z" fill="#2E67B2"/>
<path d="M63 64.5H27C26.1705 64.5 25.5 65.1705 25.5 66C25.5 66.8295 26.1705 67.5 27 67.5H63C63.8295 67.5 64.5 66.8295 64.5 66C64.5 65.1705 63.8295 64.5 63 64.5Z" fill="#2E67B2"/>
<path d="M63 72H27C26.1705 72 25.5 72.6705 25.5 73.5C25.5 74.3295 26.1705 75 27 75H63C63.8295 75 64.5 74.3295 64.5 73.5C64.5 72.6705 63.8295 72 63 72Z" fill="#2E67B2"/>
<path d="M76.5 25.5V0H13.5V25.5H0V76.5H9V81H13.5V90H76.5V81H81V76.5H90V25.5H76.5ZM16.5 3H73.5V25.5H16.5V3ZM13.5 28.5H76.5H87V52.5H3V28.5H13.5ZM12 78V75V73.5V67.5C12 66.6705 11.3295 66 10.5 66C9.6705 66 9 66.6705 9 67.5V73.5H3V55.5H13.5V78H12ZM73.5 87H16.5V81V55.5H73.5V81V87ZM81 73.5V67.5C81 66.6705 80.3295 66 79.5 66C78.6705 66 78 66.6705 78 67.5V73.5V75V78H76.5V55.5H87V73.5H81Z" fill="#2E67B2"/>
<path d="M9 36H13.5C14.3295 36 15 35.3295 15 34.5C15 33.6705 14.3295 33 13.5 33H9C8.1705 33 7.5 33.6705 7.5 34.5C7.5 35.3295 8.1705 36 9 36Z" fill="#2E67B2"/>
<path d="M9 42H13.5C14.3295 42 15 41.3295 15 40.5C15 39.6705 14.3295 39 13.5 39H9C8.1705 39 7.5 39.6705 7.5 40.5C7.5 41.3295 8.1705 42 9 42Z" fill="#2E67B2"/>
<path d="M9 48H13.5C14.3295 48 15 47.3295 15 46.5C15 45.6705 14.3295 45 13.5 45H9C8.1705 45 7.5 45.6705 7.5 46.5C7.5 47.3295 8.1705 48 9 48Z" fill="#2E67B2"/>
<path d="M19.5 36H24C24.8295 36 25.5 35.3295 25.5 34.5C25.5 33.6705 24.8295 33 24 33H19.5C18.6705 33 18 33.6705 18 34.5C18 35.3295 18.6705 36 19.5 36Z" fill="#2E67B2"/>
<path d="M19.5 42H24C24.8295 42 25.5 41.3295 25.5 40.5C25.5 39.6705 24.8295 39 24 39H19.5C18.6705 39 18 39.6705 18 40.5C18 41.3295 18.6705 42 19.5 42Z" fill="#2E67B2"/>
<path d="M19.5 48H24C24.8295 48 25.5 47.3295 25.5 46.5C25.5 45.6705 24.8295 45 24 45H19.5C18.6705 45 18 45.6705 18 46.5C18 47.3295 18.6705 48 19.5 48Z" fill="#2E67B2"/>
<path d="M30 36H34.5C35.3295 36 36 35.3295 36 34.5C36 33.6705 35.3295 33 34.5 33H30C29.1705 33 28.5 33.6705 28.5 34.5C28.5 35.3295 29.1705 36 30 36Z" fill="#2E67B2"/>
<path d="M30 42H34.5C35.3295 42 36 41.3295 36 40.5C36 39.6705 35.3295 39 34.5 39H30C29.1705 39 28.5 39.6705 28.5 40.5C28.5 41.3295 29.1705 42 30 42Z" fill="#2E67B2"/>
<path d="M30 48H34.5C35.3295 48 36 47.3295 36 46.5C36 45.6705 35.3295 45 34.5 45H30C29.1705 45 28.5 45.6705 28.5 46.5C28.5 47.3295 29.1705 48 30 48Z" fill="#2E67B2"/>
</svg>
