<svg width="90" height="90" viewBox="0 0 90 90" fill="none" xmlns="http://www.w3.org/2000/svg">
<path d="M70.4999 52.5H73.5C74.4 52.5 74.9999 51.9001 74.9999 51.0001C74.9999 50.1001 74.4 49.5001 73.5 49.5001H70.4999C69.5999 49.5001 69 50.1001 69 51.0001C69 51.9001 69.5999 52.5 70.4999 52.5Z" fill="#2E67B2"/>
<path d="M70.4999 67.5H73.5C74.4 67.5 74.9999 66.9001 74.9999 66.0001C74.9999 65.1001 74.4 64.5001 73.5 64.5001H70.4999C69.5999 64.5001 69 65.1001 69 66.0001C69 66.9001 69.5999 67.5 70.4999 67.5Z" fill="#2E67B2"/>
<path d="M70.4999 82.5H73.5C74.4 82.5 74.9999 81.9001 74.9999 81.0001C74.9999 80.1001 74.4 79.5001 73.5 79.5001H70.4999C69.5999 79.5001 69 80.1001 69 81.0001C68.9998 81.9001 69.5999 82.5 70.4999 82.5Z" fill="#2E67B2"/>
<path d="M88.5001 36H74.8501V34.9501C74.8501 33.0001 73.3502 31.5 71.4001 31.5H70.5001V30.0001H85.5C87.1501 30.0001 88.5001 28.6501 88.65 27V3.00006C88.65 1.35 87.3 0 85.6499 0H46.6501C45 0 43.65 1.35 43.65 3.00006V15.0001H24.3C21.6 15.0001 18.9 16.2002 17.2499 18.3001C15.4499 20.25 14.6999 22.95 14.9999 25.65L16.3354 36H1.49994C0.599941 36 0 36.5999 0 37.4999V43.4999C0 44.3999 0.599941 44.9998 1.49994 44.9998H2.99988V88.4999C2.99988 89.3999 3.59982 89.9998 4.49983 89.9998H10.4998C11.3998 89.9998 11.9997 89.3999 11.9997 88.4999V45H17.5257C18.4324 49.4049 22.2961 52.5001 26.6998 52.5001H32.9998V55.5001H25.4997C21.2998 55.5001 17.9997 58.8001 17.9997 63.0002C17.9997 63.9002 18.5996 64.5001 19.4996 64.5001H32.9996V73.5001C30.4495 73.5001 28.4996 75.4501 28.4996 78.0001V81H22.5C21.6 81 21.0001 81.6 21.0001 82.4999V87C21.0001 87.8999 21.6 88.4999 22.5 88.4999H23.9999C23.9999 89.3999 24.5999 89.9998 25.4999 89.9998C26.3999 89.9998 26.9998 89.3999 26.9998 88.4999H41.9998C41.9998 89.3999 42.5997 89.9998 43.4997 89.9998C44.3997 89.9998 44.9997 89.3999 44.9997 88.4999H46.4996C47.3996 88.4999 47.9995 87.8999 47.9995 87V82.4999C47.9995 81.6 47.3996 81 46.4996 81H40.5V77.9999C40.5 75.4499 38.5501 73.4999 36 73.4999V64.4999H49.5C50.4 64.4999 50.9999 63.9 50.9999 63C50.9999 58.8001 47.7 55.4999 43.4999 55.4999H36V52.4999H42.6001C47.0037 52.4999 50.8674 49.4047 51.7741 44.9998H57.0001V58.4998V73.4998V88.4997C57.0001 89.3997 57.6 89.9997 58.5 89.9997H85.5C86.4 89.9997 87 89.3997 87 88.4997V73.4998V58.5V45H88.4999C89.3999 45 89.9998 44.4001 89.9998 43.5001V37.5001C90 36.5999 89.4001 36 88.5001 36ZM45 85.5H23.9999V84.0001H29.9999H38.9999H45V85.5ZM37.4999 77.9999V81H31.5V77.9999C31.5 77.0999 32.2501 76.5 32.9999 76.5H36C36.9 76.5 37.4999 77.2501 37.4999 77.9999ZM21.2999 61.5001C21.8999 59.7001 23.5499 58.5 25.4999 58.5H32.9999V61.5001H21.2999ZM43.65 58.5C45.5999 58.5 47.25 59.7001 47.8499 61.5001H36V58.5H43.65ZM52.956 36L53.724 30.0001H61.5001V31.5H60.4501C58.5002 31.5 57.0001 32.9999 57.0001 34.9501V36H52.956ZM71.55 34.5001C71.8501 34.5001 72 34.65 72 34.9501V36H60.1501V34.9501C60.1501 34.65 60.3 34.5001 60.6001 34.5001H63H68.9999H71.55ZM67.5 31.5H64.4999V30.0001H67.5V31.5ZM68.9999 27H63H54.1499L54.45 25.65C54.45 25.0501 54.45 24.6001 54.45 23.9999H85.5V27H68.9999ZM85.5 3.00006V20.8501H53.7045C53.3204 19.8575 52.7709 18.9311 52.0501 18.1501C51.3262 17.3658 50.4795 16.7055 49.5519 16.1931C49.4946 16.1605 49.4365 16.1295 49.3787 16.0982C49.3453 16.0806 49.3123 16.0624 49.2787 16.0451C48.8598 15.8263 48.4272 15.6431 47.9835 15.4974C47.5015 15.3339 47.006 15.2077 46.5003 15.1239V3.00006H85.5ZM9 87H5.99994V45H9V87ZM10.4999 41.9999H4.5H3.00006V38.9999H16.65L17.1 41.9999H10.4999ZM42.6001 49.5H26.7001C23.5501 49.5 20.8501 47.1001 20.4001 43.9501L18 25.2C17.6999 23.2501 18.3001 21.4501 19.4999 20.1001C20.6998 18.7501 22.5 18 24.3 18H45C46.8 18 48.6 18.7501 49.8001 20.1001C51.0001 21.6 51.6001 23.4 51.3 25.2L48.9001 43.9501C48.4501 47.1001 45.7501 49.5 42.6001 49.5ZM84.0001 72H59.9999V59.9999H83.9999V72H84.0001ZM84.0001 87H59.9999V74.9999H83.9999V87H84.0001ZM84.0001 57.0001H59.9999V45H83.9999V57.0001H84.0001ZM87 41.9999H85.5H58.5H52.2L52.65 38.9999H58.5H73.4999H87V41.9999Z" fill="#2E67B2"/>
<path d="M49.4998 10.4999C49.9498 10.4999 50.2499 10.35 50.5498 10.0499L53.5498 7.04984C54.1498 6.44989 54.1498 5.54989 53.5498 4.94978C52.9499 4.34966 52.0499 4.34984 51.4498 4.94978L48.4497 7.94984C47.8498 8.54978 47.8498 9.44978 48.4497 10.0499C48.7498 10.35 49.0498 10.4999 49.4998 10.4999Z" fill="#2E67B2"/>
<path d="M51.4497 14.5498C51.7498 14.8499 52.0497 14.9998 52.4997 14.9998C52.9497 14.9998 53.2497 14.8499 53.5496 14.5498L59.5496 8.54989C60.1495 7.94995 60.1495 7.04995 59.5496 6.44983C58.9496 5.84989 58.0496 5.84989 57.4495 6.44983L51.4496 12.4498C50.8498 13.0499 50.8498 13.9499 51.4497 14.5498Z" fill="#2E67B2"/>
</svg>
