<svg width="125" height="125" viewBox="0 0 125 125" fill="none" xmlns="http://www.w3.org/2000/svg">
<g clip-path="url(#clip0)">
<path d="M92.7042 41.2821C92.6638 24.6492 79.1793 11.1812 62.5464 11.161C45.8909 11.161 32.3887 24.6632 32.3887 41.3188C32.3887 57.9743 45.8909 71.4765 62.5464 71.4765C79.2019 71.4765 92.7042 57.9743 92.7042 41.3188C92.7042 41.3065 92.7042 41.2943 92.7042 41.2821ZM62.5464 68.3348V68.3715C47.6057 68.3715 35.4937 56.2595 35.4937 41.3188C35.4937 26.378 47.6057 14.266 62.5464 14.266C77.4728 14.266 89.579 26.3557 89.5992 41.2821C89.579 56.2146 77.4789 68.3146 62.5464 68.3348Z" fill="black"/>
<path d="M65.1995 29.62C64.7457 29.4369 64.2475 29.3945 63.7692 29.4978C63.1705 29.6124 62.6036 29.8541 62.1067 30.2068C61.4139 30.6386 60.0246 31.6004 57.9382 33.0917C57.2765 33.4762 56.8465 34.1623 56.7891 34.9254C56.8037 35.4385 57.0033 35.9294 57.3514 36.3068C57.6359 36.7047 58.0855 36.9519 58.5738 36.9791C59.0054 36.9828 59.4292 36.8642 59.7963 36.6368C60.4564 36.1641 61.2103 35.5855 62.0578 34.901C62.0578 35.2922 62.0578 35.94 62.0578 36.8447C62.0578 37.7493 62.0578 38.4176 62.0578 38.8495C62.0578 40.3002 62.0373 42.1706 61.9967 44.4605C61.956 46.7504 61.9356 48.1972 61.9356 48.8002C61.9013 49.3524 62.1168 49.8909 62.5223 50.2671C62.9377 50.6189 63.47 50.8019 64.0137 50.7805C64.5681 50.7867 65.1093 50.6106 65.554 50.2793C65.9528 50 66.19 49.5437 66.1897 49.0569V36.9914C66.1897 36.3068 66.1897 35.3288 66.1897 34.0575C66.1897 32.7861 66.1897 31.8204 66.1897 31.1603C66.2074 30.4922 65.8147 29.881 65.1995 29.62Z" fill="black"/>
<path d="M96.4207 17.8104C88.7324 6.67915 76.0752 0.0241503 62.547 7.01162e-06C39.7609 -0.0131343 21.2788 18.4476 21.2656 41.2337C21.2577 54.7965 27.9164 67.4971 39.0761 75.2049V123.455C39.08 124.312 39.7784 125.004 40.6359 125C41.0402 124.998 41.428 124.838 41.7165 124.555L62.4981 103.773L83.2797 124.555C83.8913 125.156 84.8744 125.147 85.4752 124.535C85.7585 124.247 85.9184 123.859 85.9202 123.455V75.2049C104.669 62.2555 109.37 36.5591 96.4207 17.8104ZM63.6472 100.4C63.0418 99.7981 62.0645 99.7981 61.4591 100.4L42.1688 119.714V77.173C54.7964 84.3714 70.2854 84.3714 82.913 77.173L82.9252 119.714L63.6472 100.4ZM86.018 71.3542C85.04 72.1366 84.0092 72.8538 82.9252 73.5057C70.4887 81.3917 54.6176 81.3917 42.1811 73.5057C41.0891 72.8538 40.054 72.1366 39.0761 71.3542C22.4468 58.3917 19.4747 34.4027 32.4373 17.7735C45.3998 1.14422 69.3888 -1.82786 86.018 11.1347C102.647 24.0972 105.619 48.0862 92.6568 64.7154C90.7253 67.193 88.4956 69.4227 86.018 71.3542Z" fill="black"/>
</g>
<defs>
<clipPath id="clip0">
<rect width="125" height="125" fill="white"/>
</clipPath>
</defs>
</svg>
