<svg width="125" height="125" viewBox="0 0 125 125" fill="none" xmlns="http://www.w3.org/2000/svg">
<g clip-path="url(#clip0)">
<path d="M26.0413 67.7083C23.1702 67.7083 20.833 70.0454 20.833 72.9165C20.833 75.7876 23.1702 78.1248 26.0413 78.1248C28.9124 78.1248 31.2495 75.7876 31.2495 72.9165C31.2495 70.0454 28.9124 67.7083 26.0413 67.7083Z" fill="black"/>
<path d="M81.5404 54.8173C70.6405 51.2416 54.3595 51.2416 43.4596 54.8173C42.0914 55.2648 41.3487 56.7374 41.7962 58.1029C42.2489 59.4711 43.7264 60.224 45.0819 59.7662C54.9493 56.5262 70.0504 56.5262 79.9178 59.7662C80.1874 59.8553 80.4596 59.8959 80.7291 59.8959C81.8253 59.8959 82.8424 59.2015 83.2035 58.1029C83.651 56.7374 82.9086 55.265 81.5404 54.8173Z" fill="black"/>
<path d="M122.396 57.2917C121.213 57.2917 120.076 57.1721 119.003 56.9561C119.499 54.7129 119.792 52.2234 119.792 49.4792C119.792 45.1711 116.287 41.6667 111.979 41.6667C107.671 41.6667 104.167 45.1711 104.167 49.4792C104.167 53.7593 107.592 57.7979 112.505 60.2112C111.753 61.9587 110.858 63.4241 109.933 64.6826C103.582 54.1658 91.2134 46.144 76.1252 43.0688C78.3865 41.3254 80.2285 39.0508 81.4861 36.3816C91.179 35.9744 98.958 28.02 98.958 18.229C98.9583 8.17871 90.7795 0 80.7292 0C73.4514 0 67.2036 4.31738 64.2834 10.4998C54.6204 10.9392 46.875 18.8765 46.875 28.6458C46.875 34.1104 49.3428 38.9641 53.1648 42.3083C44.4302 43.5024 36.2188 46.3523 29.312 50.6541C26.1357 48.2051 22.2703 46.875 18.2292 46.875C16.7898 46.875 15.625 48.0398 15.625 49.4792C15.625 53.0728 16.7261 56.5898 18.7581 59.5933C15.2664 63.6699 12.7996 68.2095 11.5178 72.9167H10.4167C4.67163 72.9167 0 77.5884 0 83.3333C0 89.1292 2.93726 94.4187 7.85571 97.4883L26.0417 108.818V122.396C26.0417 123.835 27.2065 125 28.646 125H39.0625C40.0493 125 40.9495 124.443 41.3921 123.561L44.4744 117.396C55.9998 120.575 69.0002 120.575 80.5259 117.396L83.6082 123.561C84.0508 124.443 84.9509 125 85.9377 125H96.3545C97.7939 125 98.9587 123.835 98.9587 122.396V108.607C108.907 101.288 114.584 91.1941 114.584 80.729C114.584 76.9346 113.823 73.2761 112.472 69.8049C114.236 67.8374 116.05 65.2739 117.435 61.9429C119.032 62.304 120.7 62.4998 122.396 62.4998C123.836 62.4998 125 61.335 125 59.8955C125 58.4565 123.835 57.2917 122.396 57.2917ZM80.7292 5.20825C87.9084 5.20825 93.75 11.0498 93.75 18.2292C93.75 25.4087 87.9084 31.25 80.7292 31.25C73.55 31.25 67.7085 25.4084 67.7085 18.2292C67.7085 11.05 73.5498 5.20825 80.7292 5.20825ZM52.0833 28.6458C52.0833 22.3201 56.6233 17.0483 62.7358 15.8979C62.6357 16.6694 62.5 17.4309 62.5 18.229C62.5 19.5552 62.6599 20.8418 62.9302 22.0881C62.6814 22.4875 62.5 22.9321 62.5 23.4375V33.8542C62.5 35.2937 63.6648 36.4585 65.1042 36.4585C66.5437 36.4585 67.7085 35.2937 67.7085 33.8542V30.9465C69.9319 33.2224 72.761 34.8601 75.9128 35.7305C73.5496 39.3582 69.5283 41.6667 65.1042 41.6667C57.9248 41.6667 52.0833 35.8252 52.0833 28.6458ZM94.8716 105.125C94.1697 105.614 93.75 106.412 93.75 107.267V119.792H87.5474L84.2083 113.116C83.636 111.969 82.3137 111.409 81.0979 111.796C69.3232 115.494 55.6768 115.494 43.9021 111.796C42.6763 111.42 41.364 111.977 40.7917 113.116L37.4526 119.792H31.25V107.374C31.25 106.473 30.7871 105.639 30.0242 105.164L10.6125 93.0684C7.22754 90.9575 5.2085 87.3184 5.2085 83.3333C5.2085 80.4622 7.54565 78.125 10.4167 78.125H13.583C14.8291 78.125 15.8999 77.2424 16.1389 76.0193C17.1384 70.8899 19.8672 65.8799 24.0303 61.531C24.9636 60.5569 24.9966 59.0286 24.1067 58.0139C22.6494 56.3533 21.6602 54.4536 21.177 52.4216C23.4507 52.9531 25.5537 54.0977 27.2781 55.771C28.1707 56.6357 29.5339 56.7551 30.5537 56.0559C39.2812 50.1353 50.6262 46.875 62.5 46.875C88.3459 46.875 109.375 62.0625 109.375 80.7292C109.375 89.9812 104.225 98.6455 94.8716 105.125ZM114.057 55.1326C111.163 53.4871 109.375 51.2161 109.375 49.4792C109.375 48.0425 110.542 46.875 111.979 46.875C113.416 46.875 114.583 48.0422 114.583 49.4792C114.583 51.5366 114.39 53.4185 114.057 55.1326Z" fill="black"/>
<path d="M80.7292 26.0417C82.1687 26.0417 83.3335 24.877 83.3335 23.4375V13.0208C83.3335 11.5813 82.1687 10.4165 80.7292 10.4165C79.2898 10.4165 78.125 11.5813 78.125 13.0208V23.4375C78.125 24.877 79.2898 26.0417 80.7292 26.0417Z" fill="black"/>
</g>
<defs>
<clipPath id="clip0">
<rect width="125" height="125" fill="white"/>
</clipPath>
</defs>
</svg>
