<svg width="125" height="125" viewBox="0 0 125 125" fill="none" xmlns="http://www.w3.org/2000/svg">
<path d="M10.3321 10.3321C10.1556 10.5188 10.0163 10.7376 9.92197 10.9766C9.81887 11.2104 9.76562 11.4632 9.76562 11.7188C9.76562 11.9743 9.81887 12.2271 9.92197 12.461C10.0116 12.7024 10.1514 12.922 10.3321 13.1055C10.7024 13.4686 11.2003 13.672 11.7188 13.672C12.2374 13.672 12.7353 13.4686 13.1056 13.1055C13.4687 12.7353 13.6721 12.2374 13.6721 11.7188C13.6721 11.2002 13.4687 10.7023 13.1056 10.3321C12.7279 9.98355 12.2328 9.79004 11.7188 9.79004C11.2049 9.79004 10.7098 9.98355 10.3321 10.3321Z" fill="black"/>
<path d="M16.836 9.92189C16.5946 10.0115 16.375 10.1513 16.1915 10.332C15.8284 10.7023 15.625 11.2002 15.625 11.7188C15.625 12.2373 15.8284 12.7352 16.1915 13.1055C16.4647 13.3809 16.8137 13.5688 17.1941 13.6451C17.5745 13.7214 17.9689 13.6827 18.3272 13.5339C18.6855 13.3852 18.9914 13.1331 19.2058 12.8098C19.4203 12.4865 19.5336 12.1067 19.5314 11.7188C19.5238 11.2017 19.3215 10.7065 18.965 10.332C18.688 10.0648 18.3393 9.88371 17.9614 9.81089C17.5834 9.73808 17.1925 9.77664 16.836 9.92189Z" fill="black"/>
<path d="M22.6954 9.92183C22.4564 10.0162 22.2376 10.1554 22.0509 10.332C21.6878 10.7022 21.4844 11.2001 21.4844 11.7187C21.4844 12.2373 21.6878 12.7352 22.0509 13.1054C22.2409 13.2778 22.4588 13.4165 22.6954 13.5156C22.9302 13.6157 23.1824 13.6687 23.4376 13.6718C23.6948 13.6744 23.95 13.6257 24.1881 13.5285C24.4263 13.4312 24.6426 13.2875 24.8245 13.1056C25.0064 12.9237 25.1501 12.7074 25.2474 12.4692C25.3446 12.2311 25.3933 11.9759 25.3907 11.7187C25.3832 11.2017 25.1809 10.7065 24.8243 10.332C24.5448 10.0689 24.1963 9.89069 23.8194 9.81807C23.4425 9.74545 23.0527 9.78144 22.6954 9.92183Z" fill="black"/>
<path d="M56.6406 37.1094H29.2969V41.0156H56.6406V37.1094Z" fill="black"/>
<path d="M56.6406 48.8281H29.2969V52.7344H56.6406V48.8281Z" fill="black"/>
<path d="M66.4062 60.5469H29.2969V64.4531H66.4062V60.5469Z" fill="black"/>
<path d="M54.6875 72.2656H29.2969V76.1719H54.6875V72.2656Z" fill="black"/>
<path d="M44.9219 83.9844H29.2969V87.8906H44.9219V83.9844Z" fill="black"/>
<path d="M41.0156 95.7031H29.2969V99.6094H41.0156V95.7031Z" fill="black"/>
<path d="M113.615 27.3438C112.633 27.3409 111.66 27.5331 110.752 27.9093C109.844 28.2855 109.021 28.8381 108.328 29.5352L101.562 36.3008V9.76562C101.562 8.21162 100.945 6.72127 99.8463 5.62242C98.7475 4.52358 97.2571 3.90625 95.7031 3.90625H9.76562C8.21162 3.90625 6.72127 4.52358 5.62242 5.62242C4.52358 6.72127 3.90625 8.21162 3.90625 9.76562V115.234C3.90625 116.788 4.52358 118.279 5.62242 119.378C6.72127 120.476 8.21162 121.094 9.76562 121.094H95.7031C97.2571 121.094 98.7475 120.476 99.8463 119.378C100.945 118.279 101.562 116.788 101.562 115.234V57.4492L118.902 40.1094C119.949 39.0639 120.662 37.7314 120.951 36.2807C121.239 34.8299 121.092 33.3261 120.526 31.9594C119.959 30.5928 119.001 29.4247 117.771 28.6031C116.541 27.7815 115.094 27.3432 113.615 27.3438ZM7.8125 9.76562C7.8125 9.24762 8.01828 8.75084 8.38456 8.38456C8.75084 8.01828 9.24762 7.8125 9.76562 7.8125H95.7031C96.2211 7.8125 96.7179 8.01828 97.0842 8.38456C97.4505 8.75084 97.6562 9.24762 97.6562 9.76562V15.625H7.8125V9.76562ZM97.6562 115.234C97.6562 115.752 97.4505 116.249 97.0842 116.615C96.7179 116.982 96.2211 117.188 95.7031 117.188H9.76562C9.24762 117.188 8.75084 116.982 8.38456 116.615C8.01828 116.249 7.8125 115.752 7.8125 115.234V19.5312H97.6562V40.207L85.9375 51.9258V46.0664L65.2617 25.3906H19.5312V111.328H85.9375V73.0742L97.6562 61.3555V115.234ZM51.0273 86.8359L45.7402 102.697L61.6016 97.4102L67.2148 91.7969L82.0312 76.9805V107.422H23.4375V29.2969H62.5V48.8281H82.0312V55.832L56.6406 81.2227L51.0273 86.8359ZM56.6406 86.7461L61.6914 91.7969L59.4922 93.9961L51.916 96.5215L54.4414 88.9453L56.6406 86.7461ZM66.4062 32.0586L79.2695 44.9219H66.4062V32.0586ZM64.4531 89.0352L59.4023 83.9844L105.469 37.918L110.52 42.9688L64.4531 89.0352ZM116.141 37.3477L113.281 40.207L108.23 35.1562L111.09 32.2969C111.419 31.9534 111.813 31.6792 112.249 31.4901C112.686 31.3011 113.156 31.2011 113.631 31.196C114.107 31.1908 114.578 31.2807 115.019 31.4604C115.459 31.64 115.859 31.9058 116.195 32.242C116.532 32.5783 116.797 32.9784 116.977 33.4187C117.157 33.8591 117.247 34.3308 117.242 34.8064C117.236 35.2819 117.136 35.7517 116.947 36.188C116.758 36.6244 116.484 37.0187 116.141 37.3477Z" fill="black"/>
</svg>
