<svg width="81" height="81" viewBox="0 0 81 81" fill="none" xmlns="http://www.w3.org/2000/svg">
<g clip-path="url(#clip0)">
<path d="M6.75 67.5H35.1V70.3917C32.4671 71.0715 30.7504 73.6031 31.093 76.3006C31.4357 78.9982 33.7307 81.0202 36.45 81.0202C39.1693 81.0202 41.4643 78.9982 41.807 76.3006C42.1496 73.6031 40.4329 71.0715 37.8 70.3917V67.5H40.2192C47.0691 71.0513 55.2068 71.1015 62.1 67.635L71.4218 79.0209C73.3324 81.2472 76.6709 81.5408 78.9408 79.6822C81.2106 77.8235 81.5813 74.4926 79.7756 72.1804L70.4606 60.7972C76.291 53.3623 77.2444 43.2082 72.9 34.8178V6.75C72.8955 3.02393 69.8761 0.00446326 66.15 0H6.75C3.02393 0.00446326 0.00446326 3.02393 0 6.75V60.75C0.00446326 64.4761 3.02393 67.4955 6.75 67.5ZM39.15 75.6C39.15 77.0912 37.9412 78.3 36.45 78.3C34.9588 78.3 33.75 77.0912 33.75 75.6C33.75 74.1088 34.9588 72.9 36.45 72.9C37.9412 72.9 39.15 74.1088 39.15 75.6ZM6.75 64.8C4.51325 64.8 2.7 62.9867 2.7 60.75V45.9H27C27.0085 47.2579 27.1309 48.6126 27.3659 49.95H18.9C18.1544 49.95 17.55 50.5544 17.55 51.3C17.55 52.0456 18.1544 52.65 18.9 52.65H27.9734C28.522 54.5377 29.2995 56.3511 30.2886 58.05H8.1C7.35442 58.05 6.75 58.6544 6.75 59.4C6.75 60.1456 7.35442 60.75 8.1 60.75H32.1084C33.265 62.2478 34.591 63.6068 36.0599 64.8H6.75ZM2.7 24.3H40.2192C38.1414 25.371 36.2283 26.7349 34.5384 28.35H18.9C18.1544 28.35 17.55 28.9544 17.55 29.7C17.55 30.4456 18.1544 31.05 18.9 31.05H32.1084C30.8142 32.7042 29.7401 34.5194 28.913 36.45H8.1C7.35442 36.45 6.75 37.0544 6.75 37.8C6.75 38.5456 7.35442 39.15 8.1 39.15H27.9734C27.5878 40.4743 27.3168 41.8293 27.1634 43.2H2.7V24.3ZM77.6885 73.8909C78.6316 75.0445 78.4618 76.7441 77.3091 77.6884C76.1459 78.5985 74.4725 78.4319 73.5116 77.3104L64.4828 66.285C65.9996 65.3041 67.4032 64.1581 68.6678 62.8681L77.6885 73.8909ZM51.3 67.5C39.3707 67.5 29.7 57.8293 29.7 45.9C29.7 33.9706 39.3707 24.3 51.3 24.3C63.2294 24.3 72.9 33.9706 72.9 45.9C72.8859 57.8235 63.2235 67.4859 51.3 67.5ZM62.3808 24.3H70.2V30.6598C68.0639 28.0195 65.4009 25.8535 62.3808 24.3ZM6.75 2.7H66.15C68.3868 2.7 70.2 4.51325 70.2 6.75V21.6H2.7V6.75C2.7 4.51325 4.51325 2.7 6.75 2.7Z" fill="#2E67B2"/>
<path d="M8.1 9.45H13.5C14.2456 9.45 14.85 8.84559 14.85 8.1C14.85 7.35442 14.2456 6.75 13.5 6.75H8.1C7.35442 6.75 6.75 7.35442 6.75 8.1C6.75 8.84559 7.35442 9.45 8.1 9.45Z" fill="#2E67B2"/>
<path d="M18.8998 9.45H64.7998C65.5454 9.45 66.1498 8.84559 66.1498 8.1C66.1498 7.35442 65.5454 6.75 64.7998 6.75H18.8998C18.1542 6.75 17.5498 7.35442 17.5498 8.1C17.5498 8.84559 18.1542 9.45 18.8998 9.45Z" fill="#2E67B2"/>
<path d="M8.1 31.0501H13.5C14.2456 31.0501 14.85 30.4457 14.85 29.7001C14.85 28.9545 14.2456 28.3501 13.5 28.3501H8.1C7.35442 28.3501 6.75 28.9545 6.75 29.7001C6.75 30.4457 7.35442 31.0501 8.1 31.0501Z" fill="#2E67B2"/>
<path d="M8.1 52.6499H13.5C14.2456 52.6499 14.85 52.0455 14.85 51.2999C14.85 50.5544 14.2456 49.95 13.5 49.95H8.1C7.35442 49.95 6.75 50.5544 6.75 51.2999C6.75 52.0455 7.35442 52.6499 8.1 52.6499Z" fill="#2E67B2"/>
<path d="M8.1 17.55H64.8C65.5456 17.55 66.15 16.9456 66.15 16.2C66.15 15.4544 65.5456 14.85 64.8 14.85H8.1C7.35442 14.85 6.75 15.4544 6.75 16.2C6.75 16.9456 7.35442 17.55 8.1 17.55Z" fill="#2E67B2"/>
<path d="M51.2998 27C44.2445 27.0068 37.7804 30.9426 34.5355 37.2074C34.5166 37.2452 34.4963 37.2803 34.4801 37.3208C32.1784 41.7883 31.7692 46.9935 33.3448 51.7658C33.3556 51.7941 33.3637 51.8225 33.3758 51.8495C36.4169 61.019 45.8835 66.4192 55.3243 64.3699C64.7651 62.3205 71.1408 53.4814 70.1063 43.8763C69.0719 34.2711 60.9605 26.9922 51.2998 27ZM51.2998 29.7C59.1963 29.7137 65.9344 35.4147 67.2554 43.2H35.3441C35.5793 41.8008 35.9987 40.439 36.5915 39.15H60.7498C61.4954 39.15 62.0998 38.5456 62.0998 37.8C62.0998 37.0544 61.4954 36.45 60.7498 36.45H38.1683C41.2033 32.2169 46.0911 29.7044 51.2998 29.7ZM51.2998 62.1C44.973 62.0901 39.2301 58.4003 36.5915 52.65H60.7498C61.4954 52.65 62.0998 52.0456 62.0998 51.3C62.0998 50.5544 61.4954 49.95 60.7498 49.95H35.6398C35.2886 48.6284 35.1071 47.2675 35.0998 45.9H67.4998C67.4901 54.843 60.2428 62.0903 51.2998 62.1Z" fill="#2E67B2"/>
</g>
<defs>
<clipPath id="clip0">
<rect width="81" height="81" fill="white"/>
</clipPath>
</defs>
</svg>
