<svg width="81" height="81" viewBox="0 0 81 81" fill="none" xmlns="http://www.w3.org/2000/svg">
<g clip-path="url(#clip0)">
<path d="M8.16353 67.5002H26.1913L23.2614 75.5624C22.8894 76.5648 22.9351 77.6746 23.3887 78.643C24.0765 80.133 25.5955 81.0599 27.2357 80.9913C28.8752 80.9221 30.3107 79.8709 30.8719 78.3285L34.8133 67.5002H36.5134V76.9498C36.5134 79.1868 38.3266 81 40.563 81C42.8001 81 44.6133 79.1868 44.6133 76.9498V67.5002H46.3146L50.2592 78.3489C50.8487 79.9408 52.3659 80.9981 54.0634 81C54.5337 81 55.0003 80.9178 55.4415 80.7559C56.4581 80.3876 57.285 79.6268 57.7367 78.6443C58.1916 77.679 58.2398 76.5715 57.8714 75.5704L54.9367 67.5002H72.9632C75.2002 67.5002 77.0134 65.687 77.0134 63.45V9.45016C77.0134 7.21307 75.2002 5.39992 72.9632 5.39992H47.3132V4.05025C47.3132 1.81316 45.5001 0 43.263 0H37.8631C35.6266 0 33.8134 1.81316 33.8134 4.05025V5.39992H8.16353C5.92644 5.39992 4.11328 7.21307 4.11328 9.45016V63.45C4.11328 65.687 5.92644 67.5002 8.16353 67.5002ZM28.335 77.4021C28.2114 77.7445 27.9556 78.0232 27.625 78.1758C27.3055 78.3241 26.9403 78.3396 26.6096 78.2178C26.2679 78.0949 25.9898 77.839 25.839 77.509C25.6889 77.1889 25.674 76.8224 25.797 76.4912L29.0624 67.5002H31.941L28.335 77.4021ZM41.9133 76.9498C41.9133 77.6957 41.3089 78.3 40.563 78.3C39.8177 78.3 39.2134 77.6957 39.2134 76.9498V67.5002H41.9133V76.9498ZM55.3334 76.4992C55.4551 76.828 55.4397 77.1926 55.2901 77.5103C55.0646 78.009 54.5591 78.3217 54.0122 78.3019C53.4646 78.2821 52.9838 77.9336 52.7941 77.42L49.1857 67.5002H52.0637L55.3334 76.4992ZM43.263 64.8002H15.9674L15.2926 62.1003H65.8354L65.1605 64.8002H43.263ZM36.5134 4.05025C36.5134 3.30434 37.1178 2.69996 37.8631 2.69996H43.263C44.0089 2.69996 44.6133 3.30434 44.6133 4.05025V5.39992H36.5134V4.05025ZM6.81324 9.45016C6.81324 8.70426 7.41763 8.09988 8.16353 8.09988H72.9632C73.7091 8.09988 74.3134 8.70426 74.3134 9.45016V63.45C74.3134 64.1959 73.7091 64.8002 72.9632 64.8002H67.9427L68.4544 62.7535C68.6552 61.947 68.4741 61.0924 67.9618 60.4373C67.4501 59.7822 66.6653 59.3997 65.8341 59.3997H15.2926C14.4614 59.4003 13.6765 59.7835 13.1648 60.4385C12.6532 61.0936 12.4721 61.9483 12.6736 62.7547L13.184 64.8002H8.16353C7.41763 64.8002 6.81324 64.1959 6.81324 63.45V9.45016Z" fill="#2E67B2"/>
<path d="M29.1067 42.0023C27.982 41.2033 26.5439 40.9876 25.2338 41.422C24.4922 40.3919 23.2829 39.8023 22.0141 39.8536C20.7454 39.9049 19.5873 40.589 18.9304 41.676C18.3736 41.3658 17.747 41.2027 17.1098 41.202C15.437 41.2249 13.9649 42.3107 13.4495 43.902C12.3743 43.8878 11.3391 44.3111 10.5815 45.0749C9.82447 45.8381 9.40918 46.877 9.43205 47.9523C9.41413 49.6208 10.4221 51.1293 11.9701 51.7522C11.9701 51.8344 11.9621 51.9185 11.9621 52.0019C11.9188 54.1908 13.6547 56.0021 15.843 56.0521C16.4814 56.0527 17.1086 55.8896 17.666 55.5781C18.3526 56.7109 19.5812 57.4024 20.9055 57.4024C22.2304 57.4024 23.459 56.7109 24.1456 55.5781C24.7024 55.8884 25.3296 56.0515 25.9667 56.0521C28.1556 56.0021 29.8909 54.1908 29.8483 52.0019C29.8501 51.2158 29.6277 50.4458 29.2081 49.7815C30.4162 48.8693 31.1219 47.4406 31.1133 45.9271C31.1127 45.3116 30.9965 44.7023 30.7703 44.13L36.1078 40.1298C36.986 40.9221 38.0569 41.469 39.2132 41.715V44.685C35.818 45.3784 33.4987 48.5294 33.8472 51.9772C34.1958 55.4249 37.0978 58.0488 40.5628 58.0488C44.0285 58.0488 46.9305 55.4249 47.2791 51.9772C47.627 48.5294 45.3083 45.3784 41.9131 44.685V41.715C42.8846 41.5092 43.798 41.0902 44.5871 40.4877L51.4548 46.5896C51.3967 46.8053 51.3658 47.0271 51.3633 47.2502V52.6501C51.3633 54.1413 52.5721 55.3501 54.0633 55.3501H64.8631C66.3543 55.3501 67.5631 54.1413 67.5631 52.6501V47.2502C67.5631 45.759 66.3543 44.5503 64.8631 44.5503H54.0633C53.821 44.5534 53.58 44.5898 53.3476 44.6578L46.3787 38.4656C46.7538 37.8421 47.0238 37.1611 47.1783 36.4498H58.1129C60.35 36.4498 62.1631 34.6366 62.1631 32.4001V28.0879C63.0098 27.7943 63.7353 27.2276 64.226 26.4774C65.8512 27.3902 67.8893 27.0756 69.1636 25.7154C70.4385 24.3559 70.6202 22.3011 69.6042 20.7388C71.5243 19.3886 72.1621 16.8332 71.1016 14.7389C70.0405 12.6445 67.6038 11.6471 65.3785 12.3955C64.5782 11.3431 63.3138 10.7479 61.9926 10.8029C60.6707 10.8586 59.4601 11.5563 58.75 12.6723C57.7075 12.0859 56.4586 11.9907 55.3388 12.4122C54.219 12.8336 53.3427 13.7285 52.9453 14.8569C50.9301 14.7407 49.1373 16.1268 48.7418 18.1062C48.3457 20.085 49.4679 22.0539 51.3726 22.7219C51.3726 22.7973 51.3658 22.8733 51.3658 22.95C51.3664 24.3886 52.1302 25.7198 53.3724 26.4453C54.6151 27.1714 56.1489 27.1838 57.4028 26.4774C57.8929 27.2276 58.6172 27.7937 59.4632 28.0879V32.4001C59.4632 33.1454 58.8588 33.7498 58.1129 33.7498H47.1783C46.632 31.1011 44.5618 29.0309 41.9131 28.4852V22.95H45.9634C46.446 22.9512 46.8922 22.6941 47.1345 22.2764C47.3761 21.858 47.3761 21.3432 47.1351 20.9249L41.7352 11.4753C41.7203 11.4494 41.6944 11.4345 41.6783 11.4104C41.6258 11.3363 41.5664 11.267 41.4997 11.2052C41.4385 11.1404 41.3712 11.0817 41.2989 11.0297C41.2729 11.0131 41.2599 10.9877 41.2327 10.9729C41.0943 10.9272 40.9559 10.8827 40.8168 10.8375C40.7334 10.8233 40.6481 10.8178 40.5628 10.8215C40.4782 10.8184 40.3929 10.8246 40.3095 10.8406C40.2162 10.8592 40.1259 10.8888 40.0394 10.9284C39.9875 10.9408 39.9374 10.9574 39.888 10.9784C39.8627 10.9933 39.8478 11.0186 39.8231 11.0347C39.749 11.0872 39.6804 11.1472 39.6179 11.2133C39.5537 11.2745 39.495 11.3418 39.4424 11.4141C39.4264 11.4401 39.401 11.4537 39.3856 11.4803L33.9857 20.9304C33.7465 21.3488 33.749 21.8636 33.9918 22.2801C34.2347 22.6966 34.6809 22.9518 35.1629 22.95H39.2132V28.4852C36.5639 29.0309 34.4943 31.1011 33.948 33.7498H27.063C26.6379 33.7498 26.238 33.5502 25.9828 33.2103L20.3128 25.6499H23.0128C24.504 25.6499 25.7134 24.4412 25.7134 22.95V17.5501C25.7134 16.0589 24.504 14.8501 23.0128 14.8501H12.213C10.7218 14.8501 9.513 16.0589 9.513 17.5501V22.95C9.513 24.4412 10.7218 25.6499 12.213 25.6499H16.938L23.823 34.83C24.5899 35.8472 25.7888 36.4473 27.063 36.4498H33.948C34.0623 36.9775 34.2403 37.4898 34.4788 37.9743L29.1067 42.0023ZM54.0633 47.2502H64.8631V52.6501H54.0633V47.2502ZM55.4129 24.3003C54.6676 24.3003 54.0633 23.6959 54.0633 22.95C54.0626 22.7127 54.1263 22.4791 54.248 22.2751C54.5138 21.8345 54.5057 21.2808 54.2276 20.8482C53.9514 20.4132 53.4502 20.1752 52.9385 20.2364C52.8638 20.2463 52.7884 20.2506 52.713 20.25C51.9677 20.25 51.3633 19.6456 51.3633 18.8997C51.3633 18.1544 51.9677 17.5501 52.713 17.5501C52.9534 17.5488 53.1901 17.6131 53.3965 17.7361C53.8358 17.9999 54.3865 17.9913 54.8178 17.7151C55.2498 17.4388 55.4877 16.9413 55.4321 16.4321C55.4216 16.3555 55.4148 16.2776 55.4129 16.1998C55.4129 15.4545 56.0173 14.8501 56.7632 14.8501C57.3831 14.86 57.9201 15.2833 58.074 15.884C58.074 15.9019 58.0913 15.9136 58.0956 15.9297C58.0993 15.9464 58.0956 15.9649 58.0956 15.9816C58.1444 16.1231 58.2161 16.2554 58.3076 16.374C58.3156 16.3852 58.3279 16.392 58.336 16.4012C58.4336 16.5193 58.5517 16.62 58.6839 16.6979C58.7018 16.709 58.7111 16.7281 58.7303 16.7374C58.7488 16.7467 58.7853 16.7498 58.8124 16.7615C58.9262 16.8147 59.046 16.8517 59.1703 16.8709C59.216 16.8777 59.2592 16.8888 59.305 16.8913C59.3297 16.8913 59.3513 16.9037 59.3754 16.9037C59.5219 16.9024 59.6671 16.8783 59.8062 16.832L59.9668 16.7776C60.1337 16.7207 60.2882 16.6317 60.4217 16.5162C60.4618 16.4711 60.5001 16.4235 60.5348 16.374C60.6108 16.2962 60.6769 16.2097 60.7319 16.1163C60.7585 16.0508 60.7801 15.9835 60.7968 15.9149C60.8332 15.824 60.8592 15.7289 60.8753 15.6318C60.8765 15.5527 60.8709 15.4743 60.8573 15.397C60.8604 15.3142 60.8549 15.2314 60.84 15.1498C60.819 15.0516 60.8098 14.9508 60.8128 14.8501C60.8128 14.1042 61.4172 13.4998 62.1631 13.4998C62.7898 13.5048 63.3336 13.9336 63.4831 14.5423C63.5913 14.9922 63.9225 15.3556 64.3607 15.5052C64.7988 15.6541 65.2833 15.5682 65.6436 15.2777C65.9965 14.9959 66.4365 14.8445 66.8882 14.8501C68.0068 14.8501 68.9133 15.7567 68.9133 16.8752C68.9133 17.9932 68.0068 18.8997 66.8882 18.8997C66.4939 18.917 66.1262 19.103 65.8797 19.4114C65.8636 19.4293 65.8457 19.4442 65.8309 19.4627C65.7209 19.5974 65.635 19.7501 65.5775 19.9138C65.5212 20.0881 65.5015 20.2716 65.5194 20.454C65.5194 20.4756 65.533 20.4941 65.5355 20.5145C65.554 20.6709 65.5997 20.8223 65.6702 20.9626V20.9817C65.6961 21.0287 65.7419 21.0571 65.7715 21.1004C65.8364 21.2005 65.9149 21.2913 66.0039 21.3704C66.0694 21.4161 66.1392 21.4551 66.2115 21.4878C66.2814 21.5373 66.3561 21.5793 66.4346 21.6133C66.4519 21.6133 66.4698 21.6133 66.4871 21.6213C66.5045 21.63 66.5088 21.6349 66.5211 21.6392C67.1255 21.7888 67.5538 22.3271 67.5631 22.95C67.5631 23.6959 66.9587 24.3003 66.2134 24.3003C65.5929 24.2904 65.0559 23.8664 64.902 23.2658C64.902 23.2485 64.8847 23.2361 64.8804 23.22C64.8767 23.204 64.8804 23.1848 64.8804 23.1687C64.8433 23.0915 64.7988 23.0186 64.7469 22.95C64.7135 22.8789 64.6746 22.8109 64.6295 22.746C64.5504 22.6577 64.4596 22.581 64.3594 22.5168C64.3217 22.4797 64.2816 22.4457 64.2396 22.4142C64.2396 22.4142 64.2247 22.4142 64.2179 22.4142C64.09 22.3518 63.9534 22.3104 63.8125 22.2912C63.7773 22.2795 63.7415 22.2696 63.705 22.2615C63.5221 22.2455 63.3385 22.2677 63.1649 22.3264L63.0042 22.3802C62.8367 22.4377 62.6822 22.5267 62.5494 22.6422C62.5086 22.6873 62.4709 22.7343 62.4357 22.7837C62.3603 22.8622 62.2941 22.9487 62.2385 23.0421C62.212 23.1069 62.1903 23.1743 62.1736 23.2429C62.1378 23.3344 62.1112 23.4295 62.0958 23.5266C62.0945 23.605 62.1007 23.6835 62.1131 23.7614C62.11 23.8442 62.1162 23.927 62.131 24.0086C62.1532 24.1037 62.1638 24.202 62.1631 24.3003C62.1631 25.0456 61.5588 25.6499 60.8128 25.6499C60.0676 25.6499 59.4632 25.0456 59.4632 24.3003C59.4619 24.1989 59.4737 24.0982 59.4965 24.0005C59.5114 23.919 59.5169 23.8362 59.5145 23.7534C59.5274 23.6755 59.5336 23.597 59.5318 23.5185C59.5163 23.4215 59.4897 23.3263 59.4539 23.2349C59.4372 23.1663 59.4156 23.0989 59.389 23.034C59.3334 22.9401 59.2673 22.8536 59.1919 22.7757C59.1567 22.7263 59.119 22.6793 59.0782 22.6342C58.9447 22.518 58.7908 22.4296 58.6233 22.3722L58.4627 22.3184C58.3242 22.2714 58.1784 22.248 58.0319 22.248C58.0103 22.248 57.9887 22.248 57.967 22.256C57.9454 22.264 57.904 22.264 57.8713 22.2683C57.7359 22.2838 57.6031 22.3203 57.4788 22.3765C57.4584 22.3858 57.4381 22.3895 57.4177 22.4006C57.3979 22.4111 57.396 22.4006 57.3868 22.413C57.3392 22.4482 57.2941 22.4871 57.252 22.5285C57.1593 22.5891 57.0747 22.6614 57.0005 22.7436C56.9529 22.8097 56.9115 22.8808 56.8775 22.9555C56.8293 23.0223 56.7879 23.094 56.7539 23.1687V23.22C56.7539 23.2373 56.736 23.2485 56.7323 23.2658C56.5772 23.8695 56.0365 24.2941 55.4129 24.3003ZM12.213 17.5501H23.0128V22.95H12.213V17.5501ZM26.5989 47.9523C25.9871 47.9862 25.4625 48.3984 25.2851 48.9849C25.1776 49.3359 25.2171 49.7154 25.3957 50.0361C25.5737 50.3574 25.8753 50.5916 26.23 50.6856C26.7948 50.8728 27.17 51.4074 27.1551 52.0019C27.1885 52.6965 26.6663 53.2935 25.9735 53.3522C25.4069 53.3126 24.9378 52.8967 24.8315 52.3381C24.7431 51.9648 24.4997 51.6465 24.1622 51.4636C23.8248 51.2801 23.4256 51.2492 23.0641 51.3783L22.9133 51.4321C22.257 51.6663 21.8875 52.3609 22.0586 53.0364C22.0827 53.1396 22.0939 53.2459 22.0926 53.3522C22.1266 54.0468 21.6044 54.6437 20.911 54.7018C20.2189 54.6425 19.6973 54.0462 19.7313 53.3522C19.7301 53.2428 19.7424 53.134 19.7678 53.0277C19.934 52.3547 19.5638 51.6651 18.9106 51.4321L18.7592 51.3783C18.3977 51.2492 17.9979 51.2807 17.6611 51.4642C17.3237 51.6472 17.0802 51.966 16.9918 52.3393C16.8861 52.898 16.4171 53.3139 15.8498 53.3522C15.157 53.2935 14.6348 52.6965 14.6688 52.0019C14.6663 51.7522 14.7288 51.5063 14.8499 51.2881C15.1008 50.8425 15.0792 50.2938 14.793 49.8698C14.5075 49.4459 14.0063 49.2197 13.4996 49.2859C13.4372 49.2951 13.3748 49.3001 13.3117 49.3019C12.6357 49.2111 12.1314 48.6339 12.1314 47.9523C12.1314 47.27 12.6357 46.6928 13.3117 46.602C13.5126 46.6007 13.7085 46.6588 13.8766 46.7682C14.3141 47.042 14.8697 47.042 15.3072 46.7682C15.7484 46.4907 15.995 45.9883 15.9443 45.4692C15.9357 45.3981 15.9301 45.3265 15.9283 45.2548C15.8937 44.5602 16.4165 43.9626 17.1098 43.9045C17.6765 43.9434 18.1462 44.3599 18.2519 44.9186C18.3402 45.2918 18.5831 45.6095 18.9205 45.7924C19.2573 45.9759 19.6559 46.0068 20.0174 45.8783L20.1701 45.8245C20.8227 45.5909 21.1922 44.9013 21.026 44.2289C21.0007 44.1226 20.9883 44.0139 20.9895 43.9045C20.9549 43.2099 21.4777 42.6129 22.1705 42.5548C22.7446 42.59 23.2204 43.0133 23.3224 43.5794C23.4262 44.0417 23.7655 44.4155 24.2154 44.5645C24.6659 44.7134 25.1609 44.6152 25.5199 44.3055C25.8191 44.0435 26.2028 43.8995 26.6002 43.9008C27.6328 44.0139 28.4152 44.8864 28.4152 45.9259C28.4152 46.9647 27.6328 47.8373 26.6002 47.9504L26.5989 47.9523ZM44.6131 51.2999C44.6131 53.5369 42.7999 55.3501 40.5628 55.3501C38.3264 55.3501 36.5132 53.5369 36.5132 51.2999C36.5132 49.0634 38.3264 47.2502 40.5628 47.2502C42.7999 47.2502 44.6131 49.0634 44.6131 51.2999ZM40.5628 14.8717L43.6354 20.25H37.4902L40.5628 14.8717ZM40.5628 31.0499C42.7999 31.0499 44.6131 32.863 44.6131 35.1001C44.6131 37.3366 42.7999 39.1497 40.5628 39.1497C38.3264 39.1497 36.5132 37.3366 36.5132 35.1001C36.5132 32.863 38.3264 31.0499 40.5628 31.0499Z" fill="#2E67B2"/>
</g>
<defs>
<clipPath id="clip0">
<rect width="81" height="81" fill="white"/>
</clipPath>
</defs>
</svg>
