<svg width="81" height="81" viewBox="0 0 81 81" fill="none" xmlns="http://www.w3.org/2000/svg">
<g clip-path="url(#clip0)">
<path d="M76.95 40.5H75.6001V8.1H76.95C79.1867 8.1 81 6.28668 81 4.05C81 1.81332 79.1868 0 76.95 0H4.05C1.81317 0 0 1.81317 0 4.05C0 6.28683 1.81317 8.1 4.05 8.1H5.39995V40.5H4.05C1.81317 40.5 0 42.3133 0 44.55C0 46.7867 1.81317 48.6 4.05 48.6H76.95C79.1867 48.6 81 46.7867 81 44.55C81 42.3133 79.1868 40.5 76.95 40.5ZM4.05 5.39995C3.30486 5.399 2.701 4.79514 2.70005 4.05C2.701 3.30486 3.30486 2.701 4.05 2.70005H76.95C77.6956 2.70005 78.2999 3.30439 78.2999 4.05C78.2999 4.79561 77.6956 5.39995 76.95 5.39995H4.05ZM72.9 8.1V40.5H8.1V8.1H72.9ZM76.95 45.8999H4.05C3.30439 45.8999 2.70005 45.2956 2.70005 44.55C2.70005 43.8044 3.30439 43.2001 4.05 43.2001H76.95C77.6951 43.201 78.299 43.8049 78.2999 44.55C78.299 45.2951 77.6951 45.899 76.95 45.8999Z" fill="#2E67B2"/>
<path d="M22.9501 30.9597C23.6957 30.9597 24.3 30.3552 24.3 29.6098V23.0007L28.35 24.7216V32.7776L28.353 32.7924C28.3546 32.9638 28.3889 33.1334 28.4539 33.292C28.5468 33.4375 28.642 33.5813 28.7398 33.7237C28.8643 33.851 29.013 33.9525 29.1769 34.0221L35.8898 36.8724C38.8406 38.1146 42.1678 38.1134 45.1176 36.8691L51.8232 34.0219C51.9871 33.9523 52.1358 33.8509 52.2604 33.7235C52.3581 33.5813 52.4534 33.4373 52.5462 33.2918C52.6114 33.1331 52.6456 32.9635 52.6472 32.7922L52.65 32.7775V24.7215L57.9966 22.4493C58.8525 22.0516 59.4001 21.1935 59.4001 20.2497C59.4001 19.3059 58.8525 18.4478 57.9966 18.05L41.3378 10.9712C40.8026 10.7418 40.1967 10.7418 39.6615 10.9712L23.0034 18.05C22.1364 18.4351 21.5838 19.3013 21.6 20.2497V29.6095C21.6001 30.3552 22.2044 30.9597 22.9501 30.9597ZM49.95 31.8844L44.07 34.3809C41.7897 35.3416 39.2182 35.3429 36.937 34.3842L31.0497 31.8844V25.8691L39.662 29.5286C40.1972 29.758 40.8031 29.758 41.3383 29.5286L49.9498 25.8691V31.8844H49.95ZM40.5 13.5487L56.2689 20.25L50.7808 22.5822L50.769 22.5873L40.5 26.9512L30.231 22.5873L30.2192 22.5822L24.7311 20.25L40.5 13.5487Z" fill="#2E67B2"/>
<path d="M78.2999 72.9001H75.5999V71.1644C75.5652 67.7464 73.6038 64.6409 70.5325 63.141C72.6828 61.3054 73.4613 58.3242 72.483 55.6716C71.5048 53.019 68.977 51.2571 66.1498 51.2571C63.3225 51.2571 60.7948 53.019 59.8166 55.6716C58.8384 58.3242 59.6168 61.3054 61.7671 63.141C58.6957 64.6411 56.7343 67.7464 56.6997 71.1644V72.9001H49.9496V71.1644C49.915 67.7464 47.9536 64.6409 44.8822 63.141C47.0325 61.3054 47.811 58.3242 46.8327 55.6716C45.8545 53.019 43.3268 51.2571 40.4995 51.2571C37.6723 51.2571 35.1445 53.019 34.1663 55.6716C33.1882 58.3242 33.9665 61.3054 36.1168 63.141C33.0455 64.6411 31.0841 67.7464 31.0494 71.1644V72.9001H24.3V71.1644C24.2654 67.7464 22.304 64.6409 19.2326 63.141C21.3829 61.3054 22.1614 58.3242 21.1831 55.6716C20.2049 53.019 17.6771 51.2571 14.8499 51.2571C12.0226 51.2571 9.49488 53.019 8.51671 55.6716C7.53854 58.3242 8.3169 61.3054 10.4672 63.141C7.39584 64.6411 5.43444 67.7464 5.39979 71.1644V72.9001H2.70005C1.20946 72.9015 0.00142383 74.1095 0 75.6001V78.3002C0.00142383 79.7908 1.20946 80.9986 2.70005 81.0002H78.3001C79.7907 80.9988 80.9986 79.7908 81.0002 78.3002V75.6001C80.9986 74.1095 79.7905 72.9015 78.2999 72.9001ZM66.1499 54C68.3866 54 70.2 55.8132 70.2 58.05C70.2 60.2868 68.3868 62.1 66.1499 62.1C63.9142 62.0976 62.1023 60.2857 62.0999 58.05C62.0999 55.8133 63.9133 54 66.1499 54ZM59.4001 71.1644C59.6103 67.5904 62.57 64.7999 66.1501 64.7999C69.7302 64.7999 72.6898 67.5904 72.9002 71.1644V72.9001H59.4002V71.1644H59.4001ZM40.5 54C42.7367 54 44.55 55.8132 44.55 58.05C44.55 60.2868 42.7367 62.1 40.5 62.1C38.2643 62.0976 36.4524 60.2857 36.45 58.05C36.45 55.8133 38.2633 54 40.5 54ZM33.7499 71.1644C33.9602 67.5904 36.9199 64.7999 40.5 64.7999C44.0801 64.7999 47.0396 67.5904 47.2501 71.1644V72.9001H33.7501V71.1644H33.7499ZM14.8501 54C17.0867 54 18.9001 55.8132 18.9001 58.05C18.9001 60.2868 17.0869 62.1 14.8501 62.1C12.6143 62.0976 10.8024 60.2857 10.8001 58.05C10.8001 55.8133 12.6132 54 14.8501 54ZM8.1 71.1644C8.21359 67.5462 11.2313 64.7009 14.8501 64.8001C18.4686 64.7009 21.4864 67.5462 21.6001 71.1644V72.9001H8.1V71.1644ZM2.70005 78.3V75.6H78.3001L78.302 78.3H2.70005Z" fill="#2E67B2"/>
</g>
<defs>
<clipPath id="clip0">
<rect width="81" height="81" fill="white"/>
</clipPath>
</defs>
</svg>
