<svg width="81" height="81" viewBox="0 0 81 81" fill="none" xmlns="http://www.w3.org/2000/svg">
<g clip-path="url(#clip0)">
<path d="M56.1006 64.6734L44.4827 58.2082C43.2764 57.601 42.5178 56.363 42.5249 55.0124L42.5183 51.7732C45.0138 48.5054 46.8396 44.7769 47.8905 40.8018C47.9135 40.7028 47.925 40.6016 47.9249 40.5V37.7999H51.9749C54.2106 37.7976 56.0225 35.9857 56.0249 33.7499V25.6499C56.0196 23.9393 54.9383 22.4171 53.3248 21.8488V21.5999C53.3248 9.67064 43.6542 0 31.7249 0C19.7956 0 10.1248 9.67064 10.1248 21.5999V21.8488C8.51125 22.4171 7.42993 23.9393 7.42471 25.6499V33.7499C7.42993 35.4606 8.51125 36.9828 10.1248 37.5511V40.5C10.1279 43.481 12.5437 45.8968 15.5247 45.8999H17.3815C18.3651 47.9678 19.5521 49.9325 20.9248 51.7653V54.878C20.9297 56.1858 20.2142 57.3904 19.0632 58.0117L7.02398 64.585C3.10624 66.7135 0.669119 70.8171 0.674815 75.2757V79.6501C0.674656 80.0081 0.816881 80.3515 1.07016 80.6048C1.32329 80.8579 1.66675 81.0002 2.02492 81.0002H61.425C61.783 81.0003 62.1264 80.8581 62.3797 80.6048C62.6329 80.3517 62.7751 80.0082 62.7751 79.6501V75.5461C62.7953 70.9484 60.2095 66.7361 56.1006 64.6734ZM53.3248 25.6499V33.7499C53.324 34.4952 52.7202 35.0993 51.9749 35.0999H47.9249V24.3H51.9749C52.7202 24.3008 53.324 24.9047 53.3248 25.6499ZM11.4749 35.1001C10.7296 35.0993 10.1256 34.4952 10.1249 33.7501V25.6501C10.1257 24.9048 10.7296 24.3008 11.4749 24.3002H15.5249V35.1002H11.4749V35.1001ZM15.5249 43.2001C14.0344 43.1983 12.8266 41.9906 12.8248 40.5V37.7999H15.5249V40.5C15.5247 40.6016 15.5363 40.703 15.5592 40.8018C15.7522 41.6139 15.9905 42.4144 16.2727 43.1999H15.5249V43.2001ZM15.5182 21.5999H12.8248C12.8365 11.1666 21.2915 2.71176 31.7249 2.70005C42.1582 2.71176 50.6132 11.1668 50.6249 21.6001H47.9315C48.1748 18.4302 47.1582 15.2922 45.1024 12.8673C42.3307 9.70323 37.8296 8.10016 31.725 8.10016C25.6204 8.10016 21.1194 9.70323 18.3477 12.8673C16.2915 15.2922 15.2749 18.4302 15.5182 21.5999ZM60.0749 78.2999H3.37487V75.2756C3.36981 71.8062 5.26603 68.6127 8.31476 66.9568L20.3501 60.3861C22.3728 59.2934 23.6312 57.1771 23.6249 54.878V51.7653C23.6276 51.1767 23.4352 50.6036 23.0778 50.1358C22.0751 48.796 21.1789 47.3798 20.3977 45.8999H26.5738C27.142 47.5135 28.6643 48.5946 30.3749 48.6H34.4249C36.6616 48.6 38.4749 46.7867 38.4749 44.55C38.4749 42.3133 36.6616 40.5 34.4249 40.5H30.3749C28.6643 40.5052 27.142 41.5865 26.5736 43.2001H19.1504C18.7742 42.2716 18.4649 41.3173 18.2248 40.3445V21.5999C18.2248 21.5409 18.2208 21.4818 18.2129 21.4232C18.015 18.9673 18.7929 16.5322 20.3776 14.6455C22.6141 12.0945 26.4322 10.7999 31.7247 10.7999C36.9975 10.7999 40.8075 12.0853 43.0481 14.6192C44.6361 16.5155 45.4215 18.9567 45.2365 21.4232C45.2286 21.4818 45.2247 21.5408 45.2247 21.5999V40.3443C44.253 43.8903 42.6051 47.2151 40.3718 50.1358C40.0142 50.6036 39.8219 51.1767 39.8247 51.7653V55.0124C39.8097 57.3646 41.1228 59.5241 43.2182 60.5931L54.8388 67.0596C58.057 68.6613 60.0869 71.9513 60.0747 75.5459L60.0749 78.2999ZM29.0248 44.55C29.0256 43.8047 29.6295 43.2007 30.3748 43.2001H34.4248C35.1704 43.2001 35.7747 43.8045 35.7747 44.55C35.7747 45.2955 35.1704 45.8999 34.4248 45.8999H30.3748C29.6296 45.8993 29.0256 45.2953 29.0248 44.55Z" fill="#2E67B2"/>
<path d="M74.9247 37.9292L74.9576 21.4378C78.6858 18.9299 80.725 14.5686 80.2591 10.0997C79.7932 5.6306 76.8983 1.78389 72.7328 0.0988733C72.3165 -0.0697713 71.8435 -0.0205701 71.4709 0.23034C71.0984 0.48125 70.8748 0.900805 70.8745 1.34994V9.44994C70.8737 10.1952 70.2699 10.7993 69.5246 10.7999H66.8245C66.0792 10.7991 65.4752 10.1952 65.4746 9.44994V1.34994C65.4742 0.900805 65.2507 0.481092 64.8781 0.23034C64.5056 -0.0205701 64.0327 -0.0697713 63.6163 0.0988733C59.4446 1.78469 56.5475 5.63946 56.088 10.1153C55.6286 14.5912 57.6824 18.9542 61.4246 21.4523L61.3917 37.9621C58.0371 40.2159 56.0249 43.9917 56.0246 48.033C56.0127 52.9882 59.0199 57.4513 63.6169 59.301C64.0332 59.4695 64.5059 59.4201 64.8784 59.1694C65.2509 58.9185 65.4744 58.4989 65.4746 58.0499V49.9499C65.4753 49.2046 66.0792 48.6006 66.8245 48.6H69.5246C70.2699 48.6008 70.8739 49.2046 70.8745 49.9499V58.0499C70.8747 58.4991 71.0981 58.9188 71.4705 59.1695C71.843 59.4205 72.3159 59.4697 72.732 59.301C76.9046 57.6111 79.8016 53.7533 80.2609 49.2749C80.7208 44.7966 78.6673 40.4312 74.9247 37.9292ZM73.5747 55.7943V49.9499C73.5723 47.7142 71.7604 45.9023 69.5247 45.8999H66.8247C64.5889 45.9023 62.777 47.7142 62.7747 49.9499V55.7943C60.2151 54.0126 58.6997 51.0827 58.725 47.9642C58.7503 44.8457 60.313 41.9406 62.9012 40.2008C63.6585 39.7001 64.1172 38.8556 64.1246 37.9477V21.4523C64.117 20.5446 63.6584 19.6999 62.9012 19.1992C60.313 17.4595 58.7503 14.5544 58.725 11.4359C58.6997 8.31737 60.2151 5.38729 62.7747 3.60576V9.4501C62.777 11.6858 64.5889 13.4977 66.8247 13.5001H69.5247C71.7604 13.4977 73.5723 11.6858 73.5747 9.4501V3.60576C76.1343 5.38729 77.6497 8.31737 77.6244 11.4359C77.5991 14.5544 76.0364 17.4595 73.4482 19.1992C72.6908 19.6999 72.2322 20.5444 72.2248 21.4523V37.9477C72.2324 38.8555 72.691 39.7001 73.4482 40.2008C76.0364 41.9406 77.5991 44.8457 77.6244 47.9642C77.6497 51.0827 76.1343 54.0128 73.5747 55.7943Z" fill="#2E67B2"/>
</g>
<defs>
<clipPath id="clip0">
<rect width="81" height="81" fill="white"/>
</clipPath>
</defs>
</svg>
