<svg width="100" height="100" viewBox="0 0 100 100" fill="none" xmlns="http://www.w3.org/2000/svg">
<path d="M98.3334 90.8336H96.6668V39.1664C96.6668 38.2459 95.9207 37.4998 95.0002 37.4998H86.6668V32.4998H91.6668C92.5873 32.4998 93.3334 31.7537 93.3334 30.8332V7.49981C93.3334 6.5793 92.5873 5.83321 91.6668 5.83321H58.3334C57.4129 5.83321 56.6668 6.5793 56.6668 7.49981V30.8332C56.6668 31.7537 57.4129 32.4998 58.3334 32.4998H63.3334V37.4998H53.3334V15.8332C53.3334 14.9127 52.5871 14.1666 51.6668 14.1666H5C4.07949 14.1666 3.3334 14.9127 3.3334 15.8332V90.8336H1.6666C0.746094 90.8336 0 91.5797 0 92.5002C0 93.4207 0.746094 94.1668 1.6666 94.1668H98.3332C99.2537 94.1668 99.9998 93.4207 99.9998 92.5002C99.9998 91.5797 99.2539 90.8336 98.3334 90.8336ZM31.6666 90.8332H25V80.8332H31.6666V90.8332ZM60 9.16641H90V29.1664H60V9.16641ZM66.6666 32.4998H83.3332V37.4998H66.6666V32.4998ZM64.9934 40.8332C64.9955 40.8332 64.9977 40.8336 65 40.8336C65.0023 40.8336 65.0043 40.8332 65.0066 40.8332H84.9934C84.9955 40.8332 84.9977 40.8336 85 40.8336C85.0023 40.8336 85.0043 40.8332 85.0066 40.8332H93.3334V90.8332H53.3334V40.8332H64.9934ZM6.6666 17.4998H50V39.1664V90.833H35V79.1664C35 78.2459 34.2539 77.4998 33.3334 77.4998H23.3334C22.4129 77.4998 21.6668 78.2459 21.6668 79.1664V90.833H6.6668V17.4998H6.6666Z" fill="#7FA2D0"/>
<path d="M78.3334 12.5002C77.4129 12.5002 76.6668 13.2463 76.6668 14.1668V17.5002H73.3334V14.1668C73.3334 13.2463 72.5873 12.5002 71.6668 12.5002C70.7463 12.5002 70.0002 13.2463 70.0002 14.1668V24.1668C70.0002 25.0873 70.7463 25.8334 71.6668 25.8334C72.5873 25.8334 73.3334 25.0873 73.3334 24.1668V20.8334H76.6668V24.1668C76.6668 25.0873 77.4131 25.8334 78.3334 25.8334C79.2537 25.8334 80 25.0873 80 24.1668V14.1668C80 13.2463 79.2539 12.5002 78.3334 12.5002Z" fill="#7FA2D0"/>
<path d="M13.3336 35.8332H23.3336C24.2541 35.8332 25.0002 35.0871 25.0002 34.1666V24.1666C25.0002 23.2461 24.2541 22.5 23.3336 22.5H13.3336C12.4131 22.5 11.667 23.2461 11.667 24.1666V34.1666C11.6668 35.0869 12.4131 35.8332 13.3336 35.8332ZM15.0002 25.8332H21.6668V32.4998H15.0002V25.8332Z" fill="#7FA2D0"/>
<path d="M33.3333 35.8332H43.3333C44.2539 35.8332 44.9999 35.0871 44.9999 34.1666V24.1666C44.9999 23.2461 44.2539 22.5 43.3333 22.5H33.3333C32.4128 22.5 31.6667 23.2461 31.6667 24.1666V34.1666C31.6666 35.0869 32.4128 35.8332 33.3333 35.8332ZM34.9999 25.8332H41.6665V32.4998H34.9999V25.8332Z" fill="#7FA2D0"/>
<path d="M13.3336 54.1666H23.3336C24.2541 54.1666 25.0002 53.4205 25.0002 52.5V42.5C25.0002 41.5795 24.2541 40.8334 23.3336 40.8334H13.3336C12.4131 40.8334 11.667 41.5797 11.667 42.5V52.5C11.6668 53.4203 12.4131 54.1666 13.3336 54.1666ZM15.0002 44.1666H21.6668V50.8332H15.0002V44.1666Z" fill="#7FA2D0"/>
<path d="M33.3333 54.1666H43.3333C44.2539 54.1666 44.9999 53.4205 44.9999 52.5V42.5C44.9999 41.5795 44.2539 40.8334 43.3333 40.8334H33.3333C32.4128 40.8334 31.6667 41.5797 31.6667 42.5V52.5C31.6666 53.4203 32.4128 54.1666 33.3333 54.1666ZM34.9999 44.1666H41.6665V50.8332H34.9999V44.1666Z" fill="#7FA2D0"/>
<path d="M23.3336 72.4998C24.2541 72.4998 25.0002 71.7537 25.0002 70.8332V60.8332C25.0002 59.9127 24.2541 59.1666 23.3336 59.1666H13.3336C12.4131 59.1666 11.667 59.9127 11.667 60.8332V70.8332C11.667 71.7537 12.4131 72.4998 13.3336 72.4998H23.3336ZM15.0002 62.4998H21.6668V69.1664H15.0002V62.4998Z" fill="#7FA2D0"/>
<path d="M60.0001 62.4998H70.0001C70.9206 62.4998 71.6667 61.7535 71.6667 60.8332V50.8332C71.6667 49.9127 70.9206 49.1666 70.0001 49.1666H60.0001C59.0796 49.1666 58.3335 49.9127 58.3335 50.8332V60.8332C58.3335 61.7537 59.0796 62.4998 60.0001 62.4998ZM61.6667 52.4998H68.3333V59.1664H61.6667V52.4998Z" fill="#7FA2D0"/>
<path d="M60.0001 80.8332H70.0001C70.9206 80.8332 71.6667 80.0871 71.6667 79.1666V69.1666C71.6667 68.2461 70.9206 67.5 70.0001 67.5H60.0001C59.0796 67.5 58.3335 68.2461 58.3335 69.1666V79.1666C58.3335 80.0869 59.0796 80.8332 60.0001 80.8332ZM61.6667 70.8332H68.3333V77.4998H61.6667V70.8332Z" fill="#7FA2D0"/>
<path d="M76.6666 62.4998H86.6666C87.5871 62.4998 88.3332 61.7535 88.3332 60.8332V50.8332C88.3332 49.9127 87.5871 49.1666 86.6666 49.1666H76.6666C75.7461 49.1666 75 49.9127 75 50.8332V60.8332C75 61.7537 75.7463 62.4998 76.6666 62.4998ZM78.3334 52.4998H85V59.1664H78.3334V52.4998Z" fill="#7FA2D0"/>
<path d="M76.6666 80.8332H86.6666C87.5871 80.8332 88.3332 80.0871 88.3332 79.1666V69.1666C88.3332 68.2461 87.5871 67.5 86.6666 67.5H76.6666C75.7461 67.5 75 68.2461 75 69.1666V79.1666C75 80.0869 75.7463 80.8332 76.6666 80.8332ZM78.3334 70.8332H85V77.4998H78.3334V70.8332Z" fill="#7FA2D0"/>
<path d="M33.3333 72.4998H43.3333C44.2539 72.4998 44.9999 71.7537 44.9999 70.8332V60.8332C44.9999 59.9127 44.2539 59.1666 43.3333 59.1666H33.3333C32.4128 59.1666 31.6667 59.9127 31.6667 60.8332V70.8332C31.6666 71.7537 32.4128 72.4998 33.3333 72.4998ZM34.9999 62.4998H41.6665V69.1664H34.9999V62.4998Z" fill="#7FA2D0"/>
</svg>
