<svg width="100" height="100" viewBox="0 0 100 100" fill="none" xmlns="http://www.w3.org/2000/svg">
<g clip-path="url(#clip0)">
<path d="M95.4667 20.0002L53.7667 0.816859C51.3726 -0.266976 48.6275 -0.266976 46.2334 0.816859L4.53338 20.0002C1.95566 20.2418 -0.0112505 22.4112 4.8434e-05 25.0002V95.0002C4.8434e-05 97.7616 2.23862 100 5.00005 100H95C97.7615 100 100 97.7616 100 95.0002V25.0002C100.011 22.4112 98.0444 20.2418 95.4667 20.0002ZM47.6334 3.85019C49.1371 3.16632 50.863 3.16632 52.3667 3.85019L87.3667 20.0002H12.6L47.6334 3.85019ZM96.6667 95.0002C96.6667 95.9207 95.9205 96.6669 95 96.6669H5.00005C4.07957 96.6669 3.33338 95.9207 3.33338 95.0002V25.0002C3.33338 24.0797 4.07957 23.3335 5.00005 23.3335H95C95.9205 23.3335 96.6667 24.0797 96.6667 25.0002V95.0002Z" fill="#7FA2D0"/>
<path d="M91.6668 26.6667H8.33341C7.41294 26.6667 6.66675 27.4129 6.66675 28.3333V91.6667C6.66675 92.5872 7.41294 93.3333 8.33341 93.3333H91.6668C92.5872 93.3333 93.3334 92.5872 93.3334 91.6667V28.3333C93.3334 27.4129 92.5872 26.6667 91.6668 26.6667ZM90.0001 90H10.0001V30H90.0001V90Z" fill="#7FA2D0"/>
<path d="M69.8167 61.4667C69.1359 62.0816 68.2659 62.4461 67.3501 62.5C64.0167 63.05 63.0501 64.0667 62.5001 67.35C62.4462 68.2658 62.0817 69.1359 61.4667 69.8167C59.5167 72.55 59.4834 74.0834 61.4667 76.85C62.0805 77.5315 62.4449 78.4012 62.5001 79.3167C63.0334 82.5667 64.0501 83.6167 67.3501 84.1667C68.2659 84.2206 69.1359 84.5851 69.8167 85.2C72.5501 87.1667 74.1001 87.1667 76.8501 85.2C77.5308 84.5851 78.4009 84.2206 79.3167 84.1667C82.6501 83.6167 83.6167 82.6 84.1667 79.3167C84.2206 78.4009 84.5851 77.5308 85.2001 76.85C87.1501 74.1167 87.1834 72.5833 85.2001 69.8167C84.5862 69.1352 84.2219 68.2655 84.1667 67.35C83.6334 64.1 82.6167 63.05 79.3167 62.5C78.4009 62.4461 77.5308 62.0816 76.8501 61.4667C74.1167 59.5 72.5667 59.5 69.8167 61.4667ZM76.6667 65.25C77.9834 65.8 80.0001 65.8167 80.3834 66.2667C80.7667 66.7167 80.8167 68.5834 81.4001 69.9834C81.9834 71.3834 83.3334 72.6 83.3334 73.3333C83.3334 74.0667 81.9834 75.3167 81.4167 76.6667C80.8501 78.0167 80.8501 80 80.4001 80.3833C79.9501 80.7667 78.0834 80.8167 76.6834 81.4C75.2834 81.9833 74.0667 83.3333 73.3334 83.3333C72.6001 83.3333 71.3667 81.9833 70.0001 81.4167C68.6334 80.85 66.6667 80.85 66.2834 80.4C65.9001 79.95 65.8501 78.0833 65.2667 76.6833C64.6834 75.2833 63.3334 74.0667 63.3334 73.3333C63.3334 72.6 64.6834 71.35 65.2501 70C65.8167 68.65 65.8167 66.6667 66.2667 66.2833C66.7167 65.9 68.5834 65.85 69.9834 65.2667C71.3834 64.6833 72.6001 63.3333 73.3334 63.3333C74.0667 63.3333 75.3001 64.6834 76.6667 65.25Z" fill="#7FA2D0"/>
<path d="M28.3334 40H71.6668C72.5872 40 73.3334 39.2538 73.3334 38.3333C73.3334 37.4128 72.5872 36.6667 71.6668 36.6667H28.3334C27.4129 36.6667 26.6667 37.4128 26.6667 38.3333C26.6667 39.2538 27.4129 40 28.3334 40Z" fill="#7FA2D0"/>
<path d="M58.3333 46.6667C59.2538 46.6667 60 45.9205 60 45C60 44.0795 59.2538 43.3333 58.3333 43.3333H41.6667C40.7462 43.3333 40 44.0795 40 45C40 45.9205 40.7462 46.6667 41.6667 46.6667H58.3333Z" fill="#7FA2D0"/>
<path d="M31.6667 51.6667C31.6667 52.5871 32.4129 53.3333 33.3334 53.3333H66.6668C67.5872 53.3333 68.3334 52.5871 68.3334 51.6667C68.3334 50.7462 67.5872 50 66.6668 50H33.3334C32.4129 50 31.6667 50.7462 31.6667 51.6667Z" fill="#7FA2D0"/>
<path d="M68.3335 73.3333C68.3335 76.0948 70.5721 78.3333 73.3335 78.3333C76.0949 78.3333 78.3335 76.0948 78.3335 73.3333C78.3335 70.5719 76.0949 68.3333 73.3335 68.3333C70.5721 68.3333 68.3335 70.5719 68.3335 73.3333ZM75.0002 73.3333C75.0002 74.2538 74.254 75 73.3335 75C72.413 75 71.6668 74.2538 71.6668 73.3333C71.6668 72.4129 72.413 71.6667 73.3335 71.6667C74.254 71.6667 75.0002 72.4129 75.0002 73.3333Z" fill="#7FA2D0"/>
<path d="M58.3334 83.3334H33.3334C32.4129 83.3334 31.6667 84.0796 31.6667 85C31.6667 85.9205 32.4129 86.6667 33.3334 86.6667H58.3334C59.2539 86.6667 60.0001 85.9205 60.0001 85C60.0001 84.0796 59.2539 83.3334 58.3334 83.3334Z" fill="#7FA2D0"/>
<path d="M32.2668 76.2C31.8732 76.4184 31.4669 76.6132 31.0502 76.7833C30.4964 77.0036 30.1023 77.5027 30.0162 78.0924C29.9301 78.6821 30.1652 79.273 30.6328 79.6424C31.1005 80.0118 31.7298 80.1036 32.2835 79.8833C33.4097 79.4271 34.4919 78.8693 35.5168 78.2167C38.513 79.4859 41.7476 80.0942 45.0002 80C52.3502 80 56.6669 76.2667 56.6669 70C56.6669 69.0795 55.9207 68.3333 55.0002 68.3333C54.0797 68.3333 53.3335 69.0795 53.3335 70C53.3335 75.5167 48.7668 76.6667 45.0002 76.6667C42.8011 76.6963 40.6117 76.3699 38.5168 75.7C40.5008 73.7583 41.6336 71.1091 41.6668 68.3333C41.6668 59.3 35.7335 58.3333 33.1668 58.3333C25.4668 58.3333 23.9335 69.8333 32.2668 76.2ZM33.1668 61.6667C35.3835 61.6667 38.3335 62.3667 38.3335 68.3333C38.2007 70.6494 37.0545 72.7893 35.2002 74.1833C28.4502 69.9 28.8168 61.6667 33.1668 61.6667Z" fill="#7FA2D0"/>
</g>
<defs>
<clipPath id="clip0">
<rect width="100" height="100" fill="white"/>
</clipPath>
</defs>
</svg>
