<svg width="100" height="100" viewBox="0 0 100 100" fill="none" xmlns="http://www.w3.org/2000/svg">
<g clip-path="url(#clip0)">
<path d="M84.0642 88.0307C83.2776 86.1916 81.4697 84.9991 79.4694 85H75.8106L65.5786 71.9722L65.8692 71.7757C77.8081 64.216 85.0315 51.0579 85.0001 36.927V13.164C84.9948 10.9646 83.2278 9.17532 81.0287 9.14233C69.2327 8.81266 59.3302 5.92566 52.3919 0.792325V0.790992C50.9727 -0.267614 49.0264 -0.267275 47.6076 0.791826C40.6691 5.92516 30.7659 8.81266 18.9714 9.14183C16.7721 9.17492 15.0052 10.9645 15 13.164V36.927C14.9631 51.0354 22.1635 64.1773 34.0739 71.7398L34.4202 71.9732L24.1895 85H20.5314C18.5308 84.9986 16.7225 86.1912 15.9359 88.0307L12.7962 95.354C12.3549 96.384 12.4607 97.5668 13.0777 98.5022C13.6948 99.4375 14.7405 100 15.861 100H84.1391C85.2595 99.9999 86.305 99.4368 86.9216 98.5013C87.5383 97.5657 87.6437 96.383 87.2022 95.3532L84.0642 88.0307ZM18.3334 36.927V13.164C18.3486 12.7734 18.6734 12.4667 19.0642 12.474C31.5447 12.1257 42.1001 9.01283 49.5899 3.47166C49.8319 3.28753 50.167 3.28719 50.4094 3.47083C57.8989 9.01283 68.4547 12.1257 80.9359 12.474C81.3266 12.4669 81.6514 12.7735 81.6667 13.164V36.927C81.6974 49.9272 75.0475 62.0316 64.0586 68.9778L50.3834 78.2252C50.1694 78.3605 49.9002 78.374 49.6737 78.2608L35.8855 68.942C24.9247 61.9931 18.2973 49.9049 18.3334 36.927ZM37.1894 73.8457L47.8614 81.0588C48.4978 81.4554 49.2324 81.6659 49.9822 81.6667C50.7649 81.6627 51.5307 81.4397 52.1932 81.023L62.8099 73.8443L71.5716 85H28.4285L37.1894 73.8457ZM15.8602 96.6667L18.999 89.344C19.2616 88.7309 19.8644 88.3333 20.5314 88.3333H79.4694C80.1363 88.333 80.739 88.7308 81.0011 89.344L84.1456 96.6667H15.8602Z" fill="#7FA2D0"/>
<path d="M58.9266 63.4167C57.791 63.0436 56.6824 62.593 55.6086 62.0682C56.4708 61.1096 57.2383 60.0699 57.9002 58.9635C58.3533 58.1749 58.0905 57.1688 57.3097 56.7024C56.5289 56.2361 55.5184 56.4818 55.0389 57.2545C54.1466 58.7386 53.0334 60.0781 51.7374 61.2267C51.341 61.5804 51.137 62.1019 51.1882 62.6306C51.2393 63.1594 51.5395 63.6321 51.9963 63.9033C53.8563 65.0083 55.8314 65.907 57.8864 66.5833C58.7571 66.8586 59.6873 66.3819 59.9722 65.5143C60.2572 64.6467 59.7909 63.7113 58.9266 63.4167Z" fill="#7FA2D0"/>
<path d="M61.2623 54.2833C61.0243 55.9673 60.5723 57.6139 59.9171 59.1833C59.7256 59.6411 59.7482 60.1604 59.9787 60.5999C60.2093 61.0393 60.6238 61.353 61.1093 61.4555C62.6954 61.7919 64.3123 61.9613 65.9336 61.9608C66.2745 61.9608 66.616 61.9533 66.9581 61.9382C67.8777 61.8977 68.5904 61.1194 68.55 60.1998C68.5095 59.2802 67.7312 58.5676 66.8116 58.608C65.7772 58.6552 64.7406 58.6204 63.7116 58.5038C64.099 57.2777 64.384 56.0215 64.5636 54.7482C64.6724 53.8472 64.0404 53.0248 63.1418 52.898C62.2432 52.7713 61.4083 53.3868 61.2636 54.2827L61.2623 54.2833Z" fill="#7FA2D0"/>
<path d="M66.6677 55.621C66.9717 55.8884 67.3628 56.036 67.7677 56.036C67.8591 56.0361 67.9503 56.0284 68.0404 56.0132C69.9035 55.6986 71.718 55.1436 73.4384 54.362C74.2619 53.9749 74.6227 52.9988 74.249 52.1691C73.8753 51.3394 72.9051 50.9629 72.0695 51.3232C71.2138 51.7099 70.3309 52.0333 69.4279 52.2908C69.3767 51.0416 69.238 49.7975 69.0129 48.5677C68.8337 47.6757 67.9724 47.0922 67.0776 47.2566C66.1828 47.4211 65.5852 48.2726 65.7349 49.17C66.0426 50.8647 66.1656 52.5878 66.1015 54.309C66.0838 54.8091 66.2917 55.2908 66.6677 55.621Z" fill="#7FA2D0"/>
<path d="M74.8511 42.4943C74.1767 43.1538 73.461 43.7698 72.7084 44.3383C72.3201 43.2478 71.8616 42.1835 71.3356 41.1523C71.0712 40.6102 70.5346 40.2533 69.9324 40.2189C69.3303 40.1846 68.7566 40.4782 68.4323 40.9868C68.108 41.4953 68.0838 42.1394 68.3689 42.6708C69.1339 44.18 69.7399 45.7647 70.1773 47.3992C70.3136 47.9018 70.6771 48.3117 71.1597 48.5074C71.6423 48.703 72.1886 48.6618 72.6364 48.396C74.2838 47.4077 75.8086 46.2282 77.1791 44.882C77.6056 44.4662 77.7779 43.8545 77.6311 43.2772C77.4843 42.7 77.0407 42.2449 76.4674 42.0834C75.894 41.9219 75.2781 42.0786 74.8516 42.4943H74.8511Z" fill="#7FA2D0"/>
<path d="M75.2001 33.0062C74.7142 33.9109 74.177 34.7871 73.5913 35.6307C72.9614 34.7843 72.2755 33.9812 71.5381 33.2267C70.8902 32.59 69.8518 32.5895 69.2032 33.2254C68.5546 33.8614 68.5347 34.8997 69.1585 35.56C70.2731 36.7091 71.2558 37.9792 72.0881 39.3467C72.3677 39.8018 72.8487 40.0951 73.3813 40.1352C73.4236 40.1385 73.466 40.1402 73.5075 40.1402C73.9974 40.14 74.4625 39.9246 74.7795 39.551C76.0667 38.0171 77.1908 36.3534 78.1335 34.5867C78.5601 33.7775 78.2548 32.7757 77.4495 32.3419C76.6441 31.9082 75.6396 32.2046 75.1988 33.0062H75.2001Z" fill="#7FA2D0"/>
<path d="M68.1276 28.5588C69.4674 29.2244 70.7177 30.0564 71.8491 31.0352C72.151 31.2933 72.5352 31.4352 72.9324 31.4352C73.5976 31.4349 74.1989 31.0392 74.4623 30.4285C75.2811 28.5181 75.91 26.5318 76.3398 24.4983C76.5322 23.5981 75.9583 22.7123 75.058 22.5199C74.1578 22.3275 73.272 22.9014 73.0796 23.8017C72.8433 24.9126 72.5425 26.0089 72.1788 27.085C71.3561 26.5145 70.4918 26.0064 69.5933 25.5648C68.7684 25.1701 67.7795 25.5137 67.3772 26.3348C66.9748 27.156 67.3092 28.148 68.1266 28.558L68.1276 28.5588Z" fill="#7FA2D0"/>
<path d="M44.9611 57.2542C44.4796 56.4861 43.4725 56.2436 42.6942 56.7085C41.9159 57.1734 41.652 58.1751 42.1001 58.9632C42.7621 60.0695 43.5295 61.1093 44.3917 62.0678C43.3179 62.5927 42.2093 63.0433 41.0737 63.4163C40.5018 63.5972 40.0711 64.0714 39.9461 64.6581C39.821 65.2448 40.021 65.8535 40.4695 66.2518C40.9181 66.6501 41.5461 66.7766 42.1139 66.583C44.169 65.9065 46.1441 65.0076 48.0041 63.9023C48.4609 63.6311 48.761 63.1584 48.8122 62.6296C48.8633 62.1009 48.6593 61.5794 48.2629 61.2257C46.9669 60.0773 45.8535 58.7381 44.9611 57.2542Z" fill="#7FA2D0"/>
<path d="M40.0212 60.6013C40.2517 60.1619 40.2744 59.6425 40.0831 59.1847C39.4279 57.6153 38.9759 55.9686 38.7379 54.2847C38.6656 53.6857 38.2751 53.1725 37.7171 52.9431C37.159 52.7136 36.5206 52.8037 36.0478 53.1785C35.575 53.5534 35.3417 54.1545 35.4379 54.7502C35.6175 56.0235 35.9025 57.2797 36.2899 58.5058C35.2609 58.6224 34.2244 58.6572 33.1899 58.61C32.2772 58.5882 31.51 59.2907 31.4516 60.2018C31.4321 60.6434 31.5889 61.0747 31.8875 61.4007C32.186 61.7267 32.6018 61.9207 33.0434 61.9402C33.3853 61.9548 33.7268 61.9624 34.0679 61.9628C35.6892 61.9633 37.3062 61.794 38.8922 61.4575C39.377 61.3539 39.7907 61.0402 40.0212 60.6013Z" fill="#7FA2D0"/>
<path d="M32.2324 56.036C32.6848 56.0358 33.1178 55.8518 33.4319 55.5261C33.746 55.2005 33.9143 54.7612 33.8982 54.309C33.8342 52.5878 33.9571 50.8647 34.2649 49.17C34.4145 48.2726 33.8169 47.4211 32.9221 47.2566C32.0273 47.0922 31.166 47.6757 30.9869 48.5677C30.7617 49.7975 30.6231 51.0416 30.5719 52.2908C29.6688 52.0333 28.7859 51.7099 27.9302 51.3232C27.0946 50.9629 26.1244 51.3394 25.7507 52.1691C25.377 52.9988 25.7378 53.9749 26.5614 54.362C28.2817 55.1436 30.0962 55.6986 31.9594 56.0132C32.0496 56.0284 32.1409 56.0361 32.2324 56.036Z" fill="#7FA2D0"/>
<path d="M28.2146 48.6295C28.9671 48.6296 29.6264 48.1255 29.8234 47.3992C30.2608 45.7647 30.8668 44.18 31.6318 42.6708C32.0297 41.8548 31.7013 40.8703 30.8931 40.4567C30.0849 40.043 29.0943 40.3523 28.6651 41.1523C28.1391 42.1835 27.6805 43.2478 27.2923 44.3383C26.5396 43.7697 25.824 43.1538 25.1496 42.4943C24.7231 42.0786 24.1072 41.9219 23.5338 42.0834C22.9605 42.2449 22.5169 42.7 22.3701 43.2772C22.2233 43.8545 22.3956 44.4662 22.8221 44.882C24.1926 46.2282 25.7174 47.4077 27.3648 48.396C27.622 48.5487 27.9155 48.6293 28.2146 48.6295Z" fill="#7FA2D0"/>
<path d="M26.4934 40.1408C26.5349 40.1408 26.5767 40.1392 26.6195 40.1358C27.1521 40.0957 27.6331 39.8024 27.9127 39.3473C28.7451 37.9799 29.7277 36.7098 30.8424 35.5607C31.4662 34.9003 31.4463 33.8621 30.7977 33.2261C30.1491 32.5901 29.1106 32.5907 28.4627 33.2273C27.7253 33.9819 27.0394 34.785 26.4095 35.6313C25.8238 34.7878 25.2867 33.9115 24.8007 33.0068C24.3599 32.2053 23.3554 31.9089 22.55 32.3426C21.7447 32.7764 21.4394 33.7782 21.866 34.5873C22.8091 36.3543 23.9336 38.0183 25.2214 39.5523C25.5383 39.9259 26.0035 40.1411 26.4934 40.1408Z" fill="#7FA2D0"/>
<path d="M25.5372 30.4288C25.7469 30.915 26.1752 31.2726 26.6909 31.3923C27.2067 31.5119 27.7487 31.3794 28.151 31.0352C29.2824 30.0564 30.5328 29.2244 31.8725 28.5588C32.6899 28.1489 33.0244 27.1568 32.622 26.3357C32.2196 25.5145 31.2307 25.1709 30.4059 25.5657C29.5073 26.0072 28.6431 26.5153 27.8204 27.0858C27.4569 26.0098 27.1564 24.9135 26.9204 23.8025C26.728 22.9022 25.8422 22.3284 24.9419 22.5207C24.0417 22.7131 23.4678 23.5989 23.6602 24.4992C24.0899 26.5325 24.7185 28.5186 25.5372 30.4288Z" fill="#7FA2D0"/>
</g>
<defs>
<clipPath id="clip0">
<rect width="100" height="100" fill="white"/>
</clipPath>
</defs>
</svg>
