<svg width="100" height="100" viewBox="0 0 100 100" fill="none" xmlns="http://www.w3.org/2000/svg">
<g clip-path="url(#clip0)">
<path d="M98.334 83.3338H97.2109C97.9777 81.5592 98.3607 79.642 98.334 77.7088C98.334 71.0019 94.2882 66.6678 88.0261 66.6678C84.9272 66.6563 81.9853 68.0273 80.001 70.4076C78.0174 68.0273 75.0748 66.6563 71.9766 66.6678C68.9554 66.5472 66.0472 67.8244 64.0918 70.1299C61.597 67.4803 58.4691 65.5081 55.0016 64.4011V63.3338C55.0016 62.4137 54.2555 61.6676 53.3354 61.6676C52.4145 61.6676 51.6684 62.4137 51.6684 63.3338V63.6176C50.566 63.4383 49.4521 63.3437 48.3352 63.3338H41.6688V57.544C50.7552 55.6047 58.0739 48.8879 60.7853 40.0014H63.335C66.0952 39.9984 68.3321 37.7615 68.3344 35.0012C68.3321 32.8872 66.9947 31.0043 64.9989 30.3055C65.0012 29.7844 65.0012 29.2946 65.0012 29.1687C64.7502 12.8399 51.3319 -0.206032 35.0024 0.0022459C18.6728 -0.206032 5.2546 12.8399 5.00284 29.1687C5.00284 29.2946 5.00284 29.7821 5.00589 30.3032C4.30782 30.5404 3.67535 30.9356 3.15581 31.4582C2.1991 32.3882 1.66277 33.6676 1.66964 35.0012C1.67269 37.7615 3.90957 39.9984 6.66982 40.0014H9.21873C11.9294 48.8887 19.2489 55.6054 28.336 57.544V63.3338H21.6696C19.9851 63.3399 18.3066 63.5436 16.6694 63.9396V63.3338C16.6694 62.4137 15.9233 61.6676 15.0024 61.6676C14.0824 61.6676 13.3362 62.4137 13.3362 63.3338V65.0054C5.2691 68.3752 0.012573 76.2577 0.00341797 85V95.0004C0.00646965 97.7599 2.24259 99.9967 5.00284 99.9998H65.0012C67.7614 99.9967 69.9983 97.7599 70.0014 95.0004V91.7343C73.2545 94.744 78.643 99.3643 78.9176 99.5985C79.5417 100.133 80.4618 100.133 81.0858 99.5985C81.4162 99.3155 89.1919 92.649 91.6813 90.1299C92.0109 89.7965 92.3649 89.4631 92.7273 89.1183C93.5611 88.3469 94.35 87.5283 95.09 86.667H98.334C99.2548 86.667 100.001 85.9209 100.001 85C100.001 84.0799 99.2548 83.3338 98.334 83.3338ZM71.9766 70.001C74.7391 70.0445 77.2514 71.6107 78.5072 74.0719C78.8192 74.6006 79.3868 74.9256 80.001 74.9256C80.6151 74.9256 81.1835 74.6006 81.4955 74.0719C82.7505 71.6107 85.2628 70.0445 88.0261 70.001C92.4587 70.001 95.0008 72.8101 95.0008 77.7088C95.0549 79.6985 94.5094 81.6577 93.4352 83.3338H89.2262L86.3874 79.0759C86.0898 78.5793 85.5383 78.2924 84.9615 78.3344C84.3901 78.3473 83.8659 78.6525 83.5722 79.1431L80.1345 84.8726L76.4931 77.5882C76.1795 77.0633 75.6134 76.7414 75.0016 76.7414C74.3905 76.7414 73.8244 77.0633 73.5108 77.5882L70.6376 83.3338H66.5667C65.4933 81.6577 64.9478 79.6985 65.0012 77.7088C65.0012 72.8101 67.544 70.001 71.9766 70.001ZM40.0018 30.0018H51.6684V31.668C51.6653 34.4283 49.4285 36.6652 46.669 36.6682H45.002C42.2417 36.6652 40.0049 34.4283 40.0018 31.668V30.0018ZM53.5765 27.2759C53.018 26.8815 52.352 26.6686 51.6684 26.6686H40.0018C39.5662 26.6686 39.1344 26.7548 38.7323 26.9227C36.468 25.4807 33.5719 25.4868 31.3137 26.9394C30.9002 26.7609 30.4531 26.6686 30.0022 26.6686H18.3356C17.6528 26.6686 16.986 26.8815 16.4283 27.2759L12.3505 28.82C12.4024 28.6278 12.4398 28.4271 12.4962 28.2387C13.9565 24.9147 17.8962 17.2862 23.9416 15.5803C27.0604 14.7045 30.4615 15.5254 34.0472 18.0339C34.0587 18.0423 34.0732 18.043 34.0854 18.0507C34.1929 18.1132 34.3074 18.1636 34.4264 18.1994C34.5096 18.2399 34.5965 18.2734 34.6858 18.2994C34.9849 18.378 35.3015 18.3429 35.5761 18.201C35.6967 18.1643 35.8126 18.114 35.9217 18.0499C35.9324 18.0423 35.9461 18.0423 35.9576 18.0331C39.5441 15.5246 42.9436 14.7037 46.0632 15.5803C52.0979 17.2832 56.0384 24.8933 57.5032 28.2265L57.507 28.2326C57.565 28.4264 57.6016 28.6232 57.6543 28.82L53.5765 27.2759ZM18.3356 30.0018H30.0022V31.668C29.9992 34.4283 27.7623 36.6652 25.0028 36.6682H23.3358C20.5756 36.6652 18.3387 34.4283 18.3356 31.668V30.0018ZM63.335 36.6682H61.4742C61.4872 36.5645 61.5131 36.4645 61.5246 36.36C61.6184 35.5147 61.6665 34.6655 61.668 33.8157C61.668 33.6577 61.6489 33.4937 61.6451 33.335H63.335C63.7836 33.3335 64.2131 33.5181 64.5213 33.8446C64.8318 34.1491 65.0058 34.5664 65.0012 35.0012C65.0004 35.9213 64.2551 36.6667 63.335 36.6682ZM35.0024 3.33545C49.491 3.12564 61.4185 14.6801 61.668 29.1687V30.0018H61.3315C61.3064 29.8485 61.2965 29.6989 61.2682 29.5448C61.1027 28.7254 60.9043 27.9358 60.68 27.1981C60.6701 27.1653 60.6449 27.1431 60.6327 27.1111C60.6213 27.0798 60.6266 27.0485 60.6136 27.0196C58.614 22.423 54.183 14.4077 46.9696 12.373C42.8338 11.353 38.4584 12.2006 35.0024 14.69C31.5464 12.1998 27.1718 11.3522 23.036 12.373C15.8226 14.4077 11.3908 22.4222 9.39116 27.0196C9.37895 27.0478 9.38353 27.0814 9.37284 27.1096C9.36064 27.1416 9.33546 27.1645 9.32554 27.1981C9.10048 27.9358 8.90212 28.7254 8.73047 29.5761C8.70453 29.7188 8.69537 29.8591 8.67172 30.0018H8.33604C8.33604 29.6066 8.33604 29.2671 8.33604 29.1687C8.58627 14.6801 20.513 3.12564 35.0024 3.33545ZM6.66982 36.6682C5.74974 36.6667 5.00436 35.9213 5.00284 35.0012C5.00207 34.5526 5.18594 34.1231 5.51247 33.8149C5.82145 33.5013 6.24563 33.3274 6.6866 33.335H8.35892C8.35511 33.4945 8.33604 33.6577 8.33604 33.8157C8.33756 34.6686 8.38563 35.52 8.48023 36.3669C8.49167 36.4691 8.51685 36.5667 8.53058 36.6682H6.66982ZM11.7928 35.9999C11.7127 35.2751 11.6708 34.5458 11.6692 33.8157C11.6692 33.4227 11.7005 33.0207 11.7257 32.6209L15.0024 31.3796V31.668C15.0085 36.2684 18.7362 39.9961 23.3358 40.0014H25.0028C29.6024 39.9961 33.3301 36.2684 33.3354 31.668V30.0018C33.3301 29.8782 33.3179 29.7554 33.2988 29.6333C34.3509 29.026 35.6432 29.0108 36.7106 29.5921C36.6877 29.7279 36.674 29.8645 36.6686 30.0018V31.668C36.674 36.2684 40.4023 39.9961 45.002 40.0014H46.669C51.2686 39.9961 54.9963 36.2684 55.0016 31.668V31.3796L58.2783 32.6209C58.3035 33.0207 58.3348 33.4235 58.3348 33.8157C58.3333 34.5435 58.2921 35.2698 58.212 35.993C56.9898 46.8288 47.0115 55.0012 35.0024 55.0012C22.9933 55.0012 13.0143 46.8288 11.7928 35.9999ZM30.0022 71.6672C30.9231 71.6672 31.6692 70.9211 31.6692 70.001V58.1223C32.7754 58.2566 33.8878 58.3268 35.0024 58.3344C36.1163 58.3268 37.2294 58.2566 38.3356 58.1223V70.001C38.3356 70.9211 39.0817 71.6672 40.0018 71.6672C40.9227 71.6672 41.6688 70.9211 41.6688 70.001V66.6678H45.8733L45.0897 68.6254L45.0806 68.6491L43.0901 73.6249C41.5154 75.552 39.1573 76.6689 36.6686 76.6674H33.3354C30.8468 76.6689 28.4893 75.552 26.9139 73.6249L24.1315 66.6678H28.336V70.001C28.336 70.9211 29.0821 71.6672 30.0022 71.6672ZM40.8548 79.214L35.0024 93.8461L29.15 79.214C30.4851 79.7313 31.9042 79.9983 33.3354 80.0006H36.6686C38.1006 79.9983 39.5196 79.7313 40.8548 79.214ZM3.33662 95.0004V85C3.34501 78.1185 7.20691 71.8205 13.3362 68.691V75.0004C9.65589 75.005 6.67363 77.9872 6.66982 81.6668V88.3332C6.67287 91.0935 8.90975 93.3303 11.6692 93.3334C12.5901 93.3334 13.3362 92.5873 13.3362 91.6672C13.3362 90.7463 12.5901 90.0002 11.6692 90.0002C10.7499 89.9987 10.0038 89.2533 10.003 88.3332V81.6668C10.0045 79.8266 11.4961 78.3359 13.3362 78.3336H16.6694C18.5096 78.3359 20.0011 79.8266 20.0026 81.6668V88.3332C20.0011 89.2533 19.2557 89.9987 18.3356 90.0002C17.4156 90.0002 16.6694 90.7463 16.6694 91.6672C16.6694 92.5873 17.4156 93.3334 18.3356 93.3334C21.0959 93.3303 23.3328 91.0935 23.3358 88.3332V81.6668C23.332 77.9872 20.3497 75.005 16.6694 75.0004V67.3781C17.9397 67.0195 19.245 66.7998 20.5626 66.7235L32.5397 96.6666H5.00284C4.08275 96.6658 3.33738 95.9197 3.33662 95.0004ZM65.0012 96.6666H37.4643L49.4391 66.7303C50.1868 66.7738 50.9314 66.8631 51.6684 66.9974V78.5701C48.4184 79.4101 46.299 82.535 46.7216 85.8652C47.145 89.1953 49.9778 91.6916 53.3354 91.6916C56.6922 91.6916 59.5257 89.1953 59.9484 85.8652C60.3718 82.535 58.2524 79.4101 55.0016 78.5701V67.9281C57.8679 69.0481 60.4031 70.8761 62.3722 73.2403C61.8915 74.6807 61.6535 76.1906 61.668 77.7088C61.6375 81.8827 63.4708 85.8522 66.6682 88.5346V95.0004C66.6666 95.9197 65.9213 96.6658 65.0012 96.6666ZM53.3354 81.6668C55.1763 81.6668 56.6686 83.1591 56.6686 85C56.6686 86.8409 55.1763 88.3332 53.3354 88.3332C51.4944 88.3332 50.0022 86.8409 50.0022 85C50.0037 83.1598 51.4952 81.6691 53.3354 81.6668ZM90.4339 86.6983C90.0433 87.0683 89.6634 87.4276 89.3086 87.7877C87.4532 89.6668 82.2676 94.1757 80.001 96.1333C77.7343 94.1757 72.5495 89.6668 70.6933 87.787C70.3386 87.4276 69.9579 87.0675 69.5673 86.6975L69.5345 86.667H71.6684C72.2993 86.667 72.8761 86.3107 73.1591 85.7461L75.0016 82.0597L78.5102 89.0793C78.7826 89.6225 79.3288 89.975 79.9369 89.9987L80.001 90.0002C80.5861 90.0002 81.1286 89.6927 81.4299 89.1915L85.0752 83.1164L86.9474 85.9247C87.2563 86.3885 87.7774 86.667 88.3344 86.667H90.4675L90.4339 86.6983Z" fill="#7FA2D0"/>
</g>
<defs>
<clipPath id="clip0">
<rect width="100" height="100" fill="white"/>
</clipPath>
</defs>
</svg>
